SplineFontDB: 3.0
FontName: Kurale
FullName: Kurale
FamilyName: Kurale
Weight: Book
Copyright: Copyright (c) 2014 by . All rights reserved.
Version: 
FONDName: Gabriela Devanagari
ItalicAngle: 0
UnderlinePosition: -399
UnderlineWidth: 26
Ascent: 819
Descent: 205
InvalidEm: 0
UFOAscent: 819
UFODescent: -205
LayerCount: 2
Layer: 0 0 "Back" 1
Layer: 1 0 "Fore" 0
FSType: 0
OS2Version: 0
OS2_WeightWidthSlopeOnly: 0
OS2_UseTypoMetrics: 1
CreationTime: 1405015961
ModificationTime: 1431345468
PfmFamily: 17
TTFWeight: 400
TTFWidth: 5
LineGap: 0
VLineGap: 0
Panose: 2 11 6 0 0 0 0 0 0 0
OS2TypoAscent: 1121
OS2TypoAOffset: 0
OS2TypoDescent: -515
OS2TypoDOffset: 0
OS2TypoLinegap: 0
OS2WinAscent: 1121
OS2WinAOffset: 0
OS2WinDescent: -515
OS2WinDOffset: 0
HheadAscent: 1121
HheadAOffset: 0
HheadDescent: -515
HheadDOffset: 0
OS2SubXSize: 954
OS2SubYSize: 887
OS2SubXOff: 0
OS2SubYOff: 272
OS2SupXSize: 954
OS2SupYSize: 887
OS2SupXOff: 0
OS2SupYOff: 682
OS2StrikeYSize: 69
OS2StrikeYPos: 341
OS2CapHeight: 0
OS2XHeight: 0
OS2Vendor: 'ACEd'
OS2CodePages: 00000001.00000000
OS2UnicodeRanges: 80008023.00002042.00000000.00000000
Lookup: 4 0 0 "Lohit-Devanagari-halnHalantFormslookup29" { "Lohit-Devanagari-halnHalantFormslookup29 subtable"  } ['haln' ('deva' <'dflt' 'MAR ' 'NEP ' > 'dev2' <'dflt' 'MAR ' 'NEP ' > 'DFLT' <'dflt' > ) ]
Lookup: 1 0 0 "Lohit-Devanagari-LocalizedMrForms_lookup0" { "Lohit-Devanagari-LocalizedMrForms_lookup0 subtable"  } ['locl' ('deva' <'MAR ' > 'dev2' <'MAR ' > ) ]
Lookup: 4 0 0 "Lohit-Devanagari-LocalizedMrHalfFormslookup1" { "Lohit-Devanagari-LocalizedMrHalfFormslookup1 subtable"  } ['locl' ('deva' <'MAR ' > 'dev2' <'MAR ' > ) ]
Lookup: 4 0 0 "Lohit-Devanagari-'locl' Localized Forms lookup 35" { "Lohit-Devanagari-'locl' Localized Forms lookup 35-1"  } ['locl' ('dev2' <'MAR ' > 'deva' <'MAR ' > ) ]
Lookup: 1 0 0 "Lohit-Devanagari-LocalizedNpFormslookup2" { "Lohit-Devanagari-LocalizedNpFormslookup2 subtable"  } ['locl' ('deva' <'NEP ' > 'dev2' <'NEP ' > ) ]

StartChar: .notdef
Encoding: 215 -1 0
Width: 1065
VWidth: 0
GlyphClass: 2
Flags: W
LayerCount: 2
Back
Fore
SplineSet
200 67 m 257
 866 67 l 257
 866 866 l 257
 200 866 l 257
 200 67 l 257
133 0 m 257
 133 932 l 257
 932 932 l 257
 932 0 l 257
 133 0 l 257
EndSplineSet
Validated: 1
PickledData: "(dp1
S'com.typemytype.robofont.layerData'
p2
(dp3
S'original'
p4
(dp5
S'name'
p6
S'.notdef'
p7
sS'lib'
p8
(dp9
sS'unicodes'
p10
(tsS'width'
p11
I1065
sS'contours'
p12
(tsS'components'
p13
(tsS'anchors'
p14
(tsssS'com.typemytype.robofont.mark'
p15
(I1
I1
I1
I0
tp16
s."
EndChar

StartChar: aadeva
Encoding: 54 2310 1
Width: 1044
VWidth: 0
GlyphClass: 2
Flags: W
HStem: 85 63<213.34 358.575> 316 53<443.966 554.182> 365 42<232.399 305.199> 637 40<223.511 339.149>
VStem: 11.4609 48.5391<341.335 400.352> 127 70<524.887 613.062> 373 84<451.196 606.678> 384 85<174.531 308.961>
AnchorPoint: "Lohit-Devanagari-DVAnchor3" 792 664 basechar 0
LayerCount: 2
Back
Fore
SplineSet
300 85 m 256xbd
 394 85 469 134 469 234 c 256xbd
 469 259 460 288 443 316 c 257
 448 316 l 258
 508 316 558 330 594 361 c 257
 594 0 l 257
 681 0 l 257
 681 621 l 257
 867 621 l 257
 867 0 l 257
 954 0 l 257
 954 621 l 257
 1057 621 l 257
 1057 666 l 257
 484 666 l 257
 484 621 l 257
 594 621 l 257
 594 421 l 257
 555 383 514 369 466 369 c 256
 428 369 399 378 380 398 c 257
 432 427 457 474 457 530 c 256
 457 613 395 677 285 677 c 256
 183 677 127 636 127 582 c 256
 127 536 156 509 192 509 c 256
 200 509 204 511 204 516 c 256
 204 523 197 529 197 561 c 256
 197 604 227 637 286 637 c 256
 333 637 373 605 373 529 c 256xde
 373 447 328 410 242 407 c 256
 235 407 232 399 232 391 c 256
 232 378 239 365 247 365 c 256
 266 365 289 368 306 371 c 257
 361 329 384 289 384 243 c 256
 384 180 351 148 293 148 c 256
 190 148 113.754882812 241.059570312 60 396 c 256
 58.7490234375 399.604492188 53.236328125 401.650390625 43.744140625 401.650390625 c 0
 27.455078125 401.650390625 11.4609375 390.95703125 11.4609375 378.307617188 c 0
 11.4609375 376.518554688 11.771484375 374.661132812 12.435546875 372.747070312 c 256
 71.7626953125 201.74609375 171 85 300 85 c 256xbd
EndSplineSet
Validated: 9
PickledData: "(dp1
S'com.typemytype.robofont.layerData'
p2
(dp3
S'original'
p4
(dp5
S'name'
p6
S'aadeva'
p7
sS'lib'
p8
(dp9
sS'unicodes'
p10
(tsS'width'
p11
I1043
sS'contours'
p12
((dp13
S'points'
p14
((dp15
S'segmentType'
p16
S'qcurve'
p17
sS'x'
I311
sS'smooth'
p18
I01
sS'y'
I47
s(dp19
S'y'
I47
sS'x'
I231
sg18
I00
s(dp20
S'y'
I180
sS'x'
I81
sg18
I00
s(dp21
g16
S'qcurve'
p22
sS'x'
I25
sg18
I00
sS'y'
I300
s(dp23
g16
S'line'
p24
sS'x'
I72
sg18
I00
sS'y'
I340
s(dp25
S'y'
I232
sS'x'
I122
sg18
I00
s(dp26
S'y'
I113
sS'x'
I247
sg18
I00
s(dp27
g16
S'qcurve'
p28
sS'x'
I311
sg18
I01
sS'y'
I113
s(dp29
S'y'
I113
sS'x'
I353
sg18
I00
s(dp30
S'y'
I184
sS'x'
I411
sg18
I00
s(dp31
g16
S'qcurve'
p32
sS'x'
I411
sg18
I01
sS'y'
I233
s(dp33
S'y'
I280
sS'x'
I411
sg18
I00
s(dp34
S'y'
I346
sS'x'
I345
sg18
I00
s(dp35
g16
S'qcurve'
p36
sS'x'
I298
sg18
I01
sS'y'
I346
s(dp37
S'y'
I346
sS'x'
I283
sg18
I00
s(dp38
S'y'
I340
sS'x'
I250
sg18
I00
s(dp39
g16
S'qcurve'
p40
sS'x'
I231
sg18
I00
sS'y'
I333
s(dp41
g16
S'line'
p42
sS'x'
I205
sg18
I00
sS'y'
I393
s(dp43
S'y'
I398
sS'x'
I265
sg18
I00
s(dp44
S'y'
I475
sS'x'
I358
sg18
I00
s(dp45
g16
S'qcurve'
p46
sS'x'
I358
sg18
I01
sS'y'
I519
s(dp47
S'y'
I555
sS'x'
I358
sg18
I00
s(dp48
S'y'
I606
sS'x'
I303
sg18
I00
s(dp49
g16
S'qcurve'
p50
sS'x'
I265
sg18
I01
sS'y'
I606
s(dp51
S'y'
I606
sS'x'
I233
sg18
I00
s(dp52
S'y'
I557
sS'x'
I155
sg18
I00
s(dp53
g16
S'qcurve'
p54
sS'x'
I118
sg18
I00
sS'y'
I513
s(dp55
g16
S'line'
p56
sS'x'
I72
sg18
I00
sS'y'
I559
s(dp57
S'y'
I610
sS'x'
I106
sg18
I00
s(dp58
S'y'
I666
sS'x'
I209
sg18
I00
s(dp59
g16
S'qcurve'
p60
sS'x'
I265
sg18
I01
sS'y'
I666
s(dp61
S'y'
I666
sS'x'
I331
sg18
I00
s(dp62
S'y'
I581
sS'x'
I424
sg18
I00
s(dp63
g16
S'qcurve'
p64
sS'x'
I424
sg18
I01
sS'y'
I519
s(dp65
S'y'
I483
sS'x'
I424
sg18
I00
s(dp66
S'y'
I417
sS'x'
I392
sg18
I00
s(dp67
g16
S'qcurve'
p68
sS'x'
I365
sg18
I00
sS'y'
I393
s(dp69
S'y'
I366
sS'x'
I410
sg18
I00
s(dp70
S'y'
I340
sS'x'
I498
sg18
I00
s(dp71
g16
S'qcurve'
p72
sS'x'
I538
sg18
I01
sS'y'
I340
s(dp73
S'y'
I340
sS'x'
I548
sg18
I00
s(dp74
S'y'
I353
sS'x'
I582
sg18
I00
s(dp75
g16
S'qcurve'
p76
sS'x'
I604
sg18
I00
sS'y'
I366
s(dp77
g16
S'line'
p78
sS'x'
I604
sg18
I00
sS'y'
I606
s(dp79
g16
S'line'
p80
sS'x'
I484
sg18
I00
sS'y'
I606
s(dp81
g16
S'line'
p82
sS'x'
I484
sg18
I00
sS'y'
I666
s(dp83
g16
S'line'
p84
sS'x'
I1057
sg18
I00
sS'y'
I666
s(dp85
g16
S'line'
p86
sS'x'
I1057
sg18
I00
sS'y'
I606
s(dp87
g16
S'line'
p88
sS'x'
I944
sg18
I00
sS'y'
I606
s(dp89
g16
S'line'
p90
sS'x'
I944
sg18
I00
sS'y'
I0
s(dp91
g16
S'line'
p92
sS'x'
I877
sg18
I00
sS'y'
I0
s(dp93
g16
S'line'
p94
sS'x'
I877
sg18
I00
sS'y'
I606
s(dp95
g16
S'line'
p96
sS'x'
I671
sg18
I00
sS'y'
I606
s(dp97
g16
S'line'
p98
sS'x'
I671
sg18
I00
sS'y'
I0
s(dp99
g16
S'line'
p100
sS'x'
I604
sg18
I00
sS'y'
I0
s(dp101
g16
S'line'
p102
sS'x'
I604
sg18
I00
sS'y'
I300
s(dp103
S'y'
I286
sS'x'
I588
sg18
I00
s(dp104
S'y'
I273
sS'x'
I555
sg18
I00
s(dp105
g16
S'qcurve'
p106
sS'x'
I538
sg18
I01
sS'y'
I273
s(dp107
S'y'
I273
sS'x'
I510
sg18
I00
s(dp108
S'y'
I284
sS'x'
I464
sg18
I00
s(dp109
g16
S'qcurve'
p110
sS'x'
I451
sg18
I00
sS'y'
I293
s(dp111
S'y'
I282
sS'x'
I464
sg18
I00
s(dp112
S'y'
I244
sS'x'
I478
sg18
I00
s(dp113
g16
S'qcurve'
p114
sS'x'
I478
sg18
I01
sS'y'
I220
s(dp115
S'y'
I148
sS'x'
I478
sg18
I00
s(dp116
S'y'
I47
sS'x'
I381
sg18
I00
stp117
stp118
sS'components'
p119
(tsS'anchors'
p120
(tsssS'com.typemytype.robofont.mark'
p121
(F0.75
F1
F1
F1
tp122
s."
EndChar

StartChar: aasigndeva
Encoding: 110 2366 2
Width: 266
VWidth: 0
GlyphClass: 2
Flags: W
VStem: -13 292
LayerCount: 2
Back
Fore
SplineSet
-13 621 m 257
 90 621 l 257
 90 0 l 257
 176 0 l 257
 176 621 l 257
 279 621 l 257
 279 666 l 257
 -13 666 l 257
 -13 621 l 257
EndSplineSet
Validated: 9
PickledData: "(dp1
S'com.typemytype.robofont.layerData'
p2
(dp3
S'original'
p4
(dp5
S'name'
p6
S'aasigndeva'
p7
sS'lib'
p8
(dp9
sS'unicodes'
p10
(tsS'width'
p11
I267
sS'contours'
p12
((dp13
S'points'
p14
((dp15
S'segmentType'
p16
S'line'
p17
sS'x'
I-13
sS'smooth'
p18
I00
sS'y'
I606
s(dp19
g16
S'line'
p20
sS'x'
I-13
sg18
I00
sS'y'
I666
s(dp21
g16
S'line'
p22
sS'x'
I280
sg18
I00
sS'y'
I666
s(dp23
g16
S'line'
p24
sS'x'
I280
sg18
I00
sS'y'
I606
s(dp25
g16
S'line'
p26
sS'x'
I166
sg18
I00
sS'y'
I606
s(dp27
g16
S'line'
p28
sS'x'
I166
sg18
I00
sS'y'
I0
s(dp29
g16
S'line'
p30
sS'x'
I100
sg18
I00
sS'y'
I0
s(dp31
g16
S'line'
p32
sS'x'
I100
sg18
I00
sS'y'
I606
stp33
stp34
sS'components'
p35
(tsS'anchors'
p36
(tsssS'com.typemytype.robofont.mark'
p37
(F0.75
F1
F1
F1
tp38
s."
EndChar

StartChar: abbreviationsigndeva
Encoding: 160 2416 3
Width: 545
VWidth: 0
GlyphClass: 2
Flags: W
LayerCount: 2
Back
Fore
SplineSet
274 381 m 256
 336 381 385 432 385 496 c 256
 385 560 336 610 274 610 c 256
 214 610 164 560 164 496 c 256
 164 432 214 381 274 381 c 256
446 496 m 256
 446 401 369 325 273 325 c 256
 177 325 100 401 100 496 c 256
 100 590 177 666 273 666 c 256
 369 666 446 590 446 496 c 256
EndSplineSet
Validated: 1
PickledData: "(dp1
S'com.typemytype.robofont.layerData'
p2
(dp3
S'original'
p4
(dp5
S'name'
p6
S'abbreviationsigndeva'
p7
sS'lib'
p8
(dp9
sS'unicodes'
p10
(tsS'width'
p11
I545
sS'contours'
p12
(tsS'components'
p13
(tsS'anchors'
p14
(tsssS'com.typemytype.robofont.mark'
p15
(I1
I1
I1
I0
tp16
s."
EndChar

StartChar: acombiningletterdeva
Encoding: 196 43242 5
Width: 0
VWidth: 0
GlyphClass: 4
Flags: W
HStem: 735.5 38.5<-260.097 -168.932> 851.08 33.4199<-123.789 -68.5301> 875.5 28<-238.839 -199.752> 1011.5 27<-242.045 -179.435>
VStem: -349.27 31.0762<849.667 890.408> -291.5 42<951.009 1008.16> -163 49.5<777.399 852.549 917.468 1003.75> -59.5 50.5<892.423 908.46>
AnchorPoint: "Lohit-Devanagari-DVAnchor3" -137 681 mark 0
LayerCount: 2
Back
SplineSet
90.2998046875 364 m 256xbd
 141.450195312 364 183.25 390.950195312 183.25 445.950195312 c 256xbd
 183.25 459.700195312 178.299804688 475.650390625 168.950195312 491.049804688 c 257
 204.150390625 491.049804688 230.549804688 498.75 250.349609375 515.799804688 c 257
 250.349609375 317.25 l 257
 298.200195312 317.25 l 257
 298.200195312 658.799804688 l 257
 354.849609375 658.799804688 l 257
 354.849609375 683.549804688 l 257
 190.400390625 683.549804688 l 257
 190.400390625 658.799804688 l 257
 250.349609375 658.799804688 l 257
 250.349609375 548.799804688 l 257
 229.450195312 527.900390625 207.450195312 520.200195312 181.599609375 520.200195312 c 256
 160.700195312 520.200195312 144.75 525.150390625 134.299804688 536.150390625 c 257
 162.900390625 552.099609375 176.650390625 577.950195312 176.650390625 608.75 c 256
 176.650390625 654.400390625 142.549804688 689.599609375 82.0498046875 689.599609375 c 256
 25.9501953125 689.599609375 -4.849609375 667.049804688 -4.849609375 637.349609375 c 256
 -4.849609375 612.049804688 11.099609375 597.200195312 30.900390625 597.200195312 c 256
 35.2998046875 597.200195312 37.5 598.299804688 37.5 601.049804688 c 256
 37.5 604.900390625 33.650390625 608.200195312 33.650390625 625.799804688 c 256
 33.650390625 649.450195312 50.150390625 667.599609375 82.599609375 667.599609375 c 256
 108.450195312 667.599609375 130.450195312 650 130.450195312 608.200195312 c 256xde
 130.450195312 563.099609375 105.700195312 542.75 58.400390625 541.099609375 c 256
 54.5498046875 541.099609375 52.900390625 536.700195312 52.900390625 532.299804688 c 256
 52.900390625 525.150390625 56.75 518 61.150390625 518 c 256
 71.599609375 518 84.25 519.650390625 93.599609375 521.299804688 c 257
 123.849609375 498.200195312 136.5 476.200195312 136.5 450.900390625 c 256
 136.5 416.25 117.799804688 398.650390625 86.4501953125 398.650390625 c 256
 29.7998046875 398.650390625 -12.134765625 438.833007812 -41.7001953125 524.049804688 c 256
 -42.3876953125 526.032226562 -45.419921875 527.158203125 -50.640625 527.158203125 c 0
 -59.599609375 527.158203125 -68.396484375 521.276367188 -68.396484375 514.319335938 c 0
 -68.396484375 513.334960938 -68.2255859375 512.313476562 -67.8603515625 511.260742188 c 256
 -35.23046875 417.209960938 19.349609375 364 90.2998046875 364 c 256xbd
-215 750 m 260
 -246 750 -275 760 -303 780 c 260
 -332 800 -356 828 -377 865 c 261
 -379 868 l 261
 -345 884 l 261
 -343 881 l 261
 -326 851 -306 828 -283 811 c 260
 -261 795 -238 787 -215 787 c 260
 -200 787 -188 791 -178 800 c 260
 -168 808 -163 818 -163 830 c 260
 -163 859 -190 883 -222 883 c 260
 -233 883 -245 882 -258 878 c 262
 -261 877 l 261
 -280 911 l 261
 -275 911 l 261
 -253 913 -234 919 -217 929 c 261
 -202 940 -194 950 -194 961 c 260
 -194 981 -212 999 -233 999 c 260
 -261 999 -292 985 -320 958 c 262
 -322 956 l 261
 -354 981 l 261
 -351 984 l 261
 -324 1015 -281 1033 -233 1033 c 260
 -210 1033 -190 1026 -173 1012 c 260
 -156 998 -148 981 -148 961 c 260
 -148 950 -151 940 -158 930 c 260
 -163 922 -169 915 -178 909 c 261
 -161 902 -147 896 -134 892 c 260
 -120 887 -109 885 -100 885 c 260
 -95 885 -89 886 -81 888 c 261
 -74 891 -65 894 -56 898 c 261
 -56 999 l 261
 -122 999 l 261
 -122 1033 l 261
 52 1033 l 261
 52 999 l 261
 -12 999 l 261
 -12 729 l 261
 -56 729 l 261
 -56 860 l 261
 -60 857 -64 855 -69 854 c 260
 -76 852 -82 851 -89 851 c 260
 -100 851 -109 852 -118 853 c 262
 -124 855 l 262
 -123 854 -123 852 -123 851 c 260
 -120 845 -119 838 -119 831 c 260
 -119 808 -128 789 -147 774 c 260
 -166 758 -188 750 -215 750 c 260
EndSplineSet
Fore
SplineSet
-348.588867188 871.725585938 m 0xbf
 -318.711914062 785.609375 -268.100585938 735.5 -201.5 735.5 c 0
 -153.815429688 735.5 -113.5 761.125976562 -113.5 813.5 c 0
 -113.5 825.252929688 -117.51171875 838.692382812 -124.016601562 851.080078125 c 1
 -95.599609375 852.043945312 -76.6181640625 857.731445312 -59.5 869.784179688 c 1
 -59.5 729 l 1
 -9 729 l 1
 -9 1003.5 l 1
 42.5 1003.5 l 1
 42.5 1033 l 1
 -114 1033 l 1
 -114 1003.5 l 1
 -59.5 1003.5 l 1
 -59.5 908.459960938 l 1
 -78.427734375 890.248046875 -96.1591796875 884.5 -118.5 884.5 c 0xdf
 -135.038085938 884.5 -147.794921875 888.526367188 -155.684570312 894.873046875 c 1
 -130.771484375 910.708984375 -119.5 933.989257812 -119.5 961.5 c 0
 -119.5 1005.11132812 -152.499023438 1038.5 -209 1038.5 c 0
 -260.50390625 1038.5 -291.5 1017.59472656 -291.5 987.5 c 0
 -291.5 962.858398438 -275.521484375 947.5 -255.5 947.5 c 0
 -251.407226562 947.5 -246 948.923828125 -246 954.5 c 0
 -246 960.390625 -249.5 961.194335938 -249.5 977 c 0
 -249.5 996.47265625 -236.44140625 1011.5 -208.5 1011.5 c 0
 -187.034179688 1011.5 -168.5 997.5390625 -168.5 961 c 0
 -168.5 921.953125 -188.892578125 904.953125 -230.560546875 903.5 c 1
 -237.395507812 903.5 -239 896.099609375 -239 892 c 0
 -239 885.203125 -235.662109375 875.5 -228 875.5 c 0
 -218.87109375 875.5 -206.544921875 877.092773438 -199.4140625 878.290039062 c 1
 -172.36328125 857.078125 -163 839.333007812 -163 818 c 0
 -163 788.155273438 -178.247070312 774 -205 774 c 0
 -254.380859375 774 -291.48828125 808.671875 -318.193359375 885.646484375 c 0
 -319.775390625 890.2109375 -324.977539062 890.825195312 -329.627929688 890.825195312 c 0
 -338.717773438 890.825195312 -349.26953125 885.010742188 -349.26953125 875.654296875 c 0
 -349.26953125 874.353515625 -349.040039062 873.02734375 -348.588867188 871.725585938 c 0xbf
EndSplineSet
Validated: 9
PickledData: "(dp1
S'com.typemytype.robofont.layerData'
p2
(dp3
S'original'
p4
(dp5
S'name'
p6
S'acombiningletterdeva'
p7
sS'lib'
p8
(dp9
sS'unicodes'
p10
(tsS'width'
p11
I0
sS'contours'
p12
(tsS'components'
p13
(tsS'anchors'
p14
(tsssS'com.typemytype.robofont.mark'
p15
(I1
I1
I1
I0
tp16
s."
EndChar

StartChar: acutedeva
Encoding: 132 2388 6
Width: 0
VWidth: 0
GlyphClass: 4
Flags: W
AnchorPoint: "Lohit-Devanagari-DVAnchor3" -137 664 mark 0
LayerCount: 2
Back
Fore
SplineSet
-219 740 m 257
 -188 704 l 257
 -70 762 l 258
 -27 783 -12 807 -12 838 c 256
 -12 868 -29 891 -56 903 c 257
 -219 740 l 257
EndSplineSet
Validated: 9
PickledData: "(dp1
S'com.typemytype.robofont.layerData'
p2
(dp3
S'original'
p4
(dp5
S'name'
p6
S'acutedeva'
p7
sS'lib'
p8
(dp9
sS'unicodes'
p10
(tsS'width'
p11
I0
sS'contours'
p12
(tsS'components'
p13
(tsS'anchors'
p14
(tsssS'com.typemytype.robofont.mark'
p15
(I1
I1
I1
I0
tp16
s."
EndChar

StartChar: adeva
Encoding: 53 2309 7
Width: 768
VWidth: 0
GlyphClass: 2
Flags: W
HStem: 85 63<203.919 358.181> 316 53<443.966 552.771> 365 42<232.399 305.199> 637 40<223.511 339.149>
VStem: 11.4609 48.5391<321.718 380.352> 127 70<524.887 613.062> 373 84<451.196 606.678> 384 85<175.31 308.961>
AnchorPoint: "Lohit-Devanagari-DVAnchor3" 636 664 basechar 0
LayerCount: 2
Back
SplineSet
242 407 m 256
 235 407 232 399 232 391 c 256
 232 378 239 365 247 365 c 256
 266 365 289 368 306 371 c 257
 361 329 384 289 384 243 c 256
 384 180 351 148 293 148 c 256
 178 148 67 265 67 407 c 256
 67 414 60 417 49 417 c 256
 36 417 22 411 22 398 c 256
 22 237 159 85 300 85 c 256
 394 85 469 134 469 234 c 256
 469 259 460 288 443 316 c 257
 507 316 555 330 591 361 c 257
 591 0 l 257
 678 0 l 257
 678 621 l 257
 781 621 l 257
 781 666 l 257
 482 666 l 257
 482 621 l 257
 591 621 l 257
 591 421 l 257
 553 383 513 369 466 369 c 256
 428 369 399 378 380 398 c 257
 432 427 457 474 457 530 c 256
 457 613 395 677 285 677 c 256
 183 677 127 636 127 582 c 256
 127 536 156 509 192 509 c 256
 200 509 204 511 204 516 c 256
 204 523 197 529 197 561 c 256
 197 604 227 637 286 637 c 256
 333 637 373 605 373 529 c 256
 373 447 328 410 242 407 c 256
EndSplineSet
Fore
SplineSet
300 85 m 256xbd
 393 85 469 134 469 234 c 256xbd
 469 259 460 288 443 316 c 257
 507 316 555 330 591 361 c 257
 591 0 l 257
 678 0 l 257
 678 621 l 257
 781 621 l 257
 781 666 l 257
 482 666 l 257
 482 621 l 257
 591 621 l 257
 591 421 l 257
 553 383 513 369 466 369 c 256
 428 369 399 378 380 398 c 257
 432 427 457 474 457 530 c 256
 457 613 395 677 285 677 c 256
 183 677 127 636 127 582 c 256
 127 536 156 509 192 509 c 256
 200 509 204 511 204 516 c 256
 204 523 197 529 197 561 c 256
 197 604 227 637 286 637 c 256
 333 637 373 605 373 529 c 256xde
 373 447 328 410 242 407 c 256
 235 407 232 399 232 391 c 256
 232 378 239 365 247 365 c 256
 266 365 289 368 306 371 c 257
 361 329 384 289 384 243 c 256
 384 180 350 148 293 148 c 256
 190 148 113.754882812 221.059570312 60 376 c 256
 58.7490234375 379.604492188 53.236328125 381.650390625 43.744140625 381.650390625 c 0
 27.455078125 381.650390625 11.4609375 370.95703125 11.4609375 358.307617188 c 0
 11.4609375 356.518554688 11.771484375 354.661132812 12.435546875 352.747070312 c 256
 71.7626953125 181.74609375 171 85 300 85 c 256xbd
EndSplineSet
Validated: 9
PickledData: "(dp1
S'com.typemytype.robofont.layerData'
p2
(dp3
S'original'
p4
(dp5
S'name'
p6
S'adeva'
p7
sS'lib'
p8
(dp9
sS'unicodes'
p10
(tsS'width'
p11
I768
sS'contours'
p12
((dp13
S'points'
p14
((dp15
S'y'
I47
sS'x'
I229
sS'smooth'
p16
I00
s(dp17
S'y'
I180
sS'x'
I79
sg16
I00
s(dp18
S'segmentType'
p19
S'qcurve'
p20
sS'x'
I23
sg16
I00
sS'y'
I300
s(dp21
g19
S'line'
p22
sS'x'
I72
sg16
I00
sS'y'
I328
s(dp23
S'y'
I226
sS'x'
I120
sg16
I00
s(dp24
S'y'
I113
sS'x'
I244
sg16
I00
s(dp25
g19
S'qcurve'
p26
sS'x'
I309
sg16
I01
sS'y'
I113
s(dp27
S'y'
I113
sS'x'
I350
sg16
I00
s(dp28
S'y'
I174
sS'x'
I409
sg16
I00
s(dp29
g19
S'qcurve'
p30
sS'x'
I409
sg16
I01
sS'y'
I218
s(dp31
S'y'
I272
sS'x'
I409
sg16
I00
s(dp32
S'y'
I346
sS'x'
I342
sg16
I00
s(dp33
g19
S'qcurve'
p34
sS'x'
I296
sg16
I01
sS'y'
I346
s(dp35
S'y'
I346
sS'x'
I281
sg16
I00
s(dp36
S'y'
I340
sS'x'
I248
sg16
I00
s(dp37
g19
S'qcurve'
p38
sS'x'
I229
sg16
I00
sS'y'
I333
s(dp39
g19
S'line'
p40
sS'x'
I202
sg16
I00
sS'y'
I393
s(dp41
S'y'
I398
sS'x'
I262
sg16
I00
s(dp42
S'y'
I471
sS'x'
I354
sg16
I00
s(dp43
g19
S'qcurve'
p44
sS'x'
I354
sg16
I01
sS'y'
I513
s(dp45
S'y'
I551
sS'x'
I354
sg16
I00
s(dp46
S'y'
I606
sS'x'
I308
sg16
I00
s(dp47
g19
S'qcurve'
p48
sS'x'
I276
sg16
I01
sS'y'
I606
s(dp49
S'y'
I606
sS'x'
I237
sg16
I00
s(dp50
S'y'
I557
sS'x'
I153
sg16
I00
s(dp51
g19
S'qcurve'
p52
sS'x'
I116
sg16
I00
sS'y'
I513
s(dp53
g19
S'line'
p54
sS'x'
I69
sg16
I00
sS'y'
I559
s(dp55
S'y'
I610
sS'x'
I104
sg16
I00
s(dp56
S'y'
I666
sS'x'
I213
sg16
I00
s(dp57
g19
S'qcurve'
p58
sS'x'
I276
sg16
I01
sS'y'
I666
s(dp59
S'y'
I666
sS'x'
I337
sg16
I00
s(dp60
S'y'
I577
sS'x'
I422
sg16
I00
s(dp61
g19
S'qcurve'
p62
sS'x'
I422
sg16
I01
sS'y'
I513
s(dp63
S'y'
I479
sS'x'
I422
sg16
I00
s(dp64
S'y'
I417
sS'x'
I390
sg16
I00
s(dp65
g19
S'qcurve'
p66
sS'x'
I362
sg16
I00
sS'y'
I393
s(dp67
S'y'
I364
sS'x'
I413
sg16
I00
s(dp68
S'y'
I333
sS'x'
I491
sg16
I00
s(dp69
g19
S'qcurve'
p70
sS'x'
I515
sg16
I01
sS'y'
I333
s(dp71
S'y'
I333
sS'x'
I530
sg16
I00
s(dp72
S'y'
I350
sS'x'
I574
sg16
I00
s(dp73
g19
S'qcurve'
p74
sS'x'
I602
sg16
I00
sS'y'
I366
s(dp75
g19
S'line'
p76
sS'x'
I602
sg16
I00
sS'y'
I606
s(dp77
g19
S'line'
p78
sS'x'
I482
sg16
I00
sS'y'
I606
s(dp79
g19
S'line'
p80
sS'x'
I482
sg16
I00
sS'y'
I666
s(dp81
g19
S'line'
p82
sS'x'
I782
sg16
I00
sS'y'
I666
s(dp83
g19
S'line'
p84
sS'x'
I782
sg16
I00
sS'y'
I606
s(dp85
g19
S'line'
p86
sS'x'
I668
sg16
I00
sS'y'
I606
s(dp87
g19
S'line'
p88
sS'x'
I668
sg16
I00
sS'y'
I0
s(dp89
g19
S'line'
p90
sS'x'
I602
sg16
I00
sS'y'
I0
s(dp91
g19
S'line'
p92
sS'x'
I602
sg16
I00
sS'y'
I300
s(dp93
S'y'
I286
sS'x'
I586
sg16
I00
s(dp94
S'y'
I273
sS'x'
I553
sg16
I00
s(dp95
g19
S'qcurve'
p96
sS'x'
I535
sg16
I01
sS'y'
I273
s(dp97
S'y'
I273
sS'x'
I507
sg16
I00
s(dp98
S'y'
I284
sS'x'
I462
sg16
I00
s(dp99
g19
S'qcurve'
p100
sS'x'
I449
sg16
I00
sS'y'
I293
s(dp101
S'y'
I282
sS'x'
I462
sg16
I00
s(dp102
S'y'
I244
sS'x'
I475
sg16
I00
s(dp103
g19
S'qcurve'
p104
sS'x'
I475
sg16
I01
sS'y'
I220
s(dp105
S'y'
I148
sS'x'
I475
sg16
I00
s(dp106
S'y'
I47
sS'x'
I378
sg16
I00
s(dp107
g19
S'qcurve'
p108
sS'x'
I309
sg16
I01
sS'y'
I47
stp109
stp110
sS'components'
p111
(tsS'anchors'
p112
(tsssS'com.typemytype.robofont.mark'
p113
(F0.75
F1
F1
F1
tp114
s."
EndChar

StartChar: aisign_ra_virama.alt1
Encoding: 216 -1 9
Width: 0
VWidth: 0
GlyphClass: 4
Flags: HW
HStem: 886 59<-102.9 31.2118>
VStem: -168 32<784.5 883>
AnchorPoint: "Lohit-Devanagari-DVAnchor3" -143 664 mark 0
LayerCount: 2
Back
Fore
SplineSet
-181 799 m 256
 -181 791 -180 784 -179 776 c 257
 -145 761 l 257
 -148 771 -149 780 -149 789 c 256
 -149 858 -97 886 -56 886 c 256
 1 886 10 861 29 861 c 256
 38 861 42 870 42 886 c 256
 42 922 8 945 -46 945 c 256
 -101 945 -181 908 -181 799 c 256
-99 666 m 257
 -223 988 l 258
 -226 996 -229 998 -237 998 c 256
 -261 998 -316 975 -316 958 c 256
 -316 955 -314 952 -313 949 c 258
 -158 694 l 257
 -421 868 l 258
 -424 868 -427 873 -431 873 c 256
 -441 873 -472 830 -472 802 c 256
 -472 797 -468 793 -463 790 c 258
 -185 666 l 257
 -99 666 l 257
EndSplineSet
Validated: 5
PickledData: "(dp1
S'com.typemytype.robofont.layerData'
p2
(dp3
S'original'
p4
(dp5
S'name'
p6
S'aisign_ra_virama.alt1'
p7
sS'lib'
p8
(dp9
sS'unicodes'
p10
(tsS'width'
p11
I0
sS'contours'
p12
((dp13
S'points'
p14
((dp15
S'segmentType'
p16
S'line'
p17
sS'x'
I-172
sS'smooth'
p18
I00
sS'y'
I666
s(dp19
g16
S'line'
p20
sS'x'
I-465
sg18
I00
sS'y'
I799
s(dp21
g16
S'line'
p22
sS'x'
I-431
sg18
I00
sS'y'
I866
s(dp23
g16
S'line'
p24
sS'x'
I-125
sg18
I00
sS'y'
I672
s(dp25
g16
S'line'
p26
sS'x'
I-292
sg18
I00
sS'y'
I959
s(dp27
g16
S'line'
p28
sS'x'
I-225
sg18
I00
sS'y'
I999
s(dp29
g16
S'line'
p30
sS'x'
I-165
sg18
I00
sS'y'
I859
s(dp31
S'y'
F912.60000000000002
sS'x'
F-138.19999999999999
sg18
I00
s(dp32
S'y'
F945
sS'x'
F-83.319999999999993
sg18
I00
s(dp33
g16
S'curve'
p34
sS'x'
I-19
sg18
I01
sS'y'
I945
s(dp35
S'y'
F945
sS'x'
F6.46
sg18
I00
s(dp36
S'y'
F941.38
sS'x'
F29.539999999999999
sg18
I00
s(dp37
g16
S'curve'
p38
sS'x'
I55
sg18
I00
sS'y'
I932
s(dp39
g16
S'line'
p40
sS'x'
I55
sg18
I00
sS'y'
I872
s(dp41
S'y'
F886.74000000000001
sS'x'
F17.48
sg18
I00
s(dp42
S'y'
F892
sS'x'
F-5.5999999999999996
sg18
I00
s(dp43
g16
S'curve'
p44
sS'x'
I-19
sg18
I01
sS'y'
I892
s(dp45
S'y'
F892
sS'x'
F-80.640000000000001
sg18
I00
s(dp46
S'y'
F848.27999999999997
sS'x'
F-132
sg18
I00
s(dp47
g16
S'curve'
p48
sS'x'
I-132
sg18
I01
sS'y'
I792
s(dp49
S'y'
F781.27999999999997
sS'x'
F-132
sg18
I00
s(dp50
S'y'
F762.82000000000005
sS'x'
F-126.73999999999999
sg18
I00
s(dp51
g16
S'curve'
p52
sS'x'
I-112
sg18
I00
sS'y'
I732
s(dp53
g16
S'line'
p54
sS'x'
I-85
sg18
I00
sS'y'
I666
stp55
stp56
sS'components'
p57
(tsS'anchors'
p58
(tsssS'com.typemytype.robofont.mark'
p59
(F0.1508399248
F0.30573034290000001
F0.19466084240000001
F1
tp60
s."
LCarets2: 1 0
Ligature2: "Lohit-Devanagari-AboveBaseSubstitutionslookup subtable" aisigndeva radeva_viramadeva
EndChar

StartChar: aisign_ra_virama_anusvara
Encoding: 217 -1 10
Width: 0
VWidth: 0
GlyphClass: 4
Flags: HW
HStem: 737 98<-66.9781 0.827938> 886 59<-110.9 23.2118>
VStem: -79 92<748.811 822.895>
AnchorPoint: "Lohit-Devanagari-DVAnchor3" -143 664 mark 0
LayerCount: 2
Back
Fore
SplineSet
-181 799 m 256
 -181 791 -180 784 -179 776 c 257
 -145 761 l 257
 -148 771 -149 780 -149 789 c 256
 -149 858 -97 886 -56 886 c 256
 1 886 10 861 29 861 c 256
 38 861 42 870 42 886 c 256
 42 922 8 945 -46 945 c 256
 -101 945 -181 908 -181 799 c 256
-99 666 m 257
 -223 988 l 258
 -226 996 -229 998 -237 998 c 256
 -261 998 -316 975 -316 958 c 256
 -316 955 -314 952 -313 949 c 258
 -158 694 l 257
 -421 868 l 258
 -424 868 -427 873 -431 873 c 256
 -441 873 -472 830 -472 802 c 256
 -472 797 -468 793 -463 790 c 258
 -185 666 l 257
 -99 666 l 257
-89 786 m 256
 -89 766 -61 737 -44 737 c 256
 -25 737 3 766 3 786 c 256
 3 805 -25 835 -44 835 c 256
 -62 835 -89 805 -89 786 c 256
EndSplineSet
Validated: 5
PickledData: "(dp1
S'com.typemytype.robofont.layerData'
p2
(dp3
S'original'
p4
(dp5
S'name'
p6
S'aisign_ra_virama_anusvara'
p7
sS'lib'
p8
(dp9
sS'unicodes'
p10
(tsS'width'
p11
I0
sS'contours'
p12
((dp13
S'points'
p14
((dp15
S'segmentType'
p16
S'line'
p17
sS'x'
I-458
sS'smooth'
p18
I00
sS'y'
I806
s(dp19
g16
S'line'
p20
sS'x'
I-431
sg18
I00
sS'y'
I866
s(dp21
g16
S'line'
p22
sS'x'
I-125
sg18
I00
sS'y'
I672
s(dp23
g16
S'line'
p24
sS'x'
I-292
sg18
I00
sS'y'
I959
s(dp25
g16
S'line'
p26
sS'x'
I-225
sg18
I00
sS'y'
I999
s(dp27
g16
S'line'
p28
sS'x'
I-165
sg18
I00
sS'y'
I859
s(dp29
S'y'
I913
sS'x'
I-138
sg18
I00
s(dp30
S'y'
I945
sS'x'
I-83
sg18
I00
s(dp31
g16
S'curve'
p32
sS'x'
I-19
sg18
I01
sS'y'
I945
s(dp33
S'y'
I945
sS'x'
I6
sg18
I00
s(dp34
S'y'
I941
sS'x'
I30
sg18
I00
s(dp35
g16
S'curve'
p36
sS'x'
I55
sg18
I00
sS'y'
I932
s(dp37
g16
S'line'
p38
sS'x'
I55
sg18
I00
sS'y'
I872
s(dp39
S'y'
I887
sS'x'
I17
sg18
I00
s(dp40
S'y'
I892
sS'x'
I-6
sg18
I00
s(dp41
g16
S'curve'
p42
sS'x'
I-19
sg18
I01
sS'y'
I892
s(dp43
S'y'
I892
sS'x'
I-81
sg18
I00
s(dp44
S'y'
I848
sS'x'
I-132
sg18
I00
s(dp45
g16
S'curve'
p46
sS'x'
I-132
sg18
I01
sS'y'
I792
s(dp47
S'y'
I781
sS'x'
I-132
sg18
I00
s(dp48
S'y'
I763
sS'x'
I-127
sg18
I00
s(dp49
g16
S'curve'
p50
sS'x'
I-112
sg18
I00
sS'y'
I732
s(dp51
g16
S'line'
p52
sS'x'
I-85
sg18
I00
sS'y'
I666
s(dp53
g16
S'line'
p54
sS'x'
I-172
sg18
I00
sS'y'
I666
stp55
s(dp56
g14
((dp57
g16
S'line'
p58
sS'x'
I-52
sg18
I00
sS'y'
I739
s(dp59
g16
S'line'
p60
sS'x'
I-52
sg18
I00
sS'y'
I812
s(dp61
g16
S'line'
p62
sS'x'
I21
sg18
I00
sS'y'
I812
s(dp63
g16
S'line'
p64
sS'x'
I21
sg18
I00
sS'y'
I739
stp65
stp66
sS'components'
p67
(tsS'anchors'
p68
(tsssS'com.typemytype.robofont.mark'
p69
(F0.1508399248
F0.30573034290000001
F0.19466084240000001
F1
tp70
s."
LCarets2: 2 0 0
Ligature2: "Lohit-Devanagari-AboveBaseSubstitutionslookup subtable" aisigndeva radeva_viramadeva anusvaradeva
EndChar

StartChar: aisigndeva
Encoding: 120 2376 11
Width: 0
VWidth: 0
GlyphClass: 4
Flags: HW
HStem: 767 71<-427.015 -271.922> 904 71<-395.574 -253.987>
AnchorPoint: "Lohit-Devanagari-DVAnchor2" -120 820 basemark 0
AnchorPoint: "Lohit-Devanagari-DVAnchor3" -143 664 mark 0
LayerCount: 2
Back
SplineSet
-316 935 m 260
 -243 935 -200 800 -183 666 c 261
 -183 666 l 261
 -106 666 l 261
 -146 914 -220 975 -326 975 c 260
 -397 975 -440 940 -440 896 c 260
 -440 847 -399 822 -361 822 c 260
 -353 822 -345 824 -345 831 c 260
 -345 839 -362 854 -362 891 c 260
 -362 914 -348 935 -316 935 c 260
-102 666 m 17
 -181 666 l 257
 -223 720 -286 767 -366 767 c 256
 -406 767 -412 754 -429 754 c 256
 -442 754 -446 763 -446 775 c 256
 -446 802 -422 838 -360 838 c 256
 -286 838 -210 801 -168 720 c 257
 -163 721 l 257
 -102 666 l 17
-335 904 m 256
 -375 904 -381 890 -398 890 c 256
 -411 890 -415 900 -415 912 c 256
 -415 939 -372 975 -320 975 c 256
 -214 975 -120 914 -102 666 c 257
 -156 666 l 257
 -156 666 l 257
 -161 800 -233 904 -335 904 c 256
EndSplineSet
Fore
SplineSet
-330 904 m 4
 -236.291978861 904.000000796 -167.904584751 816.221832053 -153.527878417 698.045618918 c 5
 -217.331210343 812.618933277 -287.934658508 838 -356 838 c 4
 -428 838 -456 790 -456 763 c 4
 -456 755 -453 748 -443 748 c 4
 -426 748 -406 767 -361 767 c 4
 -281 767 -224 720 -182 666 c 5
 -151 666 l 5
 -137 666 l 5
 -107 666 l 5
 -125 914 -219 975 -325 975 c 4
 -397 975 -425 927 -425 900 c 4
 -425 892 -422 885 -412 885 c 4
 -395 885 -375 904 -330 904 c 4
EndSplineSet
Validated: 9
PickledData: "(dp1
S'com.typemytype.robofont.layerData'
p2
(dp3
S'original'
p4
(dp5
S'name'
p6
S'aisigndeva'
p7
sS'lib'
p8
(dp9
sS'unicodes'
p10
(tsS'width'
p11
I0
sS'contours'
p12
((dp13
S'points'
p14
((dp15
S'segmentType'
p16
S'line'
p17
sS'x'
I-192
sS'smooth'
p18
I00
sS'y'
I666
s(dp19
g16
S'line'
p20
sS'x'
I-478
sg18
I00
sS'y'
I846
s(dp21
g16
S'line'
p22
sS'x'
I-438
sg18
I00
sS'y'
I905
s(dp23
g16
S'line'
p24
sS'x'
I-145
sg18
I00
sS'y'
I672
s(dp25
g16
S'line'
p26
sS'x'
I-285
sg18
I00
sS'y'
I959
s(dp27
g16
S'line'
p28
sS'x'
I-218
sg18
I00
sS'y'
I999
s(dp29
g16
S'line'
p30
sS'x'
I-105
sg18
I00
sS'y'
I666
stp31
stp32
sS'components'
p33
(tsS'anchors'
p34
(tsssS'com.typemytype.robofont.mark'
p35
(F0.75
F1
F1
F1
tp36
s."
EndChar

StartChar: aisigndeva_anusvaradeva
Encoding: 218 -1 12
Width: 0
VWidth: 0
GlyphClass: 4
Flags: HW
HStem: 767 71<-427.015 -271.922> 824 108<-67.9056 3.71953> 904 71<-395.574 -253.987>
VStem: -83 102<838.858 916.819>
AnchorPoint: "Lohit-Devanagari-DVAnchor3" -143 664 mark 0
LayerCount: 2
Back
SplineSet
-356 838 m 256x90
 -428 838 -456 790 -456 763 c 256
 -456 755 -453 748 -443 748 c 256
 -426 748 -406 767 -361 767 c 256
 -281 767 -224 720 -182 666 c 257
 -107 666 l 9
 -168 721 l 257
 -173 720 l 257
 -215 801 -282 838 -356 838 c 256x90
-330 904 m 256x30
 -228 904 -166 800 -161 666 c 257
 -107 666 l 257
 -125 914 -219 975 -325 975 c 256
 -397 975 -425 927 -425 900 c 256
 -425 892 -422 885 -412 885 c 256
 -395 885 -375 904 -330 904 c 256x30
-83 878 m 256
 -83 856 -52 824 -33 824 c 256
 -12 824 19 856 19 878 c 256
 19 899 -12 932 -33 932 c 256x50
 -53 932 -83 899 -83 878 c 256
EndSplineSet
Fore
SplineSet
-182 666 m 1
 -224 720 -281 767 -361 767 c 0
 -406 767 -426 748 -443 748 c 0
 -453 748 -456 755 -456 763 c 0
 -456 790 -428 838 -356 838 c 0
 -287.934658508 838 -217.331210343 812.618933277 -153.527878417 698.045618918 c 1
 -167.904584751 816.221832053 -236.291978861 904.000000796 -330 904 c 0xb0
 -375 904 -395 885 -412 885 c 0
 -422 885 -425 892 -425 900 c 0
 -425 927 -397 975 -325 975 c 0
 -219 975 -125 914 -107 666 c 1
 -182 666 l 1
-83 878 m 256
 -83 856 -52 824 -33 824 c 256
 -12 824 19 856 19 878 c 256
 19 899 -12 932 -33 932 c 256x50
 -53 932 -83 899 -83 878 c 256
EndSplineSet
Validated: 9
PickledData: "(dp1
S'com.typemytype.robofont.layerData'
p2
(dp3
S'original'
p4
(dp5
S'name'
p6
S'aisigndeva_anusvaradeva'
p7
sS'lib'
p8
(dp9
sS'unicodes'
p10
(tsS'width'
p11
I0
sS'contours'
p12
((dp13
S'points'
p14
((dp15
S'segmentType'
p16
S'line'
p17
sS'x'
I-112
sS'smooth'
p18
I00
sS'y'
I832
s(dp19
g16
S'line'
p20
sS'x'
I-112
sg18
I00
sS'y'
I925
s(dp21
g16
S'line'
p22
sS'x'
I-12
sg18
I00
sS'y'
I925
s(dp23
g16
S'line'
p24
sS'x'
I-12
sg18
I00
sS'y'
I832
stp25
s(dp26
g14
((dp27
g16
S'line'
p28
sS'x'
I-192
sg18
I00
sS'y'
I666
s(dp29
g16
S'line'
p30
sS'x'
I-478
sg18
I00
sS'y'
I806
s(dp31
g16
S'line'
p32
sS'x'
I-445
sg18
I00
sS'y'
I866
s(dp33
g16
S'line'
p34
sS'x'
I-145
sg18
I00
sS'y'
I672
s(dp35
g16
S'line'
p36
sS'x'
I-292
sg18
I00
sS'y'
I959
s(dp37
g16
S'line'
p38
sS'x'
I-225
sg18
I00
sS'y'
I999
s(dp39
g16
S'line'
p40
sS'x'
I-105
sg18
I00
sS'y'
I666
stp41
stp42
sS'components'
p43
(tsS'anchors'
p44
(tsssS'com.typemytype.robofont.mark'
p45
(F0.75
F1
F1
F1
tp46
s."
Ligature2: "Lohit-Devanagari-AboveBaseSubstitutionslookup subtable" aisigndeva anusvaradeva
LCarets2: 1 0
EndChar

StartChar: ampersand
Encoding: 7 38 13
Width: 684
VWidth: 0
GlyphClass: 2
Flags: HW
LayerCount: 2
Back
SplineSet
281 349 m 257
 290 349 293 360 293 367 c 256
 293 376 289 388 280 388 c 256
 220 388 167 430 167 517 c 256
 167 578 207 636 284 636 c 256
 337 636 369 605 369 559 c 256
 369 516 350 503 350 497 c 256
 350 491 356 487 369 487 c 256
 419 487 450 520 450 568 c 256
 450 634 380 679 294 679 c 256
 141 679 65 596 65 512 c 256
 65 427 118 378 197 359 c 257
 85 329 29 261 29 178 c 256
 29 56 122 -13 265 -13 c 256
 425 -13 481 76 481 147 c 256
 481 184 463 220 436 243 c 257
 518 249 620 272 620 365 c 256
 620 424 573 461 521 461 c 256
 504 461 481 457 481 447 c 256
 481 435 530 419 530 360 c 256
 530 226 227 326 227 220 c 256
 227 206 236 190 246 190 c 256
 260 190 266 231 355 238 c 256
 365 238 376 239 390 239 c 257
 403 222 413 198 413 164 c 256
 413 81 352 36 270 36 c 256
 184 36 134 108 134 179 c 256
 134 251 178 322 281 349 c 257
EndSplineSet
Fore
SplineSet
281 349 m 257
 290 349 293 360 293 367 c 256
 293 376 289 388 280 388 c 256
 220 388 167 430 167 517 c 256
 167 578 207 636 284 636 c 256
 337 636 369 605 369 559 c 256
 369 516 350 503 350 497 c 256
 350 491 356 487 369 487 c 256
 419 487 450 520 450 568 c 256
 450 634 380 679 294 679 c 256
 141 679 65 596 65 512 c 256
 65 427 118 378 197 359 c 257
 85 329 29 261 29 178 c 256
 29 56 122 -13 265 -13 c 256
 425 -13 481 76 481 147 c 256
 481 184 463 220 436 243 c 257
 518 249 620 272 620 365 c 256
 620 424 573 461 521 461 c 256
 504 461 481 457 481 447 c 256
 481 435 530 419 530 360 c 256
 530 226 227 326 227 220 c 256
 227 206 236 190 246 190 c 256
 260 190 266 231 355 238 c 256
 365 238 376 239 390 239 c 257
 403 222 413 198 413 164 c 256
 413 81 352 36 270 36 c 256
 184 36 134 108 134 179 c 256
 134 251 178 322 281 349 c 257
EndSplineSet
Validated: 9
PickledData: "(dp1
S'com.typemytype.robofont.layerData'
p2
(dp3
S'original'
p4
(dp5
S'name'
p6
S'ampersand'
p7
sS'lib'
p8
(dp9
sS'unicodes'
p10
(tsS'width'
p11
I761
sS'contours'
p12
(tsS'components'
p13
(tsS'anchors'
p14
(tsssS'com.typemytype.robofont.mark'
p15
(I1
I1
I1
I0
tp16
s."
EndChar

StartChar: anudattadeva
Encoding: 130 2386 14
Width: 0
VWidth: 0
GlyphClass: 4
Flags: W
AnchorPoint: "Lohit-Devanagari-DVAnchor1" -310 0 mark 0
LayerCount: 2
Back
Fore
SplineSet
-637 -159 m 257
 -637 -99 l 257
 -111 -99 l 257
 -111 -159 l 257
 -637 -159 l 257
EndSplineSet
Validated: 1
PickledData: "(dp1
S'com.typemytype.robofont.layerData'
p2
(dp3
S'original'
p4
(dp5
S'name'
p6
S'anudattadeva'
p7
sS'lib'
p8
(dp9
sS'unicodes'
p10
(tsS'width'
p11
I0
sS'contours'
p12
(tsS'components'
p13
(tsS'anchors'
p14
(tsssS'com.typemytype.robofont.mark'
p15
(I1
I1
I1
I0
tp16
s."
EndChar

StartChar: anusvaradeva
Encoding: 50 2306 15
Width: 0
VWidth: 0
GlyphClass: 4
Flags: W
HStem: 816 124<-180.25 -104>
VStem: -201 118<836.474 919.163>
AnchorPoint: "Lohit-Devanagari-DVAnchor2" -30 840 basemark 0
AnchorPoint: "Lohit-Devanagari-DVAnchor3" -143 666 mark 0
LayerCount: 2
Back
SplineSet
-193 878 m 260
 -193 856 -162 824 -143 824 c 260
 -122 824 -91 856 -91 878 c 260
 -91 899 -122 932 -143 932 c 260
 -163 932 -193 899 -193 878 c 260
EndSplineSet
Fore
SplineSet
-201 878 m 256
 -201 853 -165 816 -143 816 c 256
 -119 816 -83 853 -83 878 c 256
 -83 902 -119 940 -143 940 c 256
 -166 940 -201 902 -201 878 c 256
EndSplineSet
Validated: 9
PickledData: "(dp1
S'com.typemytype.robofont.layerData'
p2
(dp3
S'original'
p4
(dp5
S'name'
p6
S'anusvaradeva'
p7
sS'lib'
p8
(dp9
sS'unicodes'
p10
(tsS'width'
p11
I0
sS'contours'
p12
((dp13
S'points'
p14
((dp15
S'segmentType'
p16
S'line'
p17
sS'x'
I-177
sS'smooth'
p18
I00
sS'y'
I832
s(dp19
g16
S'line'
p20
sS'x'
I-177
sg18
I00
sS'y'
I925
s(dp21
g16
S'line'
p22
sS'x'
I-77
sg18
I00
sS'y'
I925
s(dp23
g16
S'line'
p24
sS'x'
I-77
sg18
I00
sS'y'
I832
stp25
stp26
sS'components'
p27
(tsS'anchors'
p28
(tsssS'com.typemytype.robofont.mark'
p29
(F0.75
F1
F1
F1
tp30
s."
EndChar

StartChar: apostrophe
Encoding: 47 700 16
Width: 314
VWidth: 0
GlyphClass: 2
Flags: HW
LayerCount: 2
Back
SplineSet
218 771 m 262
 218 728 214 695 206 665 c 260
 198 634 187 610 171 583 c 261
 97 583 l 261
 133 635 154 689 154 739 c 261
 101 739 l 261
 101 858 l 261
 218 858 l 261
 218 771 l 262
EndSplineSet
Fore
SplineSet
89 842 m 257
 93 821 l 257
 111 808 l 258
 125 798 131 789 131 775 c 256
 131 764 128 752 121 737 c 258
 78 653 l 257
 106 635 l 257
 142 674 l 258
 185 721 218 760 218 798 c 256
 218 844 191 859 157 859 c 256
 141 859 122 855 106 849 c 258
 89 842 l 257
EndSplineSet
Validated: 9
PickledData: "(dp1
S'com.typemytype.robofont.layerData'
p2
(dp3
S'original'
p4
(dp5
S'name'
p6
S'apostrophe'
p7
sS'lib'
p8
(dp9
sS'unicodes'
p10
(tsS'width'
p11
I314
sS'contours'
p12
(tsS'components'
p13
(tsS'anchors'
p14
(tsssS'com.typemytype.robofont.mark'
p15
(I1
I1
I1
I0
tp16
s."
EndChar

StartChar: asciicircum
Encoding: 37 94 17
Width: 636
VWidth: 0
GlyphClass: 2
Flags: HW
LayerCount: 2
Back
SplineSet
247 666 m 257
 89 369 l 257
 165 369 l 257
 286 605 l 257
 411 369 l 257
 486 369 l 257
 328 666 l 257
 247 666 l 257
EndSplineSet
Fore
SplineSet
247 666 m 257
 89 369 l 257
 165 369 l 257
 286 605 l 257
 411 369 l 257
 486 369 l 257
 328 666 l 257
 247 666 l 257
EndSplineSet
Validated: 9
PickledData: "(dp1
S'com.typemytype.robofont.layerData'
p2
(dp3
S'original'
p4
(dp5
S'name'
p6
S'asciicircum'
p7
sS'lib'
p8
(dp9
sS'unicodes'
p10
(tsS'width'
p11
I671
sS'contours'
p12
(tsS'components'
p13
(tsS'anchors'
p14
(tsssS'com.typemytype.robofont.mark'
p15
(I1
I1
I1
I0
tp16
s."
EndChar

StartChar: asciitilde
Encoding: 43 126 18
Width: 636
VWidth: 0
GlyphClass: 2
Flags: HW
LayerCount: 2
Back
SplineSet
484 369 m 257
 458 390 427 399 395 399 c 256
 316 399 263 339 185 339 c 256
 152 339 120 350 91 369 c 257
 91 299 l 257
 117 278 149 269 182 269 c 256
 261 269 313 329 390 329 c 256
 423 329 456 318 484 299 c 257
 484 369 l 257
EndSplineSet
Fore
SplineSet
484 369 m 257
 458 390 427 399 395 399 c 256
 316 399 263 339 185 339 c 256
 152 339 120 350 91 369 c 257
 91 299 l 257
 117 278 149 269 182 269 c 256
 261 269 313 329 390 329 c 256
 423 329 456 318 484 299 c 257
 484 369 l 257
EndSplineSet
Validated: 9
PickledData: "(dp1
S'com.typemytype.robofont.layerData'
p2
(dp3
S'original'
p4
(dp5
S'name'
p6
S'asciitilde'
p7
sS'lib'
p8
(dp9
sS'unicodes'
p10
(tsS'width'
p11
I721
sS'contours'
p12
(tsS'components'
p13
(tsS'anchors'
p14
(tsssS'com.typemytype.robofont.mark'
p15
(I1
I1
I1
I0
tp16
s."
EndChar

StartChar: asterisk
Encoding: 11 42 20
Width: 588
VWidth: 0
GlyphClass: 2
Flags: HW
LayerCount: 2
Back
SplineSet
467 609 m 256
 467 636 451 655 423 662 c 257
 360 628 315 602 284 587 c 257
 314 742 l 257
 303 761 285 770 266 770 c 256
 246 770 230 761 219 742 c 257
 233 672 241 621 247 587 c 257
 217 603 172 628 109 663 c 257
 83 657 65 635 65 607 c 256
 65 595 70 584 80 572 c 257
 150 563 201 555 235 551 c 257
 211 529 174 491 122 443 c 257
 122 414 138 382 173 382 c 256
 180 382 190 384 197 388 c 257
 228 453 252 498 266 530 c 257
 280 498 304 453 334 387 c 257
 343 383 350 381 359 381 c 256
 388 381 410 407 410 443 c 257
 358 492 321 529 297 551 c 257
 330 555 381 563 453 572 c 257
 463 584 467 596 467 609 c 256
EndSplineSet
Fore
SplineSet
467 609 m 256
 467 636 451 655 423 662 c 257
 360 628 315 602 284 587 c 257
 314 742 l 257
 303 761 285 770 266 770 c 256
 246 770 230 761 219 742 c 257
 233 672 241 621 247 587 c 257
 217 603 172 628 109 663 c 257
 83 657 65 635 65 607 c 256
 65 595 70 584 80 572 c 257
 150 563 201 555 235 551 c 257
 211 529 174 491 122 443 c 257
 122 414 138 382 173 382 c 256
 180 382 190 384 197 388 c 257
 228 453 252 498 266 530 c 257
 280 498 304 453 334 387 c 257
 343 383 350 381 359 381 c 256
 388 381 410 407 410 443 c 257
 358 492 321 529 297 551 c 257
 330 555 381 563 453 572 c 257
 463 584 467 596 467 609 c 256
EndSplineSet
Validated: 9
PickledData: "(dp1
S'com.typemytype.robofont.layerData'
p2
(dp3
S'original'
p4
(dp5
S'name'
p6
S'asterisk'
p7
sS'lib'
p8
(dp9
sS'unicodes'
p10
(tsS'width'
p11
I559
sS'contours'
p12
(tsS'components'
p13
(tsS'anchors'
p14
(tsssS'com.typemytype.robofont.mark'
p15
(I1
I1
I1
I0
tp16
s."
EndChar

StartChar: at
Encoding: 33 64 21
Width: 913
VWidth: 0
GlyphClass: 2
Flags: HW
LayerCount: 2
Back
SplineSet
419 419 m 256
 440 419 459 414 479 398 c 257
 463 213 l 257
 435 173 404 154 378 154 c 256
 339 154 307 197 307 261 c 256
 307 335 343 419 419 419 c 256
777 292 m 256
 777 479 646 627 445 627 c 256
 225 627 51 447 51 232 c 256
 51 46 181 -102 384 -102 c 256
 458 -102 517 -83 578 -47 c 257
 555 -7 l 257
 503 -39 452 -49 389 -49 c 256
 230 -49 140 70 140 230 c 256
 140 420 262 573 440 573 c 256
 596 573 686 455 686 296 c 256
 686 148 627 82 590 82 c 256
 563 82 542 107 542 157 c 256
 542 163 542 169 562 402 c 256
 563 414 569 422 573 428 c 258
 582 444 l 257
 575 454 l 257
 529 458 465 472 420 472 c 256
 300 472 216 382 216 237 c 256
 216 136 268 84 331 84 c 256
 374 84 425 108 464 155 c 257
 464 75 512 34 577 34 c 256
 710 34 777 178 777 292 c 256
EndSplineSet
Fore
SplineSet
419 419 m 256
 440 419 459 414 479 398 c 257
 463 213 l 257
 435 173 404 154 378 154 c 256
 339 154 307 197 307 261 c 256
 307 335 343 419 419 419 c 256
777 292 m 256
 777 479 646 627 445 627 c 256
 225 627 51 447 51 232 c 256
 51 46 181 -102 384 -102 c 256
 458 -102 517 -83 578 -47 c 257
 555 -7 l 257
 503 -39 452 -49 389 -49 c 256
 230 -49 140 70 140 230 c 256
 140 420 262 573 440 573 c 256
 596 573 686 455 686 296 c 256
 686 148 627 82 590 82 c 256
 563 82 542 107 542 157 c 256
 542 163 542 169 562 402 c 256
 563 414 569 422 573 428 c 258
 582 444 l 257
 575 454 l 257
 529 458 465 472 420 472 c 256
 300 472 216 382 216 237 c 256
 216 136 268 84 331 84 c 256
 374 84 425 108 464 155 c 257
 464 75 512 34 577 34 c 256
 710 34 777 178 777 292 c 256
EndSplineSet
Validated: 9
PickledData: "(dp1
S'com.typemytype.robofont.layerData'
p2
(dp3
S'original'
p4
(dp5
S'name'
p6
S'at'
p7
sS'lib'
p8
(dp9
sS'unicodes'
p10
(tsS'width'
p11
I1043
sS'contours'
p12
(tsS'components'
p13
(tsS'anchors'
p14
(tsssS'com.typemytype.robofont.mark'
p15
(I1
I1
I1
I0
tp16
s."
EndChar

StartChar: avagrahacombiningsigndeva
Encoding: 203 43249 27
Width: 0
VWidth: 0
GlyphClass: 4
Flags: W
HStem: 736 31<-174.076 -99.9255> 1003.5 29.5<-163.525 -130>
VStem: -236.5 50.5<774.268 850.908> -203.5 36.5<946.277 1000.87> -92.5 47<771.441 854.823>
AnchorPoint: "Lohit-Devanagari-DVAnchor3" -137 681 mark 0
LayerCount: 2
Back
SplineSet
-167 974.5 m 0
 -167 995.033203125 -153.3671875 1003.5 -130 1003.5 c 2
 -52 1003.5 l 1
 -52 1033 l 1
 -130 1033 l 2
 -170.739257812 1033 -203.5 1012 -203.5 971 c 0
 -203.5 942.142155548 -187.909167534 922.975909657 -168.413679698 906 c 2
 -117.553710938 858 l 2
 -103.005859375 842.690429688 -92.5 829.573568437 -92.5 804.5 c 0
 -92.5 780.45703125 -111.501953125 767 -137 767 c 0
 -166.255859375 767 -186 786.446289062 -186 814 c 0
 -186 835.549804688 -176.5 843.16796875 -176.5 850.5 c 0
 -176.5 855.28125 -181.8984375 858.5 -189 858.5 c 0
 -215.724609375 858.5 -236.5 839.546875 -236.5 812.5 c 0
 -236.5 766.84765625 -194.021484375 736 -136.5 736 c 0
 -85.626953125 736 -45.5 764.73828125 -45.5 804 c 0
 -45.5 842.639697436 -67.435546875 870.947265625 -95.203125 895 c 2
 -147 944 l 2
 -163.150390625 958.061523438 -167 964.720668409 -167 974.5 c 0
EndSplineSet
Fore
SplineSet
-167 974.5 m 0xd8
 -167 995.033203125 -153.3671875 1003.5 -130 1003.5 c 2
 -52 1003.5 l 1
 -52 1033 l 1
 -130 1033 l 2
 -170.739257812 1033 -203.5 1012 -203.5 971 c 0xd8
 -203.5 942.142155548 -187.909167534 922.975909657 -168.413679698 906 c 2
 -117.553710938 858 l 2
 -103.005859375 842.690429688 -92.5 829.573568437 -92.5 804.5 c 0
 -92.5 780.45703125 -111.501953125 767 -137 767 c 0
 -166.255859375 767 -186 786.446289062 -186 814 c 0
 -186 835.549804688 -176.5 843.16796875 -176.5 850.5 c 0
 -176.5 855.28125 -181.8984375 858.5 -189 858.5 c 0
 -215.724609375 858.5 -236.5 839.546875 -236.5 812.5 c 0xe8
 -236.5 766.84765625 -194.021484375 736 -136.5 736 c 0
 -78.626953125 736 -45.5 767.73828125 -45.5 807 c 0
 -45.5 845.639648438 -67.158203125 868.342773438 -87 887 c 2
 -147 944 l 2
 -162.627183514 958.602450168 -167 964.720668409 -167 974.5 c 0xd8
EndSplineSet
Validated: 9
PickledData: "(dp1
S'com.typemytype.robofont.layerData'
p2
(dp3
S'original'
p4
(dp5
S'name'
p6
S'avagrahacombiningsigndeva'
p7
sS'lib'
p8
(dp9
sS'unicodes'
p10
(tsS'width'
p11
I0
sS'contours'
p12
(tsS'components'
p13
(tsS'anchors'
p14
(tsssS'com.typemytype.robofont.mark'
p15
(I1
I1
I1
I0
tp16
s."
EndChar

StartChar: avagrahadeva
Encoding: 109 2365 28
Width: 442
VWidth: 0
GlyphClass: 2
Flags: W
LayerCount: 2
Back
Fore
SplineSet
223 11 m 260
 322 11 388 68 388 152 c 260
 388 216 362 255 263 364 c 260
 183 452 167 493 167 530 c 260
 167 580 197 621 254 621 c 262
 397 621 l 261
 397 666 l 261
 262 666 l 262
 182 666 96 635 96 519 c 260
 96 466 118 416 215 312 c 260
 290 231 308 196 308 153 c 260
 308 94 277 59 222 59 c 260
 160 59 117 101 117 160 c 260
 117 204 136 225 136 233 c 260
 136 236 131 242 118 242 c 260
 68 242 30 207 30 157 c 260
 30 71 110 11 223 11 c 260
EndSplineSet
Validated: 9
PickledData: "(dp1
S'com.typemytype.robofont.layerData'
p2
(dp3
S'original'
p4
(dp5
S'name'
p6
S'avagrahadeva'
p7
sS'lib'
p8
(dp9
sS'unicodes'
p10
(tsS'width'
p11
I442
sS'contours'
p12
((dp13
S'points'
p14
((dp15
S'segmentType'
p16
S'curve'
p17
sS'x'
I245
sS'smooth'
p18
I01
sS'y'
I5
s(dp19
S'y'
F5
sS'x'
F152.53999999999999
sg18
I00
s(dp20
S'y'
F89.379999999999995
sS'x'
F62.520000000000003
sg18
I00
s(dp21
g16
S'curve'
p22
sS'x'
I25
sg18
I00
sS'y'
I214
s(dp23
g16
S'line'
p24
sS'x'
I85
sg18
I00
sS'y'
I246
s(dp25
S'y'
F144.16
sS'x'
F115.81999999999999
sg18
I00
s(dp26
S'y'
F77
sS'x'
F180.68000000000001
sg18
I00
s(dp27
g16
S'curve'
p28
sS'x'
I245
sg18
I01
sS'y'
I77
s(dp29
S'y'
F77
sS'x'
F293.24000000000001
sg18
I00
s(dp30
S'y'
F127.68000000000001
sS'x'
F332
sg18
I00
s(dp31
g16
S'curve'
p32
sS'x'
I332
sg18
I01
sS'y'
I192
s(dp33
S'y'
F250.96000000000001
sS'x'
F332
sg18
I00
s(dp34
S'y'
F318.38
sS'x'
F279.10000000000002
sg18
I00
s(dp35
g16
S'curve'
p36
sS'x'
I192
sg18
I00
sS'y'
I376
s(dp37
S'y'
F412.18000000000001
sS'x'
F133.03999999999999
sg18
I00
s(dp38
S'y'
F471.36000000000001
sS'x'
F99
sg18
I00
s(dp39
g16
S'curve'
p40
sS'x'
I99
sg18
I01
sS'y'
I533
s(dp41
S'y'
F598.65999999999997
sS'x'
F99
sg18
I00
s(dp42
S'y'
F652
sS'x'
F161.62
sg18
I00
s(dp43
g16
S'curve'
p44
sS'x'
I238
sg18
I01
sS'y'
I652
s(dp45
g16
S'line'
p46
sS'x'
I398
sg18
I00
sS'y'
I652
s(dp47
g16
S'line'
p48
sS'x'
I398
sg18
I00
sS'y'
I585
s(dp49
g16
S'line'
p50
sS'x'
I238
sg18
I01
sS'y'
I585
s(dp51
S'y'
F585
sS'x'
F197.80000000000001
sg18
I00
s(dp52
S'y'
F560.82000000000005
sS'x'
F165
sg18
I00
s(dp53
g16
S'curve'
p54
sS'x'
I165
sg18
I01
sS'y'
I530
s(dp55
S'y'
F487.12
sS'x'
F165
sg18
I00
s(dp56
S'y'
F430.25999999999999
sS'x'
F212.94
sg18
I00
s(dp57
g16
S'curve'
p58
sS'x'
I292
sg18
I01
sS'y'
I378
s(dp59
S'y'
F355.88999999999999
sS'x'
F324.82999999999998
sg18
I00
sg6
S'inserted'
p60
s(dp61
S'y'
F328.82999999999998
sS'x'
F350.56999999999999
sg18
I00
s(dp62
g16
S'curve'
p63
sS'x'
I370
sg18
I00
sS'y'
I296
s(dp64
S'y'
F262.5
sS'x'
F388.75999999999999
sg18
I00
sg6
S'inserted'
p65
s(dp66
S'y'
F228.18000000000001
sS'x'
F398
sg18
I00
s(dp67
g16
S'curve'
p68
sS'x'
I398
sg18
I01
sS'y'
I192
s(dp69
S'y'
F88.819999999999993
sS'x'
F398
sg18
I00
s(dp70
S'y'
F5
sS'x'
F330.75999999999999
sg18
I00
stp71
stp72
sS'components'
p73
(tsS'anchors'
p74
(tsssS'com.typemytype.robofont.mark'
p75
(F0.75
F1
F1
F1
tp76
s."
EndChar

StartChar: awdeva
Encoding: 165 2421 29
Width: 1044
VWidth: 0
GlyphClass: 2
Flags: W
HStem: 85 63<213.34 358.575> 316 53<443.966 554.182> 365 42<232.399 305.199> 637 40<223.511 339.149>
VStem: 11.4609 48.5391<341.335 400.352> 127 70<524.887 613.062> 373 84<451.196 606.678> 384 85<174.531 308.961> 555 80<804.466 895.321> 673 80<862.132 962.442> 870 35<666 706.574> 915 35<666 737.633>
LayerCount: 2
Back
Fore
SplineSet
635 850 m 256x9cf0
 635 884 656 899 656 911 c 256
 656 919 650 922 638 922 c 256
 597 922 555 890 555 838 c 256
 555 679 870 795 870 666 c 257
 905 666 l 257
 905 835 635 724 635 850 c 256x9cf0
753 908 m 256
 753 947 774 968 774 978 c 256
 774 986 768 989 756 989 c 256
 715 989 673 957 673 905 c 256
 673 752 915 862 915 666 c 257
 950 666 l 257
 950 897 753 794 753 908 c 256
EndSplineSet
Refer: 1 2310 N 1 0 0 1 0 0 2
Validated: 5
PickledData: "(dp1
S'com.typemytype.robofont.layerData'
p2
(dp3
S'original'
p4
(dp5
S'name'
p6
S'awdeva'
p7
sS'lib'
p8
(dp9
sS'unicodes'
p10
(tsS'width'
p11
I1042
sS'contours'
p12
(tsS'components'
p13
(tsS'anchors'
p14
(tsssS'com.typemytype.robofont.mark'
p15
(I1
I1
I1
I0
tp16
s."
EndChar

StartChar: awsigndeva
Encoding: 127 2383 30
Width: 266
VWidth: 0
GlyphClass: 2
Flags: W
VStem: -222 80<804.466 895.321> -104 80<862.132 962.442> -13 292 93 35<666 706.574> 138 35<666 737.633>
LayerCount: 2
Back
Fore
SplineSet
-142 850 m 256xd0
 -142 884 -121 899 -121 911 c 256
 -121 919 -127 922 -139 922 c 256
 -180 922 -222 890 -222 838 c 256
 -222 679 93 795 93 666 c 257
 128 666 l 257
 128 835 -142 724 -142 850 c 256xd0
-24 908 m 256
 -24 947 -3 968 -3 978 c 256
 -3 986 -9 989 -21 989 c 256
 -62 989 -104 957 -104 905 c 256
 -104 752 138 862 138 666 c 257
 173 666 l 257xc8
 173 897 -24 794 -24 908 c 256
EndSplineSet
Refer: 2 2366 N 1 0 0 1 0 0 2
Validated: 5
PickledData: "(dp1
S'com.typemytype.robofont.layerData'
p2
(dp3
S'original'
p4
(dp5
S'name'
p6
S'awsigndeva'
p7
sS'lib'
p8
(dp9
sS'unicodes'
p10
(tsS'width'
p11
I266
sS'contours'
p12
(tsS'components'
p13
(tsS'anchors'
p14
(tsssS'com.typemytype.robofont.mark'
p15
(I1
I1
I1
I0
tp16
s."
EndChar

StartChar: ba_virama_ra_viramadeva
Encoding: 222 -1 31
Width: 347
VWidth: 0
GlyphClass: 2
Flags: HW
HStem: 139 54<163.805 316.978> 455 42<142.036 257.948>
VStem: 39 86<234.647 414.943> 270 72<355.062 444.254>
LayerCount: 2
Back
Fore
SplineSet
383 203 m 257
 356 220 l 261
 128 55 l 258
 122.815640777 51.2481610888 120 46 120 39 c 256
 120 14 152 -12 167 -12 c 256
 172 -12 178.123314084 -8.11658497921 186 0 c 258
 383 203 l 257
EndSplineSet
Refer: 34 -1 N 1 0 0 1 0 0 2
Validated: 5
PickledData: "(dp1
S'com.typemytype.robofont.layerData'
p2
(dp3
S'original'
p4
(dp5
S'name'
p6
S'ba_virama_ra_viramadeva'
p7
sS'lib'
p8
(dp9
sS'unicodes'
p10
(tsS'width'
p11
I366
sS'contours'
p12
((dp13
S'points'
p14
((dp15
S'segmentType'
p16
S'line'
p17
sS'x'
I-13
sS'smooth'
p18
I00
sS'y'
I606
s(dp19
g16
S'line'
p20
sS'x'
I-13
sg18
I00
sS'y'
I666
s(dp21
g16
S'line'
p22
sS'x'
I380
sg18
I00
sS'y'
I666
s(dp23
g16
S'line'
p24
sS'x'
I380
sg18
I00
sS'y'
I606
stp25
s(dp26
g14
((dp27
g16
S'curve'
p28
sS'x'
I226
sg18
I01
sS'y'
I211
s(dp29
S'y'
F211
sS'x'
F258.16000000000003
sg18
I00
s(dp30
S'y'
F219.24000000000001
sS'x'
F284.56
sg18
I00
s(dp31
g16
S'curve'
p32
sS'x'
I306
sg18
I00
sS'y'
I238
s(dp33
g16
S'line'
p34
sS'x'
I126
sg18
I00
sS'y'
I384
s(dp35
S'y'
F367.92000000000002
sS'x'
F113.94
sg18
I00
s(dp36
S'y'
F346.13999999999999
sS'x'
F106
sg18
I00
s(dp37
g16
S'curve'
p38
sS'x'
I106
sg18
I01
sS'y'
I318
s(dp39
S'y'
F259.04000000000002
sS'x'
F106
sg18
I00
s(dp40
S'y'
F211
sS'x'
F160.34
sg18
I00
stp41
s(dp42
g14
((dp43
g16
S'line'
p44
sS'x'
I373
sg18
I00
sS'y'
I198
s(dp45
g16
S'line'
p46
sS'x'
I73
sg18
I00
sS'y'
I-2
s(dp47
g16
S'line'
p48
sS'x'
I40
sg18
I00
sS'y'
I51
s(dp49
g16
S'line'
p50
sS'x'
I195
sg18
I00
sS'y'
I152
s(dp51
S'y'
F172.09999999999999
sS'x'
F103.88
sg18
I00
s(dp52
S'y'
F240.28
sS'x'
F40
sg18
I00
s(dp53
g16
S'curve'
p54
sS'x'
I40
sg18
I01
sS'y'
I318
s(dp55
S'y'
F423.86000000000001
sS'x'
F40
sg18
I00
s(dp56
S'y'
F511
sS'x'
F129.12
sg18
I00
s(dp57
g16
S'curve'
p58
sS'x'
I239
sg18
I01
sS'y'
I511
s(dp59
S'y'
F511
sS'x'
F273.83999999999997
sg18
I00
s(dp60
S'y'
F503.06
sS'x'
F303.22000000000003
sg18
I00
s(dp61
g16
S'curve'
p62
sS'x'
I326
sg18
I00
sS'y'
I491
s(dp63
g16
S'line'
p64
sS'x'
I306
sg18
I00
sS'y'
I437
s(dp65
S'y'
F446.38
sS'x'
F285.89999999999998
sg18
I00
s(dp66
S'y'
F451
sS'x'
F264.45999999999998
sg18
I00
s(dp67
g16
S'curve'
p68
sS'x'
I239
sg18
I01
sS'y'
I451
s(dp69
S'y'
F451
sS'x'
F200.13999999999999
sg18
I00
s(dp70
S'y'
F440.07999999999998
sS'x'
F172.40000000000001
sg18
I00
s(dp71
g16
S'curve'
p72
sS'x'
I159
sg18
I00
sS'y'
I424
s(dp73
g16
S'line'
p74
sS'x'
I353
sg18
I00
sS'y'
I278
s(dp75
g16
S'line'
p76
sS'x'
I373
sg18
I00
sS'y'
I304
stp77
stp78
sS'components'
p79
(tsS'anchors'
p80
(tsssS'com.typemytype.robofont.mark'
p81
(F0.75
F1
F1
F1
tp82
s."
Ligature2: "Lohit-Devanagari-VattuVariantslookup30 subtable" badeva_viramadeva viramadeva_radeva
Ligature2: "Lohit-Devanagari-VattuVariantslookup30 subtable" badeva viramadeva_radeva viramadeva
Ligature2: "Lohit-Devanagari-HalfFormslookup10 subtable" badeva_viramadeva_radeva viramadeva
LCarets2: 2 0 0
EndChar

StartChar: backslash
Encoding: 35 92 32
Width: 380
VWidth: 0
GlyphClass: 2
Flags: HW
LayerCount: 2
Back
SplineSet
345 -59 m 257
 66 725 l 257
 0 725 l 257
 278 -59 l 257
 345 -59 l 257
EndSplineSet
Fore
SplineSet
345 -59 m 257
 66 725 l 257
 0 725 l 257
 278 -59 l 257
 345 -59 l 257
EndSplineSet
Validated: 9
PickledData: "(dp1
S'com.typemytype.robofont.layerData'
p2
(dp3
S'original'
p4
(dp5
S'name'
p6
S'backslash'
p7
sS'lib'
p8
(dp9
sS'unicodes'
p10
(tsS'width'
p11
I605
sS'contours'
p12
(tsS'components'
p13
(tsS'anchors'
p14
(tsssS'com.typemytype.robofont.mark'
p15
(I1
I1
I1
I0
tp16
s."
EndChar

StartChar: badeva
Encoding: 92 2348 33
Width: 601
VWidth: 0
GlyphClass: 2
Flags: HW
HStem: 139 52<168.369 306.762> 455 42<171.538 273.164>
VStem: 37 87<238.87 394.151> 286 72<369.001 441.844>
AnchorPoint: "Lohit-Devanagari-DVAnchor3" 462 664 basechar 0
LayerCount: 2
Back
SplineSet
296 166 m 257
 336 197 l 257
 154 462 l 257
 113 431 l 257
 296 166 l 257
417 267 m 257
 370 221 301 191 240 191 c 256
 176 191 124 230 124 325 c 256
 124 415 170 455 224 455 c 256
 265 455 286 428 286 394 c 256
 286 374 282 371 282 367 c 256
 282 361 287 359 296 359 c 256
 331 359 358 377 358 409 c 256
 358 459 313 497 231 497 c 256
 108 497 37 422 37 325 c 256
 37 211 124 139 230 139 c 256
 297 139 357 162 417 208 c 257
 417 0 l 257
 503 0 l 257
 503 621 l 257
 614 621 l 257
 614 666 l 257
 -13 666 l 257
 -13 621 l 257
 417 621 l 257
 417 267 l 257
EndSplineSet
Fore
SplineSet
327.624006786 209.195814295 m 1
 170.053923702 438.624781423 l 1
 185.755337503 449.702260077 204.347894759 455 224 455 c 0
 265 455 286 428 286 394 c 0
 286 374 282 371 282 367 c 0
 282 361 287 359 296 359 c 0
 331 359 358 377 358 409 c 0
 358 459 313 497 231 497 c 0
 108 497 37 422 37 325 c 0
 37 211 124 139 230 139 c 0
 297 139 357 162 417 208 c 1
 417 0 l 1
 503 0 l 1
 503 621 l 1
 614 621 l 1
 614 666 l 1
 -13 666 l 1
 -13 621 l 1
 417 621 l 1
 417 267 l 1
 391.945027713 242.47811223 360.638115183 222.503090092 327.624006786 209.195814295 c 1
276.436703074 194.329364402 m 1
 264.134960125 192.144564593 251.91487145 191 240 191 c 0
 176 191 124 230 124 325 c 0
 124 353.813522147 128.714824283 377.50223529 136.897534112 396.394281204 c 1
 276.436703074 194.329364402 l 1
EndSplineSet
Validated: 9
PickledData: "(dp1
S'com.typemytype.robofont.layerData'
p2
(dp3
S'original'
p4
(dp5
S'name'
p6
S'badeva'
p7
sS'lib'
p8
(dp9
sS'unicodes'
p10
(tsS'width'
p11
I601
sS'contours'
p12
((dp13
S'points'
p14
((dp15
S'segmentType'
p16
S'curve'
p17
sS'x'
I225
sS'smooth'
p18
I01
sS'y'
I213
s(dp19
S'y'
F213
sS'x'
F257.16000000000003
sg18
I00
s(dp20
S'y'
F221.24000000000001
sS'x'
F283.56
sg18
I00
s(dp21
g16
S'curve'
p22
sS'x'
I305
sg18
I00
sS'y'
I240
s(dp23
g16
S'line'
p24
sS'x'
I125
sg18
I00
sS'y'
I386
s(dp25
S'y'
F369.92000000000002
sS'x'
F112.94
sg18
I00
s(dp26
S'y'
F348.13999999999999
sS'x'
F105
sg18
I00
s(dp27
g16
S'curve'
p28
sS'x'
I105
sg18
I01
sS'y'
I320
s(dp29
S'y'
F261.04000000000002
sS'x'
F105
sg18
I00
s(dp30
S'y'
F213
sS'x'
F159.34
sg18
I00
stp31
s(dp32
g14
((dp33
g16
S'curve'
p34
sS'x'
I39
sg18
I01
sS'y'
I320
s(dp35
S'y'
F425.86000000000001
sS'x'
F39
sg18
I00
s(dp36
S'y'
F513
sS'x'
F128.12
sg18
I00
s(dp37
g16
S'curve'
p38
sS'x'
I238
sg18
I01
sS'y'
I513
s(dp39
S'y'
F513
sS'x'
F272.83999999999997
sg18
I00
s(dp40
S'y'
F505.06
sS'x'
F302.22000000000003
sg18
I00
s(dp41
g16
S'curve'
p42
sS'x'
I325
sg18
I00
sS'y'
I493
s(dp43
g16
S'line'
p44
sS'x'
I305
sg18
I00
sS'y'
I439
s(dp45
S'y'
F448.38
sS'x'
F284.89999999999998
sg18
I00
s(dp46
S'y'
F453
sS'x'
F263.45999999999998
sg18
I00
s(dp47
g16
S'curve'
p48
sS'x'
I238
sg18
I01
sS'y'
I453
s(dp49
S'y'
F453
sS'x'
F199.13999999999999
sg18
I00
s(dp50
S'y'
F442.07999999999998
sS'x'
F171.40000000000001
sg18
I00
s(dp51
g16
S'curve'
p52
sS'x'
I158
sg18
I00
sS'y'
I426
s(dp53
g16
S'line'
p54
sS'x'
I352
sg18
I00
sS'y'
I280
s(dp55
g16
S'line'
p56
sS'x'
I372
sg18
I00
sS'y'
I306
s(dp57
g16
S'line'
p58
sS'x'
I372
sg18
I00
sS'y'
I606
s(dp59
g16
S'line'
p60
sS'x'
I-13
sg18
I00
sS'y'
I606
s(dp61
g16
S'line'
p62
sS'x'
I-13
sg18
I00
sS'y'
I666
s(dp63
g16
S'line'
p64
sS'x'
I551
sg18
I00
sS'y'
I666
s(dp65
g16
S'line'
p66
sS'x'
I551
sg18
I00
sS'y'
I606
s(dp67
g16
S'line'
p68
sS'x'
I438
sg18
I00
sS'y'
I606
s(dp69
g16
S'line'
p70
sS'x'
I438
sg18
I00
sS'y'
I0
s(dp71
g16
S'line'
p72
sS'x'
I372
sg18
I00
sS'y'
I0
s(dp73
g16
S'line'
p74
sS'x'
I372
sg18
I00
sS'y'
I213
s(dp75
S'y'
F170.12
sS'x'
F329.12
sg18
I00
s(dp76
S'y'
F146
sS'x'
F277.25999999999999
sg18
I00
s(dp77
g16
S'curve'
p78
sS'x'
I225
sg18
I01
sS'y'
I146
s(dp79
S'y'
F146
sS'x'
F121.81999999999999
sg18
I00
s(dp80
S'y'
F223.52000000000001
sS'x'
F39
sg18
I00
stp81
stp82
sS'components'
p83
(tsS'anchors'
p84
(tsssS'com.typemytype.robofont.mark'
p85
(F0.75
F1
F1
F1
tp86
s."
EndChar

StartChar: badeva_viramadeva
Encoding: 223 -1 34
Width: 347
VWidth: 0
GlyphClass: 2
Flags: HW
HStem: 139 54<163.805 316.978> 455 42<142.036 257.948>
VStem: 39 86<234.647 414.943> 270 72<355.062 444.254>
LayerCount: 2
Back
SplineSet
357 199 m 257
 393 235 l 257
 136 430 l 257
 106 389 l 257
 357 199 l 257
360 666 m 257
 -13 666 l 257
 -13 621 l 257
 360 621 l 257
 360 666 l 257
231 497 m 260
 108 497 39 421 39 325 c 260
 39 211 108 139 224 139 c 260
 387 139 474 308 474 330 c 260
 474 340 462 353 446 353 c 260
 430 353 378 193 226 193 c 260
 166 193 125 235 125 325 c 260
 125 415 172 455 224 455 c 260
 265 455 286 428 286 394 c 260
 286 374 282 371 282 367 c 260
 282 361 287 359 296 359 c 260
 331 359 358 377 358 409 c 260
 358 459 313 497 231 497 c 260
EndSplineSet
Fore
SplineSet
360 666 m 1
 -13 666 l 1
 -13 621 l 1
 360 621 l 1
 360 666 l 1
226 193 m 0
 166 193 125 235 125 325 c 0
 125 352.088042477 128.804692086 374.646689613 135.405271642 392.948591304 c 1
 248.662890798 194.199572227 l 1
 241.468516562 193.42238414 233.919851312 193 226 193 c 0
299.495695285 206.913663265 m 1
 167.389518723 439.352097882 l 1
 181.181436048 449.934261335 197.274109357 455 214 455 c 0
 252 455 270 428 270 394 c 0
 270 359 262 354 262 347 c 0
 262 340 267 339 276 339 c 0
 312 339 342 365 342 409 c 0
 342 459 297 497 215 497 c 0
 102 497 39 421 39 325 c 0
 39 211 108 139 224 139 c 0
 330 139 404 214 404 236 c 0
 404 246 398 259 382 259 c 0
 370.733872263 259 347.072663063 226.276984936 299.495695285 206.913663265 c 1
EndSplineSet
Validated: 9
PickledData: "(dp1
S'com.typemytype.robofont.layerData'
p2
(dp3
S'original'
p4
(dp5
S'name'
p6
S'badeva_viramadeva'
p7
sS'lib'
p8
(dp9
sS'unicodes'
p10
(tsS'width'
p11
I366
sS'contours'
p12
((dp13
S'points'
p14
((dp15
S'segmentType'
p16
S'line'
p17
sS'x'
I-13
sS'smooth'
p18
I00
sS'y'
I606
s(dp19
g16
S'line'
p20
sS'x'
I-13
sg18
I00
sS'y'
I666
s(dp21
g16
S'line'
p22
sS'x'
I380
sg18
I00
sS'y'
I666
s(dp23
g16
S'line'
p24
sS'x'
I380
sg18
I00
sS'y'
I606
stp25
s(dp26
g14
((dp27
g16
S'curve'
p28
sS'x'
I226
sg18
I01
sS'y'
I193
s(dp29
S'y'
I193
sS'x'
I266
sg18
I00
s(dp30
S'y'
I208
sS'x'
I302
sg18
I00
s(dp31
g16
S'curve'
p32
sS'x'
I326
sg18
I00
sS'y'
I233
s(dp33
g16
S'line'
p34
sS'x'
I127
sg18
I00
sS'y'
I380
s(dp35
S'y'
I364
sS'x'
I114
sg18
I00
s(dp36
S'y'
I341
sS'x'
I107
sg18
I00
s(dp37
g16
S'curve'
p38
sS'x'
I107
sg18
I01
sS'y'
I313
s(dp39
S'y'
I247
sS'x'
I107
sg18
I00
s(dp40
S'y'
I193
sS'x'
I160
sg18
I00
stp41
s(dp42
g14
((dp43
g16
S'curve'
p44
sS'x'
I226
sg18
I01
sS'y'
I127
s(dp45
S'y'
I127
sS'x'
I123
sg18
I00
s(dp46
S'y'
I210
sS'x'
I40
sg18
I00
s(dp47
g16
S'curve'
p48
sS'x'
I40
sg18
I01
sS'y'
I313
s(dp49
S'y'
I423
sS'x'
I40
sg18
I00
s(dp50
S'y'
I513
sS'x'
I129
sg18
I00
s(dp51
g16
S'curve'
p52
sS'x'
I240
sg18
I01
sS'y'
I513
s(dp53
S'y'
I513
sS'x'
I264
sg18
I00
s(dp54
S'y'
I508
sS'x'
I287
sg18
I00
s(dp55
g16
S'curve'
p56
sS'x'
I306
sg18
I00
sS'y'
I499
s(dp57
g16
S'line'
p58
sS'x'
I306
sg18
I00
sS'y'
I433
s(dp59
S'y'
I441
sS'x'
I294
sg18
I00
s(dp60
S'y'
I446
sS'x'
I269
sg18
I00
s(dp61
g16
S'curve'
p62
sS'x'
I240
sg18
I01
sS'y'
I446
s(dp63
S'y'
I446
sS'x'
I208
sg18
I00
s(dp64
S'y'
I438
sS'x'
I181
sg18
I00
s(dp65
g16
S'curve'
p66
sS'x'
I160
sg18
I00
sS'y'
I419
s(dp67
g16
S'line'
p68
sS'x'
I366
sg18
I00
sS'y'
I266
s(dp69
g16
S'line'
p70
sS'x'
I393
sg18
I00
sS'y'
I300
s(dp71
g16
S'line'
p72
sS'x'
I393
sg18
I00
sS'y'
I213
s(dp73
S'y'
I158
sS'x'
I355
sg18
I00
s(dp74
S'y'
I127
sS'x'
I293
sg18
I00
stp75
stp76
sS'components'
p77
(tsS'anchors'
p78
(tsssS'com.typemytype.robofont.mark'
p79
(F0.75
F1
F1
F1
tp80
s."
Ligature2: "Lohit-Devanagari-HalfFormslookup10 subtable" badeva viramadeva
LCarets2: 1 0
EndChar

StartChar: badeva_viramadeva_radeva
Encoding: 224 -1 35
Width: 601
VWidth: 0
GlyphClass: 2
Flags: HW
HStem: 139 52<168.369 306.762> 455 42<171.538 273.164>
VStem: 37 87<238.87 394.151> 286 72<369.001 441.844>
LayerCount: 2
Back
Fore
SplineSet
417 206 m 257
 417 246 l 257
 93 74 l 258
 87 71 85 65 85 58 c 256
 85 33 107 -12 122 -12 c 256
 125 -12 128 -12 133 -8 c 258
 417 206 l 257
EndSplineSet
Refer: 33 2348 S 1 0 0 1 0 0 2
Validated: 5
PickledData: "(dp1
S'com.typemytype.robofont.layerData'
p2
(dp3
S'original'
p4
(dp5
S'name'
p6
S'badeva_viramadeva_radeva'
p7
sS'lib'
p8
(dp9
sS'unicodes'
p10
(tsS'width'
p11
I601
sS'contours'
p12
(tsS'components'
p13
(tsS'anchors'
p14
(tsssS'com.typemytype.robofont.mark'
p15
(F0.75
F1
F1
F1
tp16
s."
Ligature2: "Lohit-Devanagari-VattuVariantslookup30 subtable" badeva viramadeva_radeva
LCarets2: 1 0
EndChar

StartChar: bar
Encoding: 41 124 36
Width: 359
VWidth: 0
GlyphClass: 2
Flags: HW
LayerCount: 2
Back
SplineSet
210 -77 m 257
 210 690 l 257
 117 690 l 257
 117 -77 l 257
 210 -77 l 257
EndSplineSet
Fore
SplineSet
210 -77 m 257
 210 690 l 257
 117 690 l 257
 117 -77 l 257
 210 -77 l 257
EndSplineSet
Validated: 9
PickledData: "(dp1
S'com.typemytype.robofont.layerData'
p2
(dp3
S'original'
p4
(dp5
S'name'
p6
S'bar'
p7
sS'lib'
p8
(dp9
sS'unicodes'
p10
(tsS'width'
p11
I266
sS'contours'
p12
(tsS'components'
p13
(tsS'anchors'
p14
(tsssS'com.typemytype.robofont.mark'
p15
(I1
I1
I1
I0
tp16
s."
EndChar

StartChar: bbadeva
Encoding: 174 2431 37
Width: 601
VWidth: 0
GlyphClass: 2
Flags: HW
AnchorPoint: "Lohit-Devanagari-DVAnchor3" 460 664 basechar 0
LayerCount: 2
Back
Fore
SplineSet
-13 -45 m 257
 503 -45 l 257
 503 0 l 257
 -13 0 l 257
 -13 -45 l 257
170.053923702 438.624781423 m 1
 185.755337503 449.702260077 204.347894759 455 224 455 c 0
 265 455 286 428 286 394 c 0
 286 374 282 371 282 367 c 0
 282 361 287 359 296 359 c 0
 331 359 358 377 358 409 c 0
 358 459 313 497 231 497 c 0
 108 497 37 422 37 325 c 0
 37 211 124 139 230 139 c 0
 297 139 357 162 417 208 c 1
 417 0 l 1
 503 0 l 1
 503 621 l 1
 614 621 l 1
 614 666 l 1
 -13 666 l 1
 -13 621 l 1
 417 621 l 1
 417 267 l 1
 391.945027713 242.47811223 360.638115183 222.503090092 327.624006786 209.195814295 c 1
 170.053923702 438.624781423 l 1
136.897534112 396.394281204 m 1
 276.436703074 194.329364402 l 1
 264.134960125 192.144564593 251.91487145 191 240 191 c 0
 176 191 124 230 124 325 c 0
 124 353.813522147 128.714824283 377.50223529 136.897534112 396.394281204 c 1
EndSplineSet
Validated: 5
PickledData: "(dp1
S'com.typemytype.robofont.guides'
p2
((dp3
S'angle'
p4
F90
sS'name'
p5
NsS'magnetic'
p6
I5
sS'isGlobal'
p7
I00
sS'y'
I545
sS'x'
I417
stp8
sS'com.typemytype.robofont.layerData'
p9
(dp10
S'original'
p11
(dp12
g5
S'bbadeva'
p13
sS'lib'
p14
(dp15
sS'unicodes'
p16
(tsS'width'
p17
I601
sS'contours'
p18
((dp19
S'points'
p20
((dp21
S'segmentType'
p22
S'curve'
p23
sS'x'
I225
sS'smooth'
p24
I01
sS'y'
I213
s(dp25
S'y'
F213
sS'x'
F257.16000000000003
sg24
I00
s(dp26
S'y'
F221.24000000000001
sS'x'
F283.56
sg24
I00
s(dp27
g22
S'curve'
p28
sS'x'
I305
sg24
I00
sS'y'
I240
s(dp29
g22
S'line'
p30
sS'x'
I125
sg24
I00
sS'y'
I386
s(dp31
S'y'
F369.92000000000002
sS'x'
F112.94
sg24
I00
s(dp32
S'y'
F348.13999999999999
sS'x'
F105
sg24
I00
s(dp33
g22
S'curve'
p34
sS'x'
I105
sg24
I01
sS'y'
I320
s(dp35
S'y'
F261.04000000000002
sS'x'
F105
sg24
I00
s(dp36
S'y'
F213
sS'x'
F159.34
sg24
I00
stp37
s(dp38
g20
((dp39
g22
S'curve'
p40
sS'x'
I39
sg24
I01
sS'y'
I320
s(dp41
S'y'
F425.86000000000001
sS'x'
F39
sg24
I00
s(dp42
S'y'
F513
sS'x'
F128.12
sg24
I00
s(dp43
g22
S'curve'
p44
sS'x'
I238
sg24
I01
sS'y'
I513
s(dp45
S'y'
F513
sS'x'
F272.83999999999997
sg24
I00
s(dp46
S'y'
F505.06
sS'x'
F302.22000000000003
sg24
I00
s(dp47
g22
S'curve'
p48
sS'x'
I325
sg24
I00
sS'y'
I493
s(dp49
g22
S'line'
p50
sS'x'
I305
sg24
I00
sS'y'
I439
s(dp51
S'y'
F448.38
sS'x'
F284.89999999999998
sg24
I00
s(dp52
S'y'
F453
sS'x'
F263.45999999999998
sg24
I00
s(dp53
g22
S'curve'
p54
sS'x'
I238
sg24
I01
sS'y'
I453
s(dp55
S'y'
F453
sS'x'
F199.13999999999999
sg24
I00
s(dp56
S'y'
F442.07999999999998
sS'x'
F171.40000000000001
sg24
I00
s(dp57
g22
S'curve'
p58
sS'x'
I158
sg24
I00
sS'y'
I426
s(dp59
g22
S'line'
p60
sS'x'
I352
sg24
I00
sS'y'
I280
s(dp61
g22
S'line'
p62
sS'x'
I372
sg24
I00
sS'y'
I306
s(dp63
g22
S'line'
p64
sS'x'
I372
sg24
I00
sS'y'
I606
s(dp65
g22
S'line'
p66
sS'x'
I-13
sg24
I00
sS'y'
I606
s(dp67
g22
S'line'
p68
sS'x'
I-13
sg24
I00
sS'y'
I666
s(dp69
g22
S'line'
p70
sS'x'
I551
sg24
I00
sS'y'
I666
s(dp71
g22
S'line'
p72
sS'x'
I551
sg24
I00
sS'y'
I606
s(dp73
g22
S'line'
p74
sS'x'
I438
sg24
I00
sS'y'
I606
s(dp75
g22
S'line'
p76
sS'x'
I438
sg24
I00
sS'y'
I0
s(dp77
g22
S'line'
p78
sS'x'
I438
sg24
I00
sS'y'
I-60
s(dp79
g22
S'line'
p80
sS'x'
I-15
sg24
I00
sS'y'
I-60
s(dp81
g22
S'line'
p82
sS'x'
I-15
sg24
I00
sS'y'
I0
s(dp83
g22
S'line'
p84
sS'x'
I372
sg24
I00
sS'y'
I0
s(dp85
g22
S'line'
p86
sS'x'
I372
sg24
I00
sS'y'
I213
s(dp87
S'y'
F170.12
sS'x'
F329.12
sg24
I00
s(dp88
S'y'
F146
sS'x'
F277.25999999999999
sg24
I00
s(dp89
g22
S'curve'
p90
sS'x'
I225
sg24
I01
sS'y'
I146
s(dp91
S'y'
F146
sS'x'
F121.81999999999999
sg24
I00
s(dp92
S'y'
F223.52000000000001
sS'x'
F39
sg24
I00
stp93
stp94
sS'components'
p95
(tsS'anchors'
p96
(tsssS'com.typemytype.robofont.mark'
p97
(F0.75
F1
F1
F1
tp98
s."
EndChar

StartChar: bhadeva
Encoding: 93 2349 38
Width: 692
VWidth: 0
GlyphClass: 2
Flags: W
HStem: 309 13<250 259> 432 49<106.648 176.908> 624 53<102.865 202.733>
VStem: 15 72<499.024 608.367> 225 85<531 601.095> 259 51<270 309>
AnchorPoint: "Lohit-Devanagari-DVAnchor3" 561 664 basechar 0
LayerCount: 2
Back
SplineSet
516 621 m 257x1e
 516 0 l 257
 603 0 l 257
 603 621 l 257
 706 621 l 257
 706 666 l 257
 353 666 l 257
 353 621 l 257
 516 621 l 257x1e
142 312 m 260
 142 261 180 230 226 230 c 260x9e
 271 230 310 261 310 312 c 260
 310 358 283 387 258 387 c 261x5e
 258 338 242 328 230 328 c 260
 202 328 189 347 166 347 c 260x9e
 150 347 142 330 142 312 c 260
259 270 m 257
 545 270 l 257
 545 322 l 257
 259 322 l 257x3e
 259 270 l 257
310 531 m 262
 310 599 273 677 158 677 c 260
 83 677 15 634 15 557 c 260
 15 482 70 432 161 432 c 260
 175 432 177 442 177 460 c 260
 177 470 176 481 169 481 c 260
 109 481 87 510 87 557 c 260
 87 605 122 624 153 624 c 260
 204 624 225 581 225 531 c 262
 225 309 l 261
 310 309 l 261
 310 531 l 262
EndSplineSet
Fore
SplineSet
116 287 m 256xf8
 116 229 160 193 213 193 c 256
 265 193 310 229 310 287 c 256xf4
 310 318 250 321 250 321 c 257
 250 321 256 322 225 322 c 256
 184 322 166 333 146 333 c 256
 126 333 116 311 116 287 c 256xf8
516 621 m 257
 516 0 l 257
 603 0 l 257
 603 621 l 257
 706 621 l 257
 706 666 l 257
 353 666 l 257
 353 621 l 257
 516 621 l 257
259 270 m 257
 545 270 l 257
 545 322 l 257
 259 322 l 257
 259 270 l 257
310 531 m 258xf8
 310 599 273 677 158 677 c 256
 83 677 15 634 15 557 c 256
 15 482 70 432 161 432 c 256
 175 432 177 442 177 460 c 256
 177 470 176 481 169 481 c 256
 109 481 87 510 87 557 c 256
 87 605 122 624 153 624 c 256
 204 624 225 581 225 531 c 258
 225 309 l 257xf8
 310 309 l 257xf4
 310 531 l 258xf8
EndSplineSet
Validated: 5
PickledData: "(dp1
S'com.typemytype.robofont.layerData'
p2
(dp3
S'original'
p4
(dp5
S'name'
p6
S'bhadeva'
p7
sS'lib'
p8
(dp9
sS'unicodes'
p10
(tsS'width'
p11
I657
sS'contours'
p12
((dp13
S'points'
p14
((dp15
S'segmentType'
p16
S'curve'
p17
sS'x'
I119
sS'smooth'
p18
I01
sS'y'
I326
s(dp19
S'y'
F340.74000000000001
sS'x'
F119
sg18
I00
s(dp20
S'y'
F353
sS'x'
F133.24000000000001
sg18
I00
s(dp21
g16
S'curve'
p22
sS'x'
I152
sg18
I01
sS'y'
I353
s(dp23
g16
S'line'
p24
sS'x'
I205
sg18
I00
sS'y'
I353
s(dp25
g16
S'line'
p26
sS'x'
I205
sg18
I01
sS'y'
I546
s(dp27
S'y'
F583.51999999999998
sS'x'
F205
sg18
I00
s(dp28
S'y'
F613
sS'x'
F178.5
sg18
I00
s(dp29
g16
S'curve'
p30
sS'x'
F145
sg18
I01
sg6
S'inserted'
p31
sS'y'
F613
s(dp32
S'y'
F613
sS'x'
F111.5
sg18
I00
s(dp33
S'y'
F591.46000000000004
sS'x'
F85
sg18
I00
s(dp34
g16
S'curve'
p35
sS'x'
I85
sg18
I01
sS'y'
I566
s(dp36
S'y'
F535.17999999999995
sS'x'
F85
sg18
I00
s(dp37
S'y'
F513
sS'x'
F111.5
sg18
I00
s(dp38
g16
S'curve'
p39
sS'x'
I145
sg18
I00
sS'y'
I513
s(dp40
g16
S'line'
p41
sS'x'
I145
sg18
I00
sS'y'
I446
s(dp42
S'y'
F446
sS'x'
F75.319999999999993
sg18
I00
s(dp43
S'y'
F500.33999999999997
sS'x'
F19
sg18
I00
s(dp44
g16
S'curve'
p45
sS'x'
I19
sg18
I01
sS'y'
I566
s(dp46
S'y'
F628.98000000000002
sS'x'
F19
sg18
I00
s(dp47
S'y'
F679
sS'x'
F75.319999999999993
sg18
I00
s(dp48
g16
S'curve'
p49
sS'x'
F145
sg18
I01
sg6
S'inserted'
p50
sS'y'
F679
s(dp51
S'y'
F679
sS'x'
F214.68000000000001
sg18
I00
s(dp52
S'y'
F619.70000000000005
sS'x'
F272
sg18
I00
s(dp53
g16
S'curve'
p54
sS'x'
I272
sg18
I01
sS'y'
I546
s(dp55
g16
S'line'
p56
sS'x'
I272
sg18
I00
sS'y'
I353
s(dp57
g16
S'line'
p58
sS'x'
I491
sg18
I00
sS'y'
I353
s(dp59
g16
S'line'
p60
sS'x'
I491
sg18
I00
sS'y'
I606
s(dp61
g16
S'line'
p62
sS'x'
I318
sg18
I00
sS'y'
I606
s(dp63
g16
S'line'
p64
sS'x'
I318
sg18
I00
sS'y'
I666
s(dp65
g16
S'line'
p66
sS'x'
I671
sg18
I00
sS'y'
I666
s(dp67
g16
S'line'
p68
sS'x'
I671
sg18
I00
sS'y'
I606
s(dp69
g16
S'line'
p70
sS'x'
I558
sg18
I00
sS'y'
I606
s(dp71
g16
S'line'
p72
sS'x'
I558
sg18
I00
sS'y'
I0
s(dp73
g16
S'line'
p74
sS'x'
I491
sg18
I00
sS'y'
I0
s(dp75
g16
S'line'
p76
sS'x'
I491
sg18
I00
sS'y'
I286
s(dp77
g16
S'line'
p78
sS'x'
I272
sg18
I00
sS'y'
I286
s(dp79
g16
S'line'
p80
sS'x'
I272
sg18
I01
sS'y'
I233
s(dp81
S'y'
F218.25999999999999
sS'x'
F272
sg18
I00
s(dp82
S'y'
F206
sS'x'
F256.75999999999999
sg18
I00
s(dp83
g16
S'curve'
p84
sS'x'
I238
sg18
I01
sS'y'
I206
s(dp85
S'y'
F206
sS'x'
F211.19999999999999
sg18
I00
s(dp86
S'y'
F299.19999999999999
sS'x'
F119
sg18
I00
stp87
stp88
sS'components'
p89
(tsS'anchors'
p90
((dp91
S'y'
F664
sS'x'
F526
sg6
S'DVAnchor3'
p92
stp93
sssS'com.typemytype.robofont.mark'
p94
(F0.75
F1
F1
F1
tp95
s."
EndChar

StartChar: bhadeva_viramadeva
Encoding: 225 -1 39
Width: 501
VWidth: 0
GlyphClass: 2
Flags: W
HStem: 234 111<172.157 224.529> 309 74<260 284> 309 13<225 245> 432 49<106.648 176.908> 624 53<102.865 202.733>
VStem: 15 72<499.024 608.367> 225 85<531 601.095>
LayerCount: 2
Back
SplineSet
150 312 m 256
 150 263 186 234 230 234 c 256
 273 234 310 263 310 312 c 256
 310 356 284 383 260 383 c 257
 260 336 245 327 234 327 c 256
 207 327 195 345 173 345 c 256
 158 345 150 329 150 312 c 256
310 531 m 262
 310 585 288 677 173 677 c 260
 98 677 35 634 35 557 c 260
 35 482 110 442 171 442 c 260
 185 442 187 452 187 470 c 260
 187 480 186 491 179 491 c 260
 139 491 107 510 107 557 c 260
 107 605 137 624 168 624 c 260
 209 624 225 591 225 541 c 262
 225 309 l 261
 310 309 l 261
 310 531 l 262
259 270 m 257
 601 270 l 257
 601 322 l 257
 259 322 l 257
 259 270 l 257
514 666 m 257
 353 666 l 257
 353 621 l 257
 514 621 l 257
 514 666 l 257
EndSplineSet
Fore
SplineSet
310 531 m 258x3e
 310 599 273 677 158 677 c 256
 83 677 15 634 15 557 c 256
 15 482 70 432 161 432 c 256
 175 432 177 442 177 460 c 256
 177 470 176 481 169 481 c 256
 109 481 87 510 87 557 c 256
 87 605 122 624 153 624 c 256
 204 624 225 581 225 531 c 258
 225 309 l 257
 310 309 l 257
 310 531 l 258x3e
150 312 m 256
 150 263 186 234 230 234 c 256x9e
 273 234 310 263 310 312 c 256
 310 356 284 383 260 383 c 257x5e
 260 336 245 327 234 327 c 256
 207 327 195 345 173 345 c 256x9e
 158 345 150 329 150 312 c 256
259 270 m 257
 554 270 l 257
 554 322 l 261
 259 322 l 257x3e
 259 270 l 257
514 666 m 257
 353 666 l 257
 353 621 l 257
 514 621 l 257
 514 666 l 257
EndSplineSet
Validated: 5
PickledData: "(dp1
S'com.typemytype.robofont.layerData'
p2
(dp3
S'original'
p4
(dp5
S'name'
p6
S'bhadeva_viramadeva'
p7
sS'lib'
p8
(dp9
sS'unicodes'
p10
(tsS'width'
p11
I466
sS'contours'
p12
((dp13
S'points'
p14
((dp15
S'segmentType'
p16
S'curve'
p17
sS'x'
I113
sS'smooth'
p18
I01
sS'y'
I313
s(dp19
S'y'
F334.44
sS'x'
F113
sg18
I00
s(dp20
S'y'
F353
sS'x'
F131.56
sg18
I00
s(dp21
g16
S'curve'
p22
sS'x'
I153
sg18
I01
sS'y'
I353
s(dp23
g16
S'line'
p24
sS'x'
I206
sg18
I00
sS'y'
I353
s(dp25
g16
S'line'
p26
sS'x'
I206
sg18
I01
sS'y'
I546
s(dp27
S'y'
F583.51999999999998
sS'x'
F206
sg18
I00
s(dp28
S'y'
F613
sS'x'
F180.84
sg18
I00
s(dp29
g16
S'curve'
p30
sS'x'
I146
sg18
I01
sS'y'
I613
s(dp31
S'y'
F613
sS'x'
F112.5
sg18
I00
s(dp32
S'y'
F591.46000000000004
sS'x'
F87
sg18
I00
s(dp33
g16
S'curve'
p34
sS'x'
I87
sg18
I01
sS'y'
I566
s(dp35
S'y'
F535.17999999999995
sS'x'
F87
sg18
I00
s(dp36
S'y'
F513
sS'x'
F109.18000000000001
sg18
I00
s(dp37
g16
S'curve'
p38
sS'x'
I140
sg18
I00
sS'y'
I513
s(dp39
g16
S'line'
p40
sS'x'
I140
sg18
I00
sS'y'
I446
s(dp41
S'y'
F446
sS'x'
F74.339999999999989
sg18
I00
s(dp42
S'y'
F500.33999999999997
sS'x'
F20
sg18
I00
s(dp43
g16
S'curve'
p44
sS'x'
I20
sg18
I01
sS'y'
I566
s(dp45
S'y'
F628.98000000000002
sS'x'
F20
sg18
I00
s(dp46
S'y'
F679
sS'x'
F77.659999999999997
sg18
I00
s(dp47
g16
S'curve'
p48
sS'x'
I146
sg18
I01
sS'y'
I679
s(dp49
S'y'
F679
sS'x'
F215.68000000000001
sg18
I00
s(dp50
S'y'
F619.70000000000005
sS'x'
F273
sg18
I00
s(dp51
g16
S'curve'
p52
sS'x'
I273
sg18
I01
sS'y'
I546
s(dp53
g16
S'line'
p54
sS'x'
I273
sg18
I00
sS'y'
I353
s(dp55
g16
S'line'
p56
sS'x'
I493
sg18
I00
sS'y'
I353
s(dp57
g16
S'line'
p58
sS'x'
I493
sg18
I00
sS'y'
I293
s(dp59
g16
S'line'
p60
sS'x'
I273
sg18
I00
sS'y'
I293
s(dp61
g16
S'line'
p62
sS'x'
I273
sg18
I01
sS'y'
I233
s(dp63
S'y'
F218.25999999999999
sS'x'
F273
sg18
I00
s(dp64
S'y'
F206
sS'x'
F257.42000000000002
sg18
I00
s(dp65
g16
S'curve'
p66
sS'x'
I240
sg18
I01
sS'y'
I206
s(dp67
S'y'
F206
sS'x'
F210.52000000000001
sg18
I00
s(dp68
S'y'
F290.22000000000003
sS'x'
F113
sg18
I00
stp69
s(dp70
g14
((dp71
g16
S'line'
p72
sS'x'
I320
sg18
I00
sS'y'
I606
s(dp73
g16
S'line'
p74
sS'x'
I320
sg18
I00
sS'y'
I666
s(dp75
g16
S'line'
p76
sS'x'
I479
sg18
I00
sS'y'
I666
s(dp77
g16
S'line'
p78
sS'x'
I479
sg18
I00
sS'y'
I606
stp79
stp80
sS'components'
p81
(tsS'anchors'
p82
(tsssS'com.typemytype.robofont.mark'
p83
(F0.75
F1
F1
F1
tp84
s."
Ligature2: "Lohit-Devanagari-HalfFormslookup10 subtable" bhadeva viramadeva
LCarets2: 1 0
EndChar

StartChar: braceleft
Encoding: 40 123 41
Width: 324
VWidth: 0
GlyphClass: 2
Flags: HW
LayerCount: 2
Back
SplineSet
173 148 m 256
 173 253 132 295 72 307 c 257
 132 320 173 362 173 465 c 256
 173 572 201 661 268 677 c 257
 262 718 l 257
 123 701 71 594 71 465 c 256
 71 369 53 334 0 324 c 257
 0 289 l 257
 53 278 71 245 71 148 c 256
 71 20 123 -87 262 -103 c 257
 268 -62 l 257
 201 -47 173 43 173 148 c 256
EndSplineSet
Fore
SplineSet
173 148 m 256
 173 253 132 295 72 307 c 257
 132 320 173 362 173 465 c 256
 173 572 201 661 268 677 c 257
 262 718 l 257
 123 701 71 594 71 465 c 256
 71 369 53 334 0 324 c 257
 0 289 l 257
 53 278 71 245 71 148 c 256
 71 20 123 -87 262 -103 c 257
 268 -62 l 257
 201 -47 173 43 173 148 c 256
EndSplineSet
Validated: 9
PickledData: "(dp1
S'com.typemytype.robofont.layerData'
p2
(dp3
S'original'
p4
(dp5
S'name'
p6
S'braceleft'
p7
sS'lib'
p8
(dp9
sS'unicodes'
p10
(tsS'width'
p11
I484
sS'contours'
p12
(tsS'components'
p13
(tsS'anchors'
p14
(tsssS'com.typemytype.robofont.mark'
p15
(I1
I1
I1
I0
tp16
s."
EndChar

StartChar: braceright
Encoding: 42 125 42
Width: 324
VWidth: 0
GlyphClass: 2
Flags: HW
LayerCount: 2
Back
SplineSet
119 148 m 256
 119 253 160 295 220 307 c 257
 160 320 119 362 119 465 c 256
 119 572 91 661 24 677 c 257
 31 718 l 257
 170 701 221 594 221 465 c 256
 221 369 240 334 293 324 c 257
 293 289 l 257
 240 278 221 245 221 148 c 256
 221 20 170 -87 31 -103 c 257
 24 -62 l 257
 91 -47 119 43 119 148 c 256
EndSplineSet
Fore
SplineSet
119 148 m 256
 119 253 160 295 220 307 c 257
 160 320 119 362 119 465 c 256
 119 572 91 661 24 677 c 257
 31 718 l 257
 170 701 221 594 221 465 c 256
 221 369 240 334 293 324 c 257
 293 289 l 257
 240 278 221 245 221 148 c 256
 221 20 170 -87 31 -103 c 257
 24 -62 l 257
 91 -47 119 43 119 148 c 256
EndSplineSet
Validated: 1
PickledData: "(dp1
S'com.typemytype.robofont.layerData'
p2
(dp3
S'original'
p4
(dp5
S'name'
p6
S'braceright'
p7
sS'lib'
p8
(dp9
sS'unicodes'
p10
(tsS'width'
p11
I486
sS'contours'
p12
(tsS'components'
p13
(tsS'anchors'
p14
(tsssS'com.typemytype.robofont.mark'
p15
(I1
I1
I1
I0
tp16
s."
EndChar

StartChar: bracketleft
Encoding: 34 91 43
Width: 396
VWidth: 0
GlyphClass: 2
Flags: HW
LayerCount: 2
Back
SplineSet
117 -103 m 257
 334 -103 l 257
 334 -59 l 257
 260 -48 l 258
 226 -43 210 -34 210 1 c 258
 210 614 l 258
 210 647 226 657 260 663 c 258
 334 673 l 257
 334 718 l 257
 117 718 l 257
 117 -103 l 257
EndSplineSet
Fore
SplineSet
117 -103 m 257
 334 -103 l 257
 334 -59 l 257
 260 -48 l 258
 226 -43 210 -34 210 1 c 258
 210 614 l 258
 210 647 226 657 260 663 c 258
 334 673 l 257
 334 718 l 257
 117 718 l 257
 117 -103 l 257
EndSplineSet
Validated: 9
PickledData: "(dp1
S'com.typemytype.robofont.layerData'
p2
(dp3
S'original'
p4
(dp5
S'name'
p6
S'bracketleft'
p7
sS'lib'
p8
(dp9
sS'unicodes'
p10
(tsS'width'
p11
I392
sS'contours'
p12
(tsS'components'
p13
(tsS'anchors'
p14
(tsssS'com.typemytype.robofont.mark'
p15
(I1
I1
I1
I0
tp16
s."
EndChar

StartChar: bracketright
Encoding: 36 93 44
Width: 396
VWidth: 0
GlyphClass: 2
Flags: HW
LayerCount: 2
Back
SplineSet
243 -103 m 257
 26 -103 l 257
 26 -59 l 257
 100 -48 l 258
 134 -43 150 -34 150 1 c 258
 150 614 l 258
 150 647 134 657 100 663 c 258
 26 673 l 257
 26 718 l 257
 243 718 l 257
 243 -103 l 257
EndSplineSet
Fore
SplineSet
243 -103 m 257
 26 -103 l 257
 26 -59 l 257
 100 -48 l 258
 134 -43 150 -34 150 1 c 258
 150 614 l 258
 150 647 134 657 100 663 c 258
 26 673 l 257
 26 718 l 257
 243 718 l 257
 243 -103 l 257
EndSplineSet
Validated: 1
PickledData: "(dp1
S'com.typemytype.robofont.layerData'
p2
(dp3
S'original'
p4
(dp5
S'name'
p6
S'bracketright'
p7
sS'lib'
p8
(dp9
sS'unicodes'
p10
(tsS'width'
p11
I392
sS'contours'
p12
(tsS'components'
p13
(tsS'anchors'
p14
(tsssS'com.typemytype.robofont.mark'
p15
(I1
I1
I1
I0
tp16
s."
EndChar

StartChar: cadeva
Encoding: 74 2330 45
Width: 646
VWidth: 0
GlyphClass: 2
Flags: W
HStem: 135 53<234.687 377.486> 430 53<12.1808 22 389 398.819> 430 37<176 299>
VStem: 105 86<232.234 385.782> 470 86<273.029 304>
AnchorPoint: "Lohit-Devanagari-DVAnchor3" 513 664 basechar 0
LayerCount: 2
Back
Fore
SplineSet
470 304 m 257xb8
 427 234 374 188 307 188 c 256
 244 188 191 223 191 311 c 256
 191 394 241 430 299 430 c 257
 299 467 l 257
 176 467 105 399 105 301 c 256
 105 193 192 135 281 135 c 256
 360 135 414 169 469 235 c 257
 469 0 l 257
 556 0 l 257
 556 621 l 257
 659 621 l 257
 659 666 l 257
 -13 666 l 257
 -13 621 l 257
 470 621 l 257
 470 304 l 257xb8
22 483 m 258xd8
 15 483 12 467 12 457 c 256
 12 446 15 430 22 430 c 258
 389 430 l 258
 396 430 399 446 399 457 c 256
 399 467 396 483 389 483 c 258
 22 483 l 258xd8
EndSplineSet
Validated: 5
PickledData: "(dp1
S'com.typemytype.robofont.layerData'
p2
(dp3
S'original'
p4
(dp5
S'name'
p6
S'cadeva'
p7
sS'lib'
p8
(dp9
sS'unicodes'
p10
(tsS'width'
p11
I637
sS'contours'
p12
((dp13
S'points'
p14
((dp15
S'segmentType'
p16
S'line'
p17
sS'x'
I-13
sS'smooth'
p18
I00
sS'y'
I606
s(dp19
g16
S'line'
p20
sS'x'
I-13
sg18
I00
sS'y'
I666
s(dp21
g16
S'line'
p22
sS'x'
I651
sg18
I00
sS'y'
I666
s(dp23
g16
S'line'
p24
sS'x'
I651
sg18
I00
sS'y'
I606
s(dp25
g16
S'line'
p26
sS'x'
I538
sg18
I00
sS'y'
I606
s(dp27
g16
S'line'
p28
sS'x'
I538
sg18
I00
sS'y'
I0
s(dp29
g16
S'line'
p30
sS'x'
I471
sg18
I00
sS'y'
I0
s(dp31
g16
S'line'
p32
sS'x'
I471
sg18
I00
sS'y'
I240
s(dp33
S'y'
F164.96000000000001
sS'x'
F417.39999999999998
sg18
I00
s(dp34
S'y'
F120
sS'x'
F352.30000000000001
sg18
I00
s(dp35
g16
S'curve'
p36
sS'x'
I292
sg18
I01
sS'y'
I120
s(dp37
S'y'
F120
sS'x'
F202.22
sg18
I00
s(dp38
S'y'
F190.22
sS'x'
F132
sg18
I00
s(dp39
g16
S'curve'
p40
sS'x'
I132
sg18
I01
sS'y'
I280
s(dp41
S'y'
F344.31999999999999
sS'x'
F132
sg18
I00
s(dp42
S'y'
F399.19999999999999
sS'x'
F158.09999999999999
sg18
I00
s(dp43
g16
S'curve'
p44
sS'x'
I205
sg18
I00
sS'y'
I426
s(dp45
g16
S'line'
p46
sS'x'
I12
sg18
I00
sS'y'
I426
s(dp47
g16
S'line'
p48
sS'x'
I12
sg18
I00
sS'y'
I493
s(dp49
g16
S'line'
p50
sS'x'
I405
sg18
I00
sS'y'
I493
s(dp51
g16
S'line'
p52
sS'x'
I405
sg18
I00
sS'y'
I426
s(dp53
g16
S'line'
p54
sS'x'
I312
sg18
I00
sS'y'
I426
s(dp55
S'y'
F400.54000000000002
sS'x'
F243.66
sg18
I00
s(dp56
S'y'
F344.31999999999999
sS'x'
F198
sg18
I00
s(dp57
g16
S'curve'
p58
sS'x'
I198
sg18
I01
sS'y'
I280
s(dp59
S'y'
F227.74000000000001
sS'x'
F198
sg18
I00
s(dp60
S'y'
F186
sS'x'
F239.74000000000001
sg18
I00
s(dp61
g16
S'curve'
p62
sS'x'
I292
sg18
I01
sS'y'
I186
s(dp63
S'y'
F186
sS'x'
F348.27999999999997
sg18
I00
s(dp64
S'y'
F244.86000000000001
sS'x'
F416.06
sg18
I00
s(dp65
g16
S'curve'
p66
sS'x'
I471
sg18
I00
sS'y'
I340
s(dp67
g16
S'line'
p68
sS'x'
I471
sg18
I00
sS'y'
I606
stp69
stp70
sS'components'
p71
(tsS'anchors'
p72
((dp73
S'y'
F664
sS'x'
F503
sg6
S'DVAnchor3'
p74
stp75
sssS'com.typemytype.robofont.mark'
p76
(F0.75
F1
F1
F1
tp77
s."
EndChar

StartChar: cadeva_viramadeva
Encoding: 227 -1 46
Width: 488
VWidth: 0
GlyphClass: 2
Flags: W
HStem: 135 53<230.219 406.044> 430 53<12.1808 22 389 398.819> 430 37<176 299>
VStem: 105 86<229.142 385.782>
LayerCount: 2
Back
SplineSet
22 483 m 258
 15 483 12 467 12 457 c 256
 12 446 15 430 22 430 c 258
 389 430 l 258
 396 430 399 446 399 457 c 256
 399 467 396 483 389 483 c 258
 22 483 l 258
501 621 m 257
 501 666 l 257
 -13 666 l 257
 -13 621 l 257
 501 621 l 257
285 135 m 256
 512 135 621 342 621 358 c 256
 621 367 609 380 592 380 c 256
 572 380 496 188 302 188 c 256
 239 188 191 223 191 311 c 256
 191 394 241 430 299 430 c 257
 299 467 l 257
 176 467 105 399 105 301 c 256
 105 193 192 135 285 135 c 256
EndSplineSet
Fore
SplineSet
22 483 m 258xd0
 15 483 12 467 12 457 c 256
 12 446 15 430 22 430 c 258
 389 430 l 258
 396 430 399 446 399 457 c 256
 399 467 396 483 389 483 c 258
 22 483 l 258xd0
501 621 m 257
 501 666 l 257
 -13 666 l 257
 -13 621 l 257
 501 621 l 257
285 135 m 256
 478 135 576 278 576 294 c 256
 576 303 564 316 547 316 c 256
 527 316 467 188 302 188 c 256
 239 188 191 223 191 311 c 256
 191 394 241 430 299 430 c 257
 299 467 l 257xb0
 176 467 105 399 105 301 c 256
 105 193 192 135 285 135 c 256
EndSplineSet
Validated: 5
PickledData: "(dp1
S'com.typemytype.robofont.layerData'
p2
(dp3
S'original'
p4
(dp5
S'name'
p6
S'cadeva_viramadeva'
p7
sS'lib'
p8
(dp9
sS'unicodes'
p10
(tsS'width'
p11
I478
sS'contours'
p12
((dp13
S'points'
p14
((dp15
S'segmentType'
p16
S'line'
p17
sS'x'
I-13
sS'smooth'
p18
I00
sS'y'
I606
s(dp19
g16
S'line'
p20
sS'x'
I-13
sg18
I00
sS'y'
I666
s(dp21
g16
S'line'
p22
sS'x'
I491
sg18
I00
sS'y'
I666
s(dp23
g16
S'line'
p24
sS'x'
I491
sg18
I00
sS'y'
I606
stp25
s(dp26
g14
((dp27
g16
S'curve'
p28
sS'x'
I292
sg18
I01
sS'y'
I120
s(dp29
S'y'
F120
sS'x'
F202.22
sg18
I00
s(dp30
S'y'
F190.22
sS'x'
F132
sg18
I00
s(dp31
g16
S'curve'
p32
sS'x'
I132
sg18
I01
sS'y'
I280
s(dp33
S'y'
F340.30000000000001
sS'x'
F132
sg18
I00
s(dp34
S'y'
F393.83999999999997
sS'x'
F158.09999999999999
sg18
I00
s(dp35
g16
S'curve'
p36
sS'x'
I205
sg18
I00
sS'y'
I426
s(dp37
g16
S'line'
p38
sS'x'
I12
sg18
I00
sS'y'
I426
s(dp39
g16
S'line'
p40
sS'x'
I12
sg18
I00
sS'y'
I493
s(dp41
g16
S'line'
p42
sS'x'
I398
sg18
I00
sS'y'
I493
s(dp43
g16
S'line'
p44
sS'x'
I398
sg18
I00
sS'y'
I426
s(dp45
g16
S'line'
p46
sS'x'
I318
sg18
I00
sS'y'
I426
s(dp47
S'y'
F392.5
sS'x'
F245.63999999999999
sg18
I00
s(dp48
S'y'
F334.94
sS'x'
F198
sg18
I00
s(dp49
g16
S'curve'
p50
sS'x'
I198
sg18
I01
sS'y'
I280
s(dp51
S'y'
F227.74000000000001
sS'x'
F198
sg18
I00
s(dp52
S'y'
F186
sS'x'
F239.74000000000001
sg18
I00
s(dp53
g16
S'curve'
p54
sS'x'
I292
sg18
I01
sS'y'
I186
s(dp55
S'y'
F186
sS'x'
F352.30000000000001
sg18
I00
s(dp56
S'y'
F261.38
sS'x'
F432.63999999999999
sg18
I00
s(dp57
g16
S'curve'
p58
sS'x'
I505
sg18
I00
sS'y'
I386
s(dp59
g16
S'line'
p60
sS'x'
I505
sg18
I00
sS'y'
I280
s(dp61
S'y'
F179.5
sS'x'
F435.31999999999999
sg18
I00
s(dp62
S'y'
F120
sS'x'
F356.31999999999999
sg18
I00
stp63
stp64
sS'components'
p65
(tsS'anchors'
p66
(tsssS'com.typemytype.robofont.mark'
p67
(F0.75
F1
F1
F1
tp68
s."
Ligature2: "Lohit-Devanagari-HalfFormslookup10 subtable" cadeva viramadeva
LCarets2: 1 0
EndChar

StartChar: cadeva_viramadeva_cadeva
Encoding: 228 -1 47
Width: 637
VWidth: 0
GlyphClass: 2
Flags: W
LayerCount: 2
Back
Fore
SplineSet
288 333 m 257
 209 333 181 366 181 409 c 256
 181 458 231 480 289 480 c 257
 289 517 l 257
 166 517 95 468 95 399 c 256
 95 356 128 291 288 291 c 257
 288 333 l 257
459 0 m 257
 546 0 l 257
 546 621 l 257
 651 621 l 257
 651 666 l 257
 -13 666 l 257
 -13 621 l 257
 460 621 l 257
 459 0 l 257
22 533 m 258
 15 533 12 517 12 507 c 256
 12 496 15 480 22 480 c 258
 379 480 l 258
 386 480 389 496 389 507 c 256
 389 517 386 533 379 533 c 258
 22 533 l 258
460 204 m 257
 412 134 353 88 279 88 c 256
 226 88 181 116 181 186 c 256
 181 251 230 280 288 280 c 257
 288 317 l 257
 165 317 95 259 95 176 c 256
 95 84 173 35 253 35 c 256
 340 35 399 69 459 135 c 257
 460 204 l 257
22 333 m 258
 15 333 12 317 12 307 c 256
 12 296 15 280 22 280 c 258
 379 280 l 258
 386 280 389 296 389 307 c 256
 389 317 386 333 379 333 c 258
 22 333 l 258
EndSplineSet
Validated: 5
PickledData: "(dp1
S'com.typemytype.robofont.layerData'
p2
(dp3
S'original'
p4
(dp5
S'name'
p6
S'cadeva_viramadeva_cadeva'
p7
sS'lib'
p8
(dp9
sS'unicodes'
p10
(tsS'width'
p11
I648
sS'contours'
p12
(tsS'components'
p13
(tsS'anchors'
p14
(tsssS'com.typemytype.robofont.mark'
p15
(I1
I1
I1
I0
tp16
s."
LCarets2: 2 0 0
Ligature2: "Lohit-Devanagari-PreBaseSubstitutionslookup1 subtable" cadeva_viramadeva cadeva
Ligature2: "Lohit-Devanagari-LocalizedMrHalfFormslookup1 subtable" cadeva viramadeva cadeva
EndChar

StartChar: cadeva_viramadeva_radeva
Encoding: 229 -1 48
Width: 646
VWidth: 0
GlyphClass: 2
Flags: HW
HStem: 135 53<234.687 377.486> 430 37<176 299> 430 53<12.1808 22 389 398.819>
VStem: 105 86<232.234 385.782> 470 86<273.029 304>
LayerCount: 2
Back
Fore
SplineSet
506 250 m 257x98
 423 226 l 257
 99 54 l 258
 93 51 91 45 91 38 c 256
 91 13 113 -32 128 -32 c 256
 131 -32 134 -32 139 -28 c 258
 506 250 l 257x98
EndSplineSet
Refer: 45 2330 N 1 0 0 1 0 0 2
Validated: 5
PickledData: "(dp1
S'com.typemytype.robofont.layerData'
p2
(dp3
S'original'
p4
(dp5
S'name'
p6
S'cadeva_viramadeva_radeva'
p7
sS'lib'
p8
(dp9
sS'unicodes'
p10
(tsS'width'
p11
I637
sS'contours'
p12
((dp13
S'points'
p14
((dp15
S'segmentType'
p16
S'line'
p17
sS'x'
I-13
sS'smooth'
p18
I00
sS'y'
I606
s(dp19
g16
S'line'
p20
sS'x'
I-13
sg18
I00
sS'y'
I666
s(dp21
g16
S'line'
p22
sS'x'
I651
sg18
I00
sS'y'
I666
s(dp23
g16
S'line'
p24
sS'x'
I651
sg18
I00
sS'y'
I606
s(dp25
g16
S'line'
p26
sS'x'
I538
sg18
I00
sS'y'
I606
s(dp27
g16
S'line'
p28
sS'x'
I538
sg18
I00
sS'y'
I0
s(dp29
g16
S'line'
p30
sS'x'
I471
sg18
I00
sS'y'
I0
s(dp31
g16
S'line'
p32
sS'x'
I471
sg18
I00
sS'y'
I216
s(dp33
g16
S'line'
p34
sS'x'
I125
sg18
I00
sS'y'
I-33
s(dp35
g16
S'line'
p36
sS'x'
I85
sg18
I00
sS'y'
I20
s(dp37
g16
S'line'
p38
sS'x'
I242
sg18
I00
sS'y'
I125
s(dp39
S'y'
F142.41999999999999
sS'x'
F176.34
sg18
I00
s(dp40
S'y'
F206.30000000000001
sS'x'
F132
sg18
I00
s(dp41
g16
S'curve'
p42
sS'x'
I132
sg18
I01
sS'y'
I280
s(dp43
S'y'
F344.31999999999999
sS'x'
F132
sg18
I00
s(dp44
S'y'
F399.19999999999999
sS'x'
F158.09999999999999
sg18
I00
s(dp45
g16
S'curve'
p46
sS'x'
I205
sg18
I00
sS'y'
I426
s(dp47
g16
S'line'
p48
sS'x'
I12
sg18
I00
sS'y'
I426
s(dp49
g16
S'line'
p50
sS'x'
I12
sg18
I00
sS'y'
I493
s(dp51
g16
S'line'
p52
sS'x'
I405
sg18
I00
sS'y'
I493
s(dp53
g16
S'line'
p54
sS'x'
I405
sg18
I00
sS'y'
I426
s(dp55
g16
S'line'
p56
sS'x'
I312
sg18
I00
sS'y'
I426
s(dp57
S'y'
F400.54000000000002
sS'x'
F243.66
sg18
I00
s(dp58
S'y'
F344.31999999999999
sS'x'
F198
sg18
I00
s(dp59
g16
S'curve'
p60
sS'x'
I198
sg18
I01
sS'y'
I280
s(dp61
S'y'
F227.74000000000001
sS'x'
F198
sg18
I00
s(dp62
S'y'
F186
sS'x'
F239.74000000000001
sg18
I00
s(dp63
g16
S'curve'
p64
sS'x'
I292
sg18
I01
sS'y'
I186
s(dp65
S'y'
F186
sS'x'
F330.86000000000001
sg18
I00
s(dp66
S'y'
F229.62
sS'x'
F394.62
sg18
I00
s(dp67
g16
S'curve'
p68
sS'x'
I471
sg18
I00
sS'y'
I306
s(dp69
g16
S'line'
p70
sS'x'
I471
sg18
I00
sS'y'
I606
stp71
stp72
sS'components'
p73
(tsS'anchors'
p74
(tsssS'com.typemytype.robofont.mark'
p75
(F0.75
F1
F1
F1
tp76
s."
Ligature2: "Lohit-Devanagari-VattuVariantslookup30 subtable" cadeva viramadeva_radeva
LCarets2: 1 0
EndChar

StartChar: candrabinduavagrahadeva
Encoding: 209 43255 49
Width: 571
VWidth: 0
GlyphClass: 2
Flags: W
LayerCount: 2
Back
Fore
SplineSet
272 -33 m 256
 365 -33 427 14 427 83 c 256
 427 203 231 227 231 306 c 256
 231 328 251 345 290 345 c 258
 403 345 l 257
 403 390 l 257
 290 390 l 258
 223 390 160 370 160 295 c 256
 160 178 347 167 347 84 c 256
 347 41 319 15 271 15 c 256
 229 15 200 43 200 77 c 256
 200 116 218 133 218 145 c 256
 218 149 213 153 203 153 c 256
 154 153 119 120 119 74 c 256
 119 16 178 -33 272 -33 c 256
236 644 m 256
 236 622 267 590 286 590 c 256
 307 590 338 622 338 644 c 256
 338 665 307 698 286 698 c 256
 266 698 236 665 236 644 c 256
286 506 m 256
 228 506 186 546 181 609 c 256
 177 655 168 661 156 661 c 256
 133 661 105 636 105 592 c 256
 105 517 183 465 286 465 c 256
 388 465 466 517 466 592 c 256
 466 636 438 661 415 661 c 256
 403 661 394 655 390 609 c 256
 385 546 342 506 286 506 c 256
EndSplineSet
Validated: 9
PickledData: "(dp1
S'com.typemytype.robofont.layerData'
p2
(dp3
S'original'
p4
(dp5
S'name'
p6
S'candrabinduavagrahadeva'
p7
sS'lib'
p8
(dp9
sS'unicodes'
p10
(tsS'width'
p11
I626
sS'contours'
p12
(tsS'components'
p13
(tsS'anchors'
p14
(tsssS'com.typemytype.robofont.mark'
p15
(I1
I1
I1
I0
tp16
s."
EndChar

StartChar: candrabindudeva
Encoding: 49 2305 50
Width: 0
VWidth: 0
GlyphClass: 4
Flags: W
HStem: 759 41<-206.368 -82.6052> 884 108<-177.906 -106.28>
VStem: -324 76<840.714 942.102> -193 102<898.858 976.819> -39 76<840.714 942.102>
AnchorPoint: "Lohit-Devanagari-DVAnchor3" -143 666 mark 0
LayerCount: 2
Back
Fore
SplineSet
-143 800 m 256
 -201 800 -243 840 -248 903 c 256
 -252 949 -261 955 -273 955 c 256
 -296 955 -324 930 -324 886 c 256
 -324 811 -246 759 -143 759 c 256
 -41 759 37 811 37 886 c 256
 37 930 9 955 -14 955 c 256
 -26 955 -35 949 -39 903 c 256
 -44 840 -87 800 -143 800 c 256
-193 938 m 256
 -193 916 -162 884 -143 884 c 256
 -122 884 -91 916 -91 938 c 256
 -91 959 -122 992 -143 992 c 256
 -163 992 -193 959 -193 938 c 256
EndSplineSet
Validated: 9
PickledData: "(dp1
S'com.typemytype.robofont.guides'
p2
((dp3
S'angle'
p4
F90
sS'name'
p5
NsS'magnetic'
p6
I5
sS'isGlobal'
p7
I00
sS'y'
I759
sS'x'
I-132
stp8
sS'com.typemytype.robofont.layerData'
p9
(dp10
S'original'
p11
(dp12
g5
S'candrabindudeva'
p13
sS'lib'
p14
(dp15
sS'unicodes'
p16
(tsS'width'
p17
I0
sS'contours'
p18
((dp19
S'points'
p20
((dp21
S'segmentType'
p22
S'line'
p23
sS'x'
I-178
sS'smooth'
p24
I00
sS'y'
I905
s(dp25
g22
S'line'
p26
sS'x'
I-178
sg24
I00
sS'y'
I992
s(dp27
g22
S'line'
p28
sS'x'
I-92
sg24
I00
sS'y'
I992
s(dp29
g22
S'line'
p30
sS'x'
I-92
sg24
I00
sS'y'
I905
stp31
s(dp32
g20
((dp33
g22
S'curve'
p34
sS'x'
I-132
sg24
I01
sS'y'
I759
s(dp35
S'y'
F759
sS'x'
F-236.52000000000001
sg24
I00
s(dp36
S'y'
F836.46000000000004
sS'x'
F-324.89999999999998
sg24
I00
s(dp37
g22
S'curve'
p38
sS'x'
I-345
sg24
I00
sS'y'
I945
s(dp39
g22
S'line'
p40
sS'x'
I-272
sg24
I00
sS'y'
I945
s(dp41
S'y'
F872.63999999999999
sS'x'
F-258.60000000000002
sg24
I00
s(dp42
S'y'
F819
sS'x'
F-199
sg24
I00
s(dp43
g22
S'curve'
p44
sS'x'
I-132
sg24
I01
sS'y'
I819
s(dp45
S'y'
F819
sS'x'
F-63.659999999999997
sg24
I00
s(dp46
S'y'
F872.63999999999999
sS'x'
F-4.0599999999999996
sg24
I00
s(dp47
g22
S'curve'
p48
sS'x'
I8
sg24
I00
sS'y'
I945
s(dp49
g22
S'line'
p50
sS'x'
I81
sg24
I00
sS'y'
I945
s(dp51
S'y'
F836.46000000000004
sS'x'
F62.240000000000002
sg24
I00
s(dp52
S'y'
F759
sS'x'
F-26.140000000000001
sg24
I00
stp53
stp54
sS'components'
p55
(tsS'anchors'
p56
(tsssS'com.typemytype.robofont.mark'
p57
(F0.75
F1
F1
F1
tp58
s."
EndChar

StartChar: candrabindudigitthreedeva
Encoding: 208 43254 51
Width: 571
VWidth: 0
GlyphClass: 2
Flags: W
LayerCount: 2
Back
Fore
SplineSet
236 644 m 256
 236 622 267 590 286 590 c 256
 307 590 338 622 338 644 c 256
 338 665 307 698 286 698 c 256
 266 698 236 665 236 644 c 256
286 506 m 256
 228 506 186 546 181 609 c 256
 177 655 168 661 156 661 c 256
 133 661 105 636 105 592 c 256
 105 517 183 465 286 465 c 256
 388 465 466 517 466 592 c 256
 466 636 438 661 415 661 c 256
 403 661 394 655 390 609 c 256
 385 546 342 506 286 506 c 256
253 162 m 256
 326 162 364 128 364 85 c 256
 364 44 333 17 292 8 c 257
 248 53 216 63 187 63 c 256
 150 63 135 46 135 25 c 256
 135 -4 165 -42 246 -42 c 256
 387 -42 449 23 449 88 c 256
 449 148 387 209 278 209 c 256
 224 209 188 195 188 184 c 256
 188 174 193 155 204 155 c 256
 211 155 222 162 253 162 c 256
252 -31 m 257
 327 -58 406 -149 417 -149 c 256
 427 -149 447 -130 447 -123 c 256
 447 -111 381 -42 292 2 c 257
 252 -31 l 257
273 332 m 256
 323 332 349 308 349 278 c 256
 349 241 318 217 278 209 c 257
 264 172 l 257
 383 172 434 226 434 281 c 256
 434 331 382 382 280 382 c 256
 205 382 140 356 140 338 c 256
 140 327 145 307 156 307 c 256
 164 307 206 332 273 332 c 256
EndSplineSet
Validated: 5
PickledData: "(dp1
S'com.typemytype.robofont.layerData'
p2
(dp3
S'original'
p4
(dp5
S'name'
p6
S'candrabindudigitthreedeva'
p7
sS'lib'
p8
(dp9
sS'unicodes'
p10
(tsS'width'
p11
I650
sS'contours'
p12
(tsS'components'
p13
(tsS'anchors'
p14
(tsssS'com.typemytype.robofont.mark'
p15
(I1
I1
I1
I0
tp16
s."
EndChar

StartChar: candrabindudigittwodeva
Encoding: 207 43253 52
Width: 571
VWidth: 0
GlyphClass: 2
Flags: W
LayerCount: 2
Back
Fore
SplineSet
236 644 m 256
 236 622 267 590 286 590 c 256
 307 590 338 622 338 644 c 256
 338 665 307 698 286 698 c 256
 266 698 236 665 236 644 c 256
286 506 m 256
 228 506 186 546 181 609 c 256
 177 655 168 661 156 661 c 256
 133 661 105 636 105 592 c 256
 105 517 183 465 286 465 c 256
 388 465 466 517 466 592 c 256
 466 636 438 661 415 661 c 256
 403 661 394 655 390 609 c 256
 385 546 342 506 286 506 c 256
255 327 m 256
 337 327 379 278 379 214 c 256
 379 148 337 105 280 90 c 257
 236 135 204 145 175 145 c 256
 138 145 123 128 123 107 c 256
 123 78 153 40 234 40 c 256
 393 40 464 129 464 217 c 256
 464 300 399 382 283 382 c 256
 211 382 124 354 124 338 c 256
 124 324 131 302 139 302 c 256
 148 302 187 327 255 327 c 256
240 51 m 257
 316 24 394 -67 405 -67 c 256
 415 -67 435 -49 435 -41 c 256
 435 -29 369 40 280 84 c 257
 240 51 l 257
EndSplineSet
Validated: 5
PickledData: "(dp1
S'com.typemytype.robofont.layerData'
p2
(dp3
S'original'
p4
(dp5
S'name'
p6
S'candrabindudigittwodeva'
p7
sS'lib'
p8
(dp9
sS'unicodes'
p10
(tsS'width'
p11
I654
sS'contours'
p12
(tsS'components'
p13
(tsS'anchors'
p14
(tsssS'com.typemytype.robofont.mark'
p15
(I1
I1
I1
I0
tp16
s."
EndChar

StartChar: candrabinduinverteddeva
Encoding: 48 2304 53
Width: 0
VWidth: 0
GlyphClass: 4
Flags: W
HStem: 759 108<-177.906 -106.28> 951 41<-206.368 -82.6052>
VStem: -324 76<808.898 910.286> -193 102<774.181 852.142> -39 76<808.898 910.286>
AnchorPoint: "Lohit-Devanagari-DVAnchor3" -143 666 mark 0
LayerCount: 2
Back
Fore
SplineSet
-193 813 m 256
 -193 792 -163 759 -143 759 c 256
 -122 759 -91 792 -91 813 c 256
 -91 835 -122 867 -143 867 c 256
 -162 867 -193 835 -193 813 c 256
-143 951 m 256
 -87 951 -44 911 -39 848 c 256
 -35 802 -26 796 -14 796 c 256
 9 796 37 821 37 865 c 256
 37 940 -41 992 -143 992 c 256
 -246 992 -324 940 -324 865 c 256
 -324 821 -296 796 -273 796 c 256
 -261 796 -252 802 -248 848 c 256
 -243 911 -201 951 -143 951 c 256
EndSplineSet
Validated: 9
PickledData: "(dp1
S'com.typemytype.robofont.layerData'
p2
(dp3
S'original'
p4
(dp5
S'name'
p6
S'candrabinduinverteddeva'
p7
sS'lib'
p8
(dp9
sS'unicodes'
p10
(tsS'width'
p11
I0
sS'contours'
p12
((dp13
S'points'
p14
((dp15
S'segmentType'
p16
S'line'
p17
sS'x'
I-178
sS'smooth'
p18
I00
sS'y'
I846
s(dp19
g16
S'line'
p20
sS'x'
I-92
sg18
I00
sS'y'
I846
s(dp21
g16
S'line'
p22
sS'x'
I-92
sg18
I00
sS'y'
I759
s(dp23
g16
S'line'
p24
sS'x'
I-178
sg18
I00
sS'y'
I759
stp25
s(dp26
g14
((dp27
g16
S'curve'
p28
sS'x'
I-132
sg18
I01
sS'y'
I992
s(dp29
S'y'
F992
sS'x'
F-26.140000000000001
sg18
I00
s(dp30
S'y'
F914.53999999999996
sS'x'
F62.240000000000002
sg18
I00
s(dp31
g16
S'curve'
p32
sS'x'
I81
sg18
I00
sS'y'
I806
s(dp33
g16
S'line'
p34
sS'x'
I8
sg18
I00
sS'y'
I806
s(dp35
S'y'
F878.36000000000001
sS'x'
F-4.0599999999999996
sg18
I00
s(dp36
S'y'
F932
sS'x'
F-63.659999999999997
sg18
I00
s(dp37
g16
S'curve'
p38
sS'x'
I-132
sg18
I01
sS'y'
I932
s(dp39
S'y'
F932
sS'x'
F-199
sg18
I00
s(dp40
S'y'
F878.36000000000001
sS'x'
F-258.60000000000002
sg18
I00
s(dp41
g16
S'curve'
p42
sS'x'
I-272
sg18
I00
sS'y'
I806
s(dp43
g16
S'line'
p44
sS'x'
I-345
sg18
I00
sS'y'
I806
s(dp45
S'y'
F914.53999999999996
sS'x'
F-324.89999999999998
sg18
I00
s(dp46
S'y'
F992
sS'x'
F-236.52000000000001
sg18
I00
stp47
stp48
sS'components'
p49
(tsS'anchors'
p50
((dp51
S'y'
F666
sS'x'
F-120
sg6
S'_DVAnchor3'
p52
stp53
sssS'com.typemytype.robofont.mark'
p54
(F0.75
F1
F1
F1
tp55
s."
EndChar

StartChar: candrabinduviramadeva
Encoding: 205 43251 54
Width: 571
VWidth: 0
GlyphClass: 2
Flags: W
LayerCount: 2
Back
Fore
SplineSet
236 644 m 256
 236 622 267 590 286 590 c 256
 307 590 338 622 338 644 c 256
 338 665 307 698 286 698 c 256
 266 698 236 665 236 644 c 256
286 506 m 256
 228 506 186 546 181 609 c 256
 177 655 168 661 156 661 c 256
 133 661 105 636 105 592 c 256
 105 517 183 465 286 465 c 256
 388 465 466 517 466 592 c 256
 466 636 438 661 415 661 c 256
 403 661 394 655 390 609 c 256
 385 546 342 506 286 506 c 256
477 132 m 256
 494 132 525 162 525 181 c 256
 525 187 522 191 514 197 c 258
 285 359 l 257
 217 318 l 258
 208 312 202 307 202 300 c 256
 202 285 227 252 241 252 c 256
 248 252 254 254 264 268 c 258
 286 298 l 257
 457 142 l 258
 465 135 471 132 477 132 c 256
EndSplineSet
Validated: 9
PickledData: "(dp1
S'com.typemytype.robofont.layerData'
p2
(dp3
S'original'
p4
(dp5
S'name'
p6
S'candrabinduviramadeva'
p7
sS'lib'
p8
(dp9
sS'unicodes'
p10
(tsS'width'
p11
I632
sS'contours'
p12
((dp13
S'points'
p14
((dp15
S'segmentType'
p16
S'line'
p17
sS'x'
I266
sS'smooth'
p18
I00
sS'y'
I220
s(dp19
g16
S'line'
p20
sS'x'
I232
sg18
I00
sS'y'
I267
s(dp21
g16
S'line'
p22
sS'x'
I312
sg18
I00
sS'y'
I327
s(dp23
g16
S'line'
p24
sS'x'
I552
sg18
I00
sS'y'
I140
s(dp25
g16
S'line'
p26
sS'x'
I512
sg18
I00
sS'y'
I100
s(dp27
g16
S'line'
p28
sS'x'
I312
sg18
I00
sS'y'
I260
stp29
s(dp30
g14
((dp31
g16
S'line'
p32
sS'x'
I267
sg18
I00
sS'y'
I578
s(dp33
g16
S'line'
p34
sS'x'
I267
sg18
I00
sS'y'
I665
s(dp35
g16
S'line'
p36
sS'x'
I353
sg18
I00
sS'y'
I665
s(dp37
g16
S'line'
p38
sS'x'
I353
sg18
I00
sS'y'
I578
stp39
s(dp40
g14
((dp41
g16
S'curve'
p42
sS'x'
I313
sg18
I01
sS'y'
I432
s(dp43
S'y'
F432
sS'x'
F208.47999999999999
sg18
I00
s(dp44
S'y'
F509.45999999999998
sS'x'
F120.09999999999999
sg18
I00
s(dp45
g16
S'curve'
p46
sS'x'
I100
sg18
I00
sS'y'
I618
s(dp47
g16
S'line'
p48
sS'x'
I173
sg18
I00
sS'y'
I618
s(dp49
S'y'
F545.63999999999999
sS'x'
F186.40000000000001
sg18
I00
s(dp50
S'y'
F492
sS'x'
F246
sg18
I00
s(dp51
g16
S'curve'
p52
sS'x'
I313
sg18
I01
sS'y'
I492
s(dp53
S'y'
F492
sS'x'
F381.33999999999997
sg18
I00
s(dp54
S'y'
F545.63999999999999
sS'x'
F440.94
sg18
I00
s(dp55
g16
S'curve'
p56
sS'x'
I453
sg18
I00
sS'y'
I618
s(dp57
g16
S'line'
p58
sS'x'
I526
sg18
I00
sS'y'
I618
s(dp59
S'y'
F509.45999999999998
sS'x'
F507.24000000000001
sg18
I00
s(dp60
S'y'
F432
sS'x'
F418.86000000000001
sg18
I00
stp61
stp62
sS'components'
p63
(tsS'anchors'
p64
(tsssS'com.typemytype.robofont.mark'
p65
(F0.1508399248
F0.30573034290000001
F0.19466084240000001
F1
tp66
s."
EndChar

StartChar: caretdeva
Encoding: 212 43258 55
Width: 615
VWidth: 0
GlyphClass: 2
Flags: W
LayerCount: 2
Back
Fore
SplineSet
173 933 m 256
 148 933 108 900 108 885 c 256
 108 883 109 881 110 880 c 258
 277 666 l 257
 339 666 l 257
 506 880 l 258
 507 881 508 883 508 885 c 256
 508 900 469 934 444 934 c 256
 437 934 431 931 427 924 c 258
 308 712 l 257
 189 924 l 258
 185 931 180 933 173 933 c 256
EndSplineSet
Validated: 9
PickledData: "(dp1
S'com.typemytype.robofont.layerData'
p2
(dp3
S'original'
p4
(dp5
S'name'
p6
S'caretdeva'
p7
sS'lib'
p8
(dp9
sS'unicodes'
p10
(tsS'width'
p11
I615
sS'contours'
p12
(tsS'components'
p13
(tsS'anchors'
p14
(tsssS'com.typemytype.robofont.mark'
p15
(I1
I1
I1
I0
tp16
s."
EndChar

StartChar: cent
Encoding: 44 162 56
Width: 498
VWidth: 0
GlyphClass: 2
Flags: HW
LayerCount: 2
Back
SplineSet
269 152 m 256
 188 152 136 224 136 334 c 256
 136 450 184 529 254 529 c 256
 307 529 342 497 342 448 c 256
 342 397 319 380 319 371 c 256
 319 365 324 362 336 362 c 256
 390 362 428 399 428 453 c 256
 428 521 366 573 279 577 c 257
 279 744 l 257
 260 744 234 738 221 721 c 257
 221 573 l 257
 109 553 40 462 40 332 c 256
 40 202 112 109 221 93 c 257
 221 -78 l 257
 240 -78 267 -72 279 -54 c 257
 279 93 l 257
 332 99 381 124 419 168 c 256
 421 170 421 173 421 177 c 256
 421 189 410 202 399 202 c 256
 395 202 391 200 390 199 c 256
 353 168 314 152 269 152 c 256
EndSplineSet
Fore
SplineSet
269 152 m 256
 188 152 136 224 136 334 c 256
 136 450 184 529 254 529 c 256
 307 529 342 497 342 448 c 256
 342 397 319 380 319 371 c 256
 319 365 324 362 336 362 c 256
 390 362 428 399 428 453 c 256
 428 521 366 573 279 577 c 257
 279 744 l 257
 260 744 234 738 221 721 c 257
 221 573 l 257
 109 553 40 462 40 332 c 256
 40 202 112 109 221 93 c 257
 221 -78 l 257
 240 -78 267 -72 279 -54 c 257
 279 93 l 257
 332 99 381 124 419 168 c 256
 421 170 421 173 421 177 c 256
 421 189 410 202 399 202 c 256
 395 202 391 200 390 199 c 256
 353 168 314 152 269 152 c 256
EndSplineSet
Validated: 9
PickledData: "(dp1
S'com.typemytype.robofont.layerData'
p2
(dp3
S'original'
p4
(dp5
S'name'
p6
S'cent'
p7
sS'lib'
p8
(dp9
sS'unicodes'
p10
(tsS'width'
p11
I749
sS'contours'
p12
(tsS'components'
p13
(tsS'anchors'
p14
(tsssS'com.typemytype.robofont.mark'
p15
(I1
I1
I1
I0
tp16
s."
EndChar

StartChar: chadeva
Encoding: 75 2331 57
Width: 709
VWidth: 0
GlyphClass: 2
Flags: W
HStem: 34 53<223.97 431.259> 368 42<229.11 318.776> 453 39<480 566> 625 23<109 197>
VStem: 46 79<453.27 585.385> 75 86<148.826 305.922> 375 77<278.55 425.635> 591 79<240.789 417.452>
AnchorPoint: "Lohit-Devanagari-DVAnchor3" 523 664 basechar 0
AnchorPoint: "Lohit-Devanagari-DVAnchor0" 308 61 basechar 0
AnchorPoint: "DVAnchor0" 308 61 basechar 0
AnchorPoint: "DVAnchor3" 523 664 basechar 0
LayerCount: 2
Back
SplineSet
947 273 m 256
 892 273 868 233 868 197 c 256
 868 146 880 135 880 123 c 256
 880 115 871 113 863 113 c 256
 831 113 794 135 794 194 c 256
 794 288 875 320 954 320 c 1280
75 229 m 256
 75 112 159 34 308 34 c 256
 484 34 670 154 670 350 c 256
 670 393 645 492 513 492 c 256
 440 492 379 443 379 355 c 256
 379 241 482 179 568 179 c 256
 582 179 584 189 584 207 c 256
 584 215 583 223 581 223 c 256
 512 223 456 260 456 355 c 256
 456 419 485 445 514 445 c 256
 558 445 591 400 591 337 c 256
 591 189 481 87 308 87 c 256
 206 87 161 156 161 226 c 256
 161 297 207 368 303 368 c 256
 313 368 319 380 319 393 c 256
 319 403 316 410 309 410 c 256
 135 410 75 310 75 229 c 256
-13 621 m 257
 723 621 l 257
 723 666 l 257
 -13 666 l 257
 -13 621 l 257
253 404 m 257
 189 411 125 439 125 527 c 256
 125 583 158 625 199 625 c 257
 197 648 l 257
 109 648 46 588 46 517 c 256
 46 445 95 394 187 366 c 257
 253 404 l 257
480 453 m 257
 566 453 l 257
 566 621 l 257
 480 621 l 257
 480 453 l 257
EndSplineSet
Fore
SplineSet
375 355 m 256xf7
 375 268 429 248 461 248 c 256
 469 248 478 250 478 258 c 256
 478 270 452 290 452 358 c 256
 452 422 489 445 518 445 c 256
 562 445 591 400 591 337 c 256
 591 189 481 87 308 87 c 256
 206 87 161 156 161 226 c 256
 161 297 207 368 303 368 c 256
 313 368 319 380 319 393 c 256
 319 403 316 410 309 410 c 256
 135 410 75 310 75 229 c 256
 75 112 159 34 308 34 c 256
 484 34 670 154 670 350 c 256
 670 393 649 492 517 492 c 256
 444 492 375 443 375 355 c 256xf7
-13 621 m 257
 723 621 l 257
 723 666 l 257
 -13 666 l 257
 -13 621 l 257
253 404 m 257
 189 411 125 439 125 527 c 256
 125 583 158 625 199 625 c 257
 197 648 l 257
 109 648 46 588 46 517 c 256xfb
 46 445 95 394 187 366 c 257
 253 404 l 257
480 453 m 257
 566 453 l 257
 566 621 l 257
 480 621 l 257
 480 453 l 257
EndSplineSet
Validated: 5
PickledData: "(dp1
S'com.typemytype.robofont.layerData'
p2
(dp3
S'original'
p4
(dp5
S'name'
p6
S'chadeva'
p7
sS'lib'
p8
(dp9
sS'unicodes'
p10
(tsS'width'
p11
I709
sS'contours'
p12
((dp13
S'points'
p14
((dp15
S'segmentType'
p16
S'curve'
p17
sS'x'
I523
sS'smooth'
p18
I00
sS'y'
I220
s(dp19
S'y'
F254.84
sS'x'
F573.91999999999996
sg18
I00
s(dp20
S'y'
F309.72000000000003
sS'x'
F603
sg18
I00
s(dp21
g16
S'curve'
p22
sS'x'
I603
sg18
I01
sS'y'
I366
s(dp23
S'y'
F407.54000000000002
sS'x'
F603
sg18
I00
s(dp24
S'y'
F439
sS'x'
F568.55999999999995
sg18
I00
s(dp25
g16
S'curve'
p26
sS'x'
I523
sg18
I01
sS'y'
I439
s(dp27
S'y'
F439
sS'x'
F482.80000000000001
sg18
I00
s(dp28
S'y'
F404.22000000000003
sS'x'
F450
sg18
I00
s(dp29
g16
S'curve'
p30
sS'x'
I450
sg18
I01
sS'y'
I360
s(dp31
S'y'
F303.72000000000003
sS'x'
F450
sg18
I00
s(dp32
S'y'
F252.16
sS'x'
F477.44
sg18
I00
stp33
s(dp34
g14
((dp35
g16
S'curve'
p36
sS'x'
I310
sg18
I01
sS'y'
I100
s(dp37
S'y'
F100
sS'x'
F367.62
sg18
I00
s(dp38
S'y'
F123.12
sS'x'
F424.74000000000001
sg18
I00
s(dp39
g16
S'curve'
p40
sS'x'
I477
sg18
I00
sS'y'
I166
s(dp41
S'y'
F227.63999999999999
sS'x'
F415.36000000000001
sg18
I00
s(dp42
S'y'
F295.68000000000001
sS'x'
F384
sg18
I00
s(dp43
g16
S'curve'
p44
sS'x'
I384
sg18
I01
sS'y'
I360
s(dp45
S'y'
F433.69999999999999
sS'x'
F384
sg18
I00
s(dp46
S'y'
F495.27999999999997
sS'x'
F427.01999999999998
sg18
I00
s(dp47
g16
S'curve'
p48
sS'x'
I490
sg18
I00
sS'y'
I506
s(dp49
g16
S'line'
p50
sS'x'
I490
sg18
I00
sS'y'
I606
s(dp51
g16
S'line'
p52
sS'x'
I170
sg18
I00
sS'y'
I606
s(dp53
S'y'
F577.86000000000001
sS'x'
F136.5
sg18
I00
s(dp54
S'y'
F542.17999999999995
sS'x'
F117
sg18
I00
s(dp55
g16
S'curve'
p56
sS'x'
I117
sg18
I01
sS'y'
I506
s(dp57
S'y'
F453.74000000000001
sS'x'
F117
sg18
I00
s(dp58
S'y'
F413
sS'x'
F171.34
sg18
I00
s(dp59
g16
S'curve'
p60
sS'x'
I237
sg18
I01
sS'y'
I413
s(dp61
g16
S'line'
p62
sS'x'
I310
sg18
I00
sS'y'
I413
s(dp63
g16
S'line'
p64
sS'x'
I310
sg18
I00
sS'y'
I346
s(dp65
g16
S'line'
p66
sS'x'
I257
sg18
I01
sS'y'
I346
s(dp67
S'y'
F346
sS'x'
F198.03999999999999
sg18
I00
s(dp68
S'y'
F289.68000000000001
sS'x'
F150
sg18
I00
s(dp69
g16
S'curve'
p70
sS'x'
I150
sg18
I01
sS'y'
I220
s(dp71
S'y'
F153
sS'x'
F150
sg18
I00
s(dp72
S'y'
F100
sS'x'
F221.56
sg18
I00
stp73
s(dp74
g14
((dp75
g16
S'curve'
p76
sS'x'
I310
sg18
I01
sS'y'
I33
s(dp77
S'y'
F33
sS'x'
F185.38
sg18
I00
s(dp78
S'y'
F115.48
sS'x'
F84
sg18
I00
s(dp79
g16
S'curve'
p80
sS'x'
I84
sg18
I01
sS'y'
I220
s(dp81
S'y'
F284.31999999999999
sS'x'
F84
sg18
I00
s(dp82
S'y'
F340.83999999999997
sS'x'
F111.44
sg18
I00
s(dp83
g16
S'curve'
p84
sS'x'
I157
sg18
I00
sS'y'
I373
s(dp85
S'y'
F402.48000000000002
sS'x'
F91.340000000000003
sg18
I00
s(dp86
S'y'
F453.74000000000001
sS'x'
F51
sg18
I00
s(dp87
g16
S'curve'
p88
sS'x'
I51
sg18
I01
sS'y'
I506
s(dp89
S'y'
F550.22000000000003
sS'x'
F51
sg18
I00
s(dp90
S'y'
F588.58000000000004
sS'x'
F65.540000000000006
sg18
I00
s(dp91
g16
S'curve'
p92
sS'x'
I91
sg18
I00
sS'y'
I606
s(dp93
g16
S'line'
p94
sS'x'
I-13
sg18
I00
sS'y'
I606
s(dp95
g16
S'line'
p96
sS'x'
I-13
sg18
I00
sS'y'
I666
s(dp97
g16
S'line'
p98
sS'x'
I723
sg18
I00
sS'y'
I666
s(dp99
g16
S'line'
p100
sS'x'
I723
sg18
I00
sS'y'
I606
s(dp101
g16
S'line'
p102
sS'x'
I557
sg18
I00
sS'y'
I606
s(dp103
g16
S'line'
p104
sS'x'
I557
sg18
I00
sS'y'
I506
s(dp105
S'y'
F493.94
sS'x'
F622.65999999999997
sg18
I00
s(dp106
S'y'
F435.68000000000001
sS'x'
F670
sg18
I00
s(dp107
g16
S'curve'
p108
sS'x'
I670
sg18
I01
sS'y'
I366
s(dp109
S'y'
F209.22
sS'x'
F670
sg18
I00
s(dp110
S'y'
F33
sS'x'
F480.18000000000001
sg18
I00
stp111
stp112
sS'components'
p113
(tsS'anchors'
p114
((dp115
S'y'
F664
sS'x'
F526
sg6
S'DVAnchor3'
p116
s(dp117
S'y'
F61
sS'x'
F322
sg6
S'DVAnchor0'
p118
stp119
sssS'com.typemytype.robofont.mark'
p120
(F0.75
F1
F1
F1
tp121
s."
EndChar

StartChar: chadeva_viramadeva
Encoding: 230 -1 58
Width: 709
VWidth: 0
GlyphClass: 2
Flags: W
HStem: 34 53<223.97 431.259> 368 42<229.11 318.776> 445 47<472.655 563.05> 625 23<109 197>
VStem: 46 79<453.27 585.385> 75 86<148.826 305.922> 375 77<278.55 425.635> 591 79<240.789 417.452>
LayerCount: 2
Back
SplineSet
253 404 m 257
 189 411 125 439 125 527 c 256
 125 583 158 625 199 625 c 257
 197 648 l 257
 109 648 46 588 46 517 c 256
 46 445 95 394 187 366 c 257
 253 404 l 257
-13 621 m 257
 723 621 l 257
 723 666 l 257
 -13 666 l 257
 -13 621 l 257
75 229 m 256
 75 112 159 34 308 34 c 256
 484 34 670 154 670 350 c 256
 670 393 645 492 513 492 c 256
 440 492 379 443 379 355 c 256
 379 241 482 179 568 179 c 256
 582 179 584 189 584 207 c 256
 584 215 583 223 581 223 c 256
 512 223 456 260 456 355 c 256
 456 419 485 445 514 445 c 256
 558 445 591 400 591 337 c 256
 591 189 481 87 308 87 c 256
 206 87 161 156 161 226 c 256
 161 297 207 368 303 368 c 256
 313 368 319 380 319 393 c 256
 319 403 316 410 309 410 c 256
 135 410 75 310 75 229 c 256
EndSplineSet
Fore
SplineSet
591 337 m 260xf7
 591 189 481 87 308 87 c 256
 206 87 161 156 161 226 c 256
 161 297 207 368 303 368 c 256
 313 368 319 380 319 393 c 256
 319 403 316 410 309 410 c 256
 135 410 75 310 75 229 c 256
 75 112 159 34 308 34 c 256
 484 34 670 154 670 350 c 260
 670 393 649 492 517 492 c 260
 444 492 375 443 375 355 c 260
 375 268 429 248 461 248 c 260
 469 248 478 250 478 258 c 260
 478 270 452 290 452 358 c 260
 452 422 489 445 518 445 c 260
 562 445 591 400 591 337 c 260xf7
253 404 m 257
 189 411 125 439 125 527 c 256
 125 583 158 625 199 625 c 257
 197 648 l 257
 109 648 46 588 46 517 c 256xfb
 46 445 95 394 187 366 c 257
 253 404 l 257
-13 621 m 257
 723 621 l 257
 723 666 l 257
 -13 666 l 257
 -13 621 l 257
EndSplineSet
Validated: 5
PickledData: "(dp1
S'com.typemytype.robofont.layerData'
p2
(dp3
S'original'
p4
(dp5
S'name'
p6
S'chadeva_viramadeva'
p7
sS'lib'
p8
(dp9
sS'unicodes'
p10
(tsS'width'
p11
I709
sS'contours'
p12
((dp13
S'points'
p14
((dp15
S'segmentType'
p16
S'curve'
p17
sS'x'
I523
sS'smooth'
p18
I00
sS'y'
I220
s(dp19
S'y'
F254.84
sS'x'
F573.91999999999996
sg18
I00
s(dp20
S'y'
F309.72000000000003
sS'x'
F603
sg18
I00
s(dp21
g16
S'curve'
p22
sS'x'
I603
sg18
I01
sS'y'
I366
s(dp23
S'y'
F407.54000000000002
sS'x'
F603
sg18
I00
s(dp24
S'y'
F439
sS'x'
F568.55999999999995
sg18
I00
s(dp25
g16
S'curve'
p26
sS'x'
I523
sg18
I01
sS'y'
I439
s(dp27
S'y'
F439
sS'x'
F482.80000000000001
sg18
I00
s(dp28
S'y'
F404.22000000000003
sS'x'
F450
sg18
I00
s(dp29
g16
S'curve'
p30
sS'x'
I450
sg18
I01
sS'y'
I360
s(dp31
S'y'
F303.72000000000003
sS'x'
F450
sg18
I00
s(dp32
S'y'
F252.16
sS'x'
F477.44
sg18
I00
stp33
s(dp34
g14
((dp35
g16
S'curve'
p36
sS'x'
I310
sg18
I01
sS'y'
I33
s(dp37
S'y'
F33
sS'x'
F185.38
sg18
I00
s(dp38
S'y'
F115.48
sS'x'
F84
sg18
I00
s(dp39
g16
S'curve'
p40
sS'x'
I84
sg18
I01
sS'y'
I220
s(dp41
S'y'
F284.31999999999999
sS'x'
F84
sg18
I00
s(dp42
S'y'
F340.83999999999997
sS'x'
F111.44
sg18
I00
s(dp43
g16
S'curve'
p44
sS'x'
I157
sg18
I00
sS'y'
I373
s(dp45
S'y'
F402.48000000000002
sS'x'
F91.340000000000003
sg18
I00
s(dp46
S'y'
F453.74000000000001
sS'x'
F51
sg18
I00
s(dp47
g16
S'curve'
p48
sS'x'
I51
sg18
I01
sS'y'
I506
s(dp49
S'y'
F550.22000000000003
sS'x'
F51
sg18
I00
s(dp50
S'y'
F588.58000000000004
sS'x'
F65.540000000000006
sg18
I00
s(dp51
g16
S'curve'
p52
sS'x'
I91
sg18
I00
sS'y'
I606
s(dp53
g16
S'line'
p54
sS'x'
I-13
sg18
I00
sS'y'
I606
s(dp55
g16
S'line'
p56
sS'x'
I-13
sg18
I00
sS'y'
I666
s(dp57
g16
S'line'
p58
sS'x'
I723
sg18
I00
sS'y'
I666
s(dp59
g16
S'line'
p60
sS'x'
I723
sg18
I00
sS'y'
I606
s(dp61
g16
S'line'
p62
sS'x'
I170
sg18
I00
sS'y'
I606
s(dp63
S'y'
F577.86000000000001
sS'x'
F136.5
sg18
I00
s(dp64
S'y'
F542.17999999999995
sS'x'
F117
sg18
I00
s(dp65
g16
S'curve'
p66
sS'x'
I117
sg18
I01
sS'y'
I506
s(dp67
S'y'
F453.74000000000001
sS'x'
F117
sg18
I00
s(dp68
S'y'
F413
sS'x'
F171.34
sg18
I00
s(dp69
g16
S'curve'
p70
sS'x'
I237
sg18
I01
sS'y'
I413
s(dp71
g16
S'line'
p72
sS'x'
I310
sg18
I00
sS'y'
I413
s(dp73
g16
S'line'
p74
sS'x'
I310
sg18
I00
sS'y'
I346
s(dp75
g16
S'line'
p76
sS'x'
I257
sg18
I01
sS'y'
I346
s(dp77
S'y'
F346
sS'x'
F198.03999999999999
sg18
I00
s(dp78
S'y'
F289.68000000000001
sS'x'
F150
sg18
I00
s(dp79
g16
S'curve'
p80
sS'x'
I150
sg18
I01
sS'y'
I220
s(dp81
S'y'
F153
sS'x'
F150
sg18
I00
s(dp82
S'y'
F100
sS'x'
F221.56
sg18
I00
s(dp83
g16
S'curve'
p84
sS'x'
I310
sg18
I01
sS'y'
I100
s(dp85
S'y'
F100
sS'x'
F367.62
sg18
I00
s(dp86
S'y'
F123.12
sS'x'
F424.74000000000001
sg18
I00
s(dp87
g16
S'curve'
p88
sS'x'
I477
sg18
I00
sS'y'
I166
s(dp89
S'y'
F227.63999999999999
sS'x'
F415.36000000000001
sg18
I00
s(dp90
S'y'
F295.68000000000001
sS'x'
F384
sg18
I00
s(dp91
g16
S'curve'
p92
sS'x'
I384
sg18
I01
sS'y'
I360
s(dp93
S'y'
F441.74000000000001
sS'x'
F384
sg18
I00
s(dp94
S'y'
F506
sS'x'
F446.62
sg18
I00
s(dp95
g16
S'curve'
p96
sS'x'
I523
sg18
I01
sS'y'
I506
s(dp97
S'y'
F506
sS'x'
F606.08000000000004
sg18
I00
s(dp98
S'y'
F442.38
sS'x'
F670
sg18
I00
s(dp99
g16
S'curve'
p100
sS'x'
I670
sg18
I01
sS'y'
I366
s(dp101
S'y'
F209.22
sS'x'
F670
sg18
I00
s(dp102
S'y'
F33
sS'x'
F480.18000000000001
sg18
I00
stp103
stp104
sS'components'
p105
(tsS'anchors'
p106
(tsssS'com.typemytype.robofont.mark'
p107
(F0.75
F1
F1
F1
tp108
s."
Ligature2: "Lohit-Devanagari-HalfFormslookup10 subtable" chadeva viramadeva
LCarets2: 1 0
EndChar

StartChar: chadeva_viramadeva_vadeva
Encoding: 231 -1 59
Width: 753
VWidth: 0
GlyphClass: 2
Flags: HW
HStem: -167 49<279.009 423.944> 47 47<265.774 362.726> 137 47<226.994 457.392> 325 42<223.875 326.789> 511 41<145.522 234.397> 518 148<494 586> 535 17<486 572>
VStem: 46 79<381.943 493.479> 109 86<213.077 299.115> 164 86<-89.9142 32.3151> 244 72<422.683 501.861> 373 71<-46.6465 36.5222> 380 77<364.741 496.471> 615 84<315.287 486.615>
AnchorPoint: "Lohit-Devanagari-DVAnchor0" 529 -147 basechar 0
LayerCount: 2
Back
SplineSet
-13 621 m 257
 486 621 l 257
 486 535 l 257
 572 535 l 257
 572 621 l 257
 766 621 l 257
 766 666 l 257
 -13 666 l 257
 -13 621 l 257
312 325 m 256
 321 325 327 337 327 350 c 256
 327 360 325 367 318 367 c 256
 283 367 248 363 216 355 c 257
 170 360 125 379 125 440 c 256
 125 480 154 511 188 511 c 256
 225 511 244 489 244 461 c 256
 244 427 236 421 236 414 c 256
 236 408 241 407 249 407 c 256
 286 407 316 432 316 476 c 256
 316 520 274 552 198 552 c 256
 109 552 46 501 46 440 c 256
 46 386 83 348 155 327 c 257
 123 307 109 281 109 254 c 256
 109 182 183 137 317 137 c 256
 482 137 699 211 699 405 c 256
 699 450 670 552 521 552 c 256
 444 552 378 515 378 446 c 256
 378 370 464 329 527 329 c 256
 541 329 542 338 542 352 c 256
 542 361 541 370 534 370 c 256
 492 370 450 392 450 446 c 256
 450 497 486 518 523 518 c 256
 576 518 615 466 615 409 c 256
 615 270 499 184 317 184 c 256
 232 184 195 221 195 258 c 256
 195 292 233 325 312 325 c 256
531 -10 m 256
 513 -10 459 -118 338 -118 c 256
 294 -118 250 -89 250 -30 c 256
 250 24 278 47 311 47 c 256
 353 47 373 24 373 -8 c 256
 373 -42 365 -48 365 -55 c 256
 365 -61 370 -63 378 -63 c 256
 414 -63 444 -36 444 7 c 256
 444 54 404 94 312 94 c 256
 216 94 164 38 164 -30 c 256
 164 -113 238 -167 330 -167 c 256
 454 -167 558 -50 558 -32 c 256
 558 -23 544 -10 531 -10 c 256
491 -167 m 257
 567 -167 l 257
 567 202 l 257
 491 202 l 257
 491 -167 l 257
EndSplineSet
Fore
SplineSet
533 518 m 256xf48c
 586 518 615 466 615 409 c 256
 615 270 499 184 317 184 c 256
 232 184 195 221 195 258 c 256xf48c
 195 292 233 325 312 325 c 256
 321 325 327 337 327 350 c 256
 327 360 325 367 318 367 c 256
 283 367 248 363 216 355 c 257
 170 360 125 379 125 440 c 256
 125 480 154 511 188 511 c 256
 225 511 244 489 244 461 c 256
 244 427 236 421 236 414 c 256
 236 408 241 407 249 407 c 256
 286 407 316 432 316 476 c 256
 316 520 274 552 198 552 c 256
 109 552 46 501 46 440 c 256xf924
 46 386 83 348 155 327 c 257
 123 307 109 281 109 254 c 256
 109 182 183 137 317 137 c 256
 482 137 699 211 699 405 c 256
 699 450 680 552 531 552 c 256xf284
 458 552 380 516 380 428 c 256
 380 356 443 328 475 328 c 256
 483 328 492 330 492 338 c 256
 492 350 457 363 457 431 c 256
 457 495 494 518 533 518 c 256xf48c
-13 621 m 257
 486 621 l 257
 486 535 l 257
 572 535 l 257xf204
 572 621 l 257
 766 621 l 257
 766 666 l 257
 -13 666 l 257
 -13 621 l 257
531 -10 m 256
 513 -10 459 -118 338 -118 c 256
 294 -118 250 -89 250 -30 c 256
 250 24 278 47 311 47 c 256
 353 47 373 24 373 -8 c 256
 373 -42 365 -48 365 -55 c 256
 365 -61 370 -63 378 -63 c 256
 414 -63 444 -36 444 7 c 256
 444 54 404 94 312 94 c 256
 216 94 164 38 164 -30 c 256xf054
 164 -113 238 -167 330 -167 c 256
 454 -167 558 -50 558 -32 c 256
 558 -23 544 -10 531 -10 c 256
491 -167 m 257
 567 -167 l 257
 567 202 l 257
 491 202 l 257
 491 -167 l 257
EndSplineSet
Validated: 5
PickledData: "(dp1
S'com.typemytype.robofont.layerData'
p2
(dp3
S'original'
p4
(dp5
S'name'
p6
S'chadeva_viramadeva_vadeva'
p7
sS'lib'
p8
(dp9
sS'unicodes'
p10
(tsS'width'
p11
I668
sS'contours'
p12
(tsS'components'
p13
(tsS'anchors'
p14
(tsssS'com.typemytype.robofont.mark'
p15
(I1
I1
I1
I0
tp16
s."
Ligature2: "Lohit-Devanagari-PreBaseSubstitutionslookup1 subtable" chadeva_viramadeva vadeva
Ligature2: "Lohit-Devanagari-LocalizedMrHalfFormslookup1 subtable" cadeva viramadeva vadeva
LCarets2: 2 0 0
EndChar

StartChar: colon
Encoding: 27 58 60
Width: 196
VWidth: 0
GlyphClass: 2
Flags: HW
LayerCount: 2
Back
SplineSet
31 47 m 256
 31 24 65 -13 87 -13 c 256
 109 -13 146 24 146 47 c 256
 146 73 109 109 87 109 c 256
 65 109 31 73 31 47 c 256
31 381 m 256
 31 358 65 321 87 321 c 256
 109 321 146 358 146 381 c 256
 146 407 109 443 87 443 c 256
 65 443 31 407 31 381 c 256
EndSplineSet
Fore
SplineSet
31 47 m 256
 31 24 65 -13 87 -13 c 256
 109 -13 146 24 146 47 c 256
 146 73 109 109 87 109 c 256
 65 109 31 73 31 47 c 256
31 381 m 256
 31 358 65 321 87 321 c 256
 109 321 146 358 146 381 c 256
 146 407 109 443 87 443 c 256
 65 443 31 407 31 381 c 256
EndSplineSet
Validated: 9
PickledData: "(dp1
S'com.typemytype.robofont.layerData'
p2
(dp3
S'original'
p4
(dp5
S'name'
p6
S'colon'
p7
sS'lib'
p8
(dp9
sS'unicodes'
p10
(tsS'width'
p11
I279
sS'contours'
p12
(tsS'components'
p13
(tsS'anchors'
p14
(tsssS'com.typemytype.robofont.mark'
p15
(I1
I1
I1
I0
tp16
s."
EndChar

StartChar: comma
Encoding: 13 44 61
Width: 196
VWidth: 0
GlyphClass: 2
Flags: HW
LayerCount: 2
Back
SplineSet
17 93 m 257
 21 71 l 257
 39 59 l 258
 53 49 60 40 60 26 c 256
 60 15 56 2 49 -13 c 258
 6 -97 l 257
 34 -115 l 257
 70 -76 l 258
 113 -29 146 10 146 48 c 256
 146 94 119 110 85 110 c 256
 69 110 50 105 34 99 c 258
 17 93 l 257
EndSplineSet
Fore
SplineSet
17 93 m 257
 21 71 l 257
 39 59 l 258
 53 49 60 40 60 26 c 256
 60 15 56 2 49 -13 c 258
 6 -97 l 257
 34 -115 l 257
 70 -76 l 258
 113 -29 146 10 146 48 c 256
 146 94 119 110 85 110 c 256
 69 110 50 105 34 99 c 258
 17 93 l 257
EndSplineSet
Validated: 9
PickledData: "(dp1
S'com.typemytype.robofont.layerData'
p2
(dp3
S'original'
p4
(dp5
S'name'
p6
S'comma'
p7
sS'lib'
p8
(dp9
sS'unicodes'
p10
(tsS'width'
p11
I359
sS'contours'
p12
(tsS'components'
p13
(tsS'anchors'
p14
(tsssS'com.typemytype.robofont.mark'
p15
(I1
I1
I1
I0
tp16
s."
EndChar

StartChar: da_ddha_ra_yadeva
Encoding: 232 -1 62
Width: 1292
VWidth: 0
GlyphClass: 3
Flags: HW
AnchorPoint: "Lohit-Devanagari-DVAnchor0" 1151 23 basechar 0
LayerCount: 2
Back
Fore
SplineSet
1108 0 m 257
 1194 0 l 257
 1194 636 l 257
 1108 636 l 257
 1108 0 l 257
601 472 m 257
 601 636 l 257
 1305 636 l 257
 1305 666 l 257
 -13 666 l 257
 -13 621 l 257
 514 621 l 257
 514 472 l 257
 601 472 l 257
632 68 m 257
 587 5 526 -30 455 -30 c 256
 379 -30 344 14 344 60 c 256
 344 95 367 130 413 142 c 257
 374 182 l 257
 316 165 258 127 258 51 c 256
 258 -30 330 -83 440 -83 c 256
 515 -83 594 -49 657 26 c 257
 632 68 l 257
309 79 m 257
 277 72 250 69 227 69 c 256
 129 69 109 124 109 174 c 256
 109 214 133 237 161 237 c 256
 188 237 202 216 202 188 c 256
 202 152 192 147 192 139 c 256
 192 133 196 132 205 132 c 256
 242 132 271 157 271 201 c 256
 271 246 235 279 165 279 c 256
 86 279 30 229 30 167 c 256
 30 123 52 24 205 24 c 256
 234 24 269 28 310 37 c 257
 309 79 l 257
570 157 m 257
 550 152 528 150 503 150 c 256
 417 150 377 206 377 279 c 256
 377 450 572 460 665 460 c 256
 806 460 867 423 867 371 c 256
 867 326 824 290 754 274 c 257
 754 149 851 71 968 71 c 256
 1108 71 1173 153 1173 155 c 256
 1173 167 1161 182 1151 182 c 256
 1141 182 1082 119 978 119 c 256
 908 119 848 158 839 252 c 257
 909 272 952 321 952 377 c 256
 952 455 870 511 665 511 c 256
 512 511 296 479 296 281 c 256
 296 157 395 95 495 95 c 256
 525 95 552 99 577 107 c 257
 602 -12 694 -121 729 -121 c 256
 748 -121 753 -100 753 -95 c 256
 753 -89 752 -86 741 -76 c 256
 684 -27 643 41 625 126 c 257
 667 150 712 177 712 227 c 256
 712 258 692 290 649 290 c 256
 600 290 570 255 570 157 c 257
526 -124 m 258
 516 -130 513 -134 513 -143 c 256
 513 -170 540 -198 555 -198 c 256
 562 -198 567 -197 580 -186 c 258
 694 -86 l 258
 708 -74 711 -68 711 -61 c 256
 711 -51 701 -36 687 -36 c 256
 682 -36 678 -37 667 -43 c 258
 526 -124 l 258
EndSplineSet
Validated: 5
PickledData: "(dp1
S'com.typemytype.robofont.layerData'
p2
(dp3
S'original'
p4
(dp5
S'name'
p6
S'da_ddha_ra_yadeva'
p7
sS'lib'
p8
(dp9
sS'unicodes'
p10
(tsS'width'
p11
I1284
sS'contours'
p12
(tsS'components'
p13
(tsS'anchors'
p14
(tsssS'com.typemytype.robofont.mark'
p15
(I1
I1
I1
I0
tp16
s."
LCarets2: 3 0 0 0
Ligature2: "Lohit-Devanagari-ConjunctFormslookup11 subtable" dadeva_viramadeva dhadeva_viramadeva_radeva viramadeva yadeva
Ligature2: "Lohit-Devanagari-ConjunctFormslookup11 subtable" dadeva_viramadeva_dhadeva viramadeva_radeva viramadeva yadeva
EndChar

StartChar: dadeva
Encoding: 86 2342 63
Width: 550
VWidth: 0
GlyphClass: 2
Flags: W
HStem: 63 50<199.802 346.397> 95 78<369 400> 445 46<287.809 380>
VStem: 43 86<179.426 338.921> 335 156<85 227.648> 335 65<117.875 173>
AnchorPoint: "Lohit-Devanagari-DVAnchor3" 425 664 basechar 0
AnchorPoint: "Lohit-Devanagari-DVAnchor0" 487 -86 basechar 0
LayerCount: 2
Back
SplineSet
380 213 m 256x78
 380 170 414 135 458 135 c 256
 501 135 536 170 536 213 c 256
 536 257 501 292 458 292 c 256
 414 292 380 257 380 213 c 256x78
478 200 m 257
 440 175 393 161 335 161 c 256
 239 161 174 214 174 292 c 256
 174 364 203 440 511 445 c 257
 511 621 l 257
 608 621 l 257
 608 666 l 257
 32 666 l 257
 32 621 l 257
 425 621 l 257
 425 491 l 257
 215 481 88 417 88 293 c 256
 88 166 212 103 335 103 c 256xb8
 405 103 536 125 536 213 c 257
 478 200 l 257
380 213 m 257x78
 380 84 475 -23 521 -55 c 256
 533.530273438 -63.716796875 539 -64 544 -64 c 256
 556 -64 568 -47 568 -36 c 256
 568 -29 567.034179688 -24.1435546875 555 -13 c 256
 501 37 445 136 445 213 c 257x74
 380 213 l 257x78
380 213 m 256
 380 170 414 135 458 135 c 256
 501 135 536 170 536 213 c 256
 536 257 501 292 458 292 c 256
 414 292 380 257 380 213 c 256
478 200 m 257
 440 175 393 161 335 161 c 256
 239 161 174 214 174 292 c 256
 174 364 203 440 511 445 c 257
 511 621 l 257
 608 621 l 257
 608 666 l 257
 32 666 l 257
 32 621 l 257
 425 621 l 257
 425 491 l 257
 215 481 88 417 88 293 c 256
 88 166 212 103 335 103 c 256
 405 103 536 125 536 213 c 257
 478 200 l 257
380 213 m 261
 380 103 449 30 500 -2 c 260
 513 -10 518 -11 523 -11 c 260
 533 -11 544 6 544 17 c 260
 544 24 543 27 530 37 c 260
 476 79 440 136 440 213 c 261
 380 213 l 261
EndSplineSet
Fore
SplineSet
335 173 m 256x78
 335 130 369 95 413 95 c 256
 456 95 491 130 491 173 c 256
 491 217 456 252 413 252 c 256
 369 252 335 217 335 173 c 256x78
433 152 m 257
 395 127 348 113 290 113 c 256
 194 113 129 171.556640625 129 256 c 256
 129 328 158 440 466 445 c 257
 466 621 l 257
 563 621 l 257
 563 666 l 257
 -13 666 l 257
 -13 621 l 257
 380 621 l 257
 380 491 l 257
 170 481 43 381 43 257 c 256
 43 122.728515625 167 63 290 63 c 256xb8
 360 63 491 85 491 173 c 257
 433 152 l 257
335 173 m 257x78
 335 44 430 -63 476 -95 c 256
 488.530273438 -103.716796875 494 -104 499 -104 c 256
 511 -104 523 -87 523 -76 c 256
 523 -69 522.034179688 -64.1435546875 510 -53 c 256
 456 -3 400 96 400 173 c 257x74
 335 173 l 257x78
EndSplineSet
Validated: 5
PickledData: "(dp1
S'com.typemytype.robofont.layerData'
p2
(dp3
S'original'
p4
(dp5
S'name'
p6
S'dadeva'
p7
sS'lib'
p8
(dp9
sS'unicodes'
p10
(tsS'width'
p11
I541
sS'contours'
p12
((dp13
S'points'
p14
((dp15
S'y'
I213
sS'x'
I387
sS'smooth'
p16
I00
s(dp17
S'y'
I213
sS'x'
I327
sg16
I00
s(dp18
S'segmentType'
p19
S'curve'
p20
sS'x'
I327
sg16
I00
sS'y'
I213
s(dp21
S'y'
I103
sS'x'
I327
sg16
I00
s(dp22
S'y'
I17
sS'x'
I407
sg16
I00
s(dp23
g19
S'curve'
p24
sS'x'
I454
sg16
I01
sS'y'
I-5
s(dp25
S'y'
I-9
sS'x'
I462
sg16
I00
s(dp26
S'y'
I-11
sS'x'
I469
sg16
I00
s(dp27
g19
S'curve'
p28
sS'x'
I474
sg16
I00
sS'y'
I-11
s(dp29
S'y'
I-11
sS'x'
I474
sg16
I00
s(dp30
S'y'
I6
sS'x'
I489
sg16
I00
s(dp31
g19
S'curve'
p32
sS'x'
I489
sg16
I01
sS'y'
I15
s(dp33
S'y'
I22
sS'x'
I489
sg16
I00
s(dp34
S'y'
I26
sS'x'
I490
sg16
I00
s(dp35
g19
S'curve'
p36
sS'x'
I477
sg16
I01
sS'y'
I36
s(dp37
S'y'
I77
sS'x'
I423
sg16
I00
s(dp38
S'y'
I136
sS'x'
I387
sg16
I00
s(dp39
g19
S'curve'
p40
sS'x'
I387
sg16
I00
sS'y'
I213
stp41
stp42
sS'components'
p43
(tsS'anchors'
p44
(tsssS'com.typemytype.robofont.mark'
p45
(F0.75
F1
F1
F1
tp46
s."
EndChar

StartChar: dadeva_rvocalicsigndeva
Encoding: 233 -1 64
Width: 550
VWidth: 0
GlyphClass: 2
Flags: HW
HStem: -358 52<347.028 497.475> -104 49<346.681 417 492 506.908> 63 50<199.802 346.397> 95 78<369 400> 445 46<287.809 380>
VStem: 43 86<179.426 338.921> 234 78<-272.998 -136.127> 335 65<117.875 173> 335 156<85 227.648>
LayerCount: 2
Back
Fore
SplineSet
499 -104 m 262xce
 506 -104 507 -93 507 -83 c 260
 507 -65 505 -55 492 -55 c 262
 410 -55 l 262
 334 -55 234 -104 234 -209 c 260
 234 -305 310 -358 401 -358 c 260
 444 -358 488 -344 532 -321 c 260
 538 -317 540 -313 540 -308 c 260
 540 -295 528 -271 520 -271 c 260
 514 -271 479 -306 410 -306 c 260
 361 -306 312 -276 312 -202 c 260
 312 -133 359 -104 417 -104 c 262
 499 -104 l 262xce
EndSplineSet
Refer: 63 2342 N 1 0 0 1 0 0 2
Validated: 5
PickledData: "(dp1
S'com.typemytype.robofont.layerData'
p2
(dp3
S'original'
p4
(dp5
S'name'
p6
S'dadeva_rvocalicsigndeva'
p7
sS'lib'
p8
(dp9
sS'unicodes'
p10
(tsS'width'
p11
I541
sS'contours'
p12
((dp13
S'points'
p14
((dp15
S'segmentType'
p16
S'line'
p17
sS'x'
I-13
sS'smooth'
p18
I00
sS'y'
I606
s(dp19
g16
S'line'
p20
sS'x'
I-13
sg18
I00
sS'y'
I666
s(dp21
g16
S'line'
p22
sS'x'
I566
sg18
I00
sS'y'
I666
s(dp23
g16
S'line'
p24
sS'x'
I566
sg18
I00
sS'y'
I606
s(dp25
g16
S'line'
p26
sS'x'
I463
sg18
I00
sS'y'
I606
s(dp27
g16
S'line'
p28
sS'x'
I463
sg18
I00
sS'y'
I433
s(dp29
g16
S'line'
p30
sS'x'
I204
sg18
I01
sS'y'
I433
s(dp31
S'y'
F433
sS'x'
F147.72
sg18
I00
s(dp32
S'y'
F390.92000000000002
sS'x'
F104
sg18
I00
s(dp33
g16
S'curve'
p34
sS'x'
I104
sg18
I01
sS'y'
I340
s(dp35
S'y'
F243.52000000000001
sS'x'
F104
sg18
I00
s(dp36
S'y'
F166
sS'x'
F216.30000000000001
sg18
I00
s(dp37
g16
S'curve'
p38
sS'x'
I357
sg18
I00
sS'y'
I166
s(dp39
S'y'
F182.08000000000001
sS'x'
F347.62
sg18
I00
s(dp40
S'y'
F197.25999999999999
sS'x'
F344
sg18
I00
s(dp41
g16
S'curve'
p42
sS'x'
I344
sg18
I01
sS'y'
I212
s(dp43
S'y'
F256.22000000000003
sS'x'
F344
sg18
I00
s(dp44
S'y'
F293
sS'x'
F375.45999999999998
sg18
I00
s(dp45
g16
S'curve'
p46
sS'x'
I417
sg18
I01
sS'y'
I293
s(dp47
S'y'
F293
sS'x'
F457.19999999999999
sg18
I00
s(dp48
S'y'
F263.51999999999998
sS'x'
F490
sg18
I00
s(dp49
g16
S'curve'
p50
sS'x'
I490
sg18
I01
sS'y'
I226
s(dp51
S'y'
F191.16
sS'x'
F490
sg18
I00
s(dp52
S'y'
F155.78
sS'x'
F470.5
sg18
I00
s(dp53
g16
S'curve'
p54
sS'x'
I437
sg18
I00
sS'y'
I133
s(dp55
g16
S'line'
p56
sS'x'
I517
sg18
I00
sS'y'
I-33
s(dp57
g16
S'line'
p58
sS'x'
I357
sg18
I01
sS'y'
I-33
s(dp59
S'y'
F-33
sS'x'
F312.77999999999997
sg18
I00
s(dp60
S'y'
F-71.760000000000005
sS'x'
F277
sg18
I00
s(dp61
g16
S'curve'
p62
sS'x'
F277
sg18
I01
sg6
S'inserted'
p63
sS'y'
F-120
s(dp64
S'y'
F-168.24000000000001
sS'x'
F277
sg18
I00
s(dp65
S'y'
F-206
sS'x'
F319.07999999999998
sg18
I00
s(dp66
g16
S'curve'
p67
sS'x'
I370
sg18
I01
sS'y'
I-206
s(dp68
S'y'
F-206
sS'x'
F414.22000000000003
sg18
I00
s(dp69
S'y'
F-192.80000000000001
sS'x'
F459.48000000000002
sg18
I00
s(dp70
g16
S'curve'
p71
sS'x'
I497
sg18
I00
sS'y'
I-166
s(dp72
g16
S'line'
p73
sS'x'
I517
sg18
I00
sS'y'
I-233
s(dp74
S'y'
F-254.44
sS'x'
F486.18000000000001
sg18
I00
s(dp75
S'y'
F-266
sS'x'
F434.31999999999999
sg18
I00
s(dp76
g16
S'curve'
p77
sS'x'
I370
sg18
I01
sS'y'
I-266
s(dp78
S'y'
F-266
sS'x'
F277.54000000000002
sg18
I00
s(dp79
S'y'
F-201.74000000000001
sS'x'
F204
sg18
I00
s(dp80
g16
S'curve'
p81
sS'x'
F204
sg18
I01
sg6
S'inserted'
p82
sS'y'
F-120
s(dp83
S'y'
F-38.259999999999998
sS'x'
F204
sg18
I00
s(dp84
S'y'
F27
sS'x'
F268.25999999999999
sg18
I00
s(dp85
g16
S'curve'
p86
sS'x'
I350
sg18
I01
sS'y'
I27
s(dp87
g16
S'line'
p88
sS'x'
I410
sg18
I00
sS'y'
I27
s(dp89
g16
S'line'
p90
sS'x'
I370
sg18
I00
sS'y'
I107
s(dp91
S'y'
F107
sS'x'
F185.08000000000001
sg18
I00
s(dp92
S'y'
F211.36000000000001
sS'x'
F37
sg18
I00
s(dp93
g16
S'curve'
p94
sS'x'
I37
sg18
I01
sS'y'
I340
s(dp95
S'y'
F428.44
sS'x'
F37
sg18
I00
s(dp96
S'y'
F499
sS'x'
F110.2
sg18
I00
s(dp97
g16
S'curve'
p98
sS'x'
I204
sg18
I01
sS'y'
I499
s(dp99
g16
S'line'
p100
sS'x'
I397
sg18
I00
sS'y'
I499
s(dp101
g16
S'line'
p102
sS'x'
I397
sg18
I00
sS'y'
I606
stp103
stp104
sS'components'
p105
(tsS'anchors'
p106
(tsssS'com.typemytype.robofont.mark'
p107
(F0.75
F1
F1
F1
tp108
s."
Ligature2: "Lohit-Devanagari-BlwsSub_Ligature_Ukaar subtable" dadeva rvocalicsigndeva
LCarets2: 1 0
EndChar

StartChar: dadeva_viramadeva_badeva
Encoding: 235 -1 66
Width: 676
VWidth: 0
GlyphClass: 2
Flags: HW
HStem: -134 53<179.68 344.603> 63 50<323.802 492.318> 95 78<493 524> 148 47<168 246> 445 46<411.809 504>
VStem: 41 87<-32.4876 104.861> 167 86<197.132 338.921> 459 156<85 227.648> 459 65<117.875 173>
AnchorPoint: "Lohit-Devanagari-DVAnchor0" 611.5 -86 basechar 0
LayerCount: 2
Back
Fore
SplineSet
459 173 m 256xaf
 459 130 493 95 537 95 c 256
 580 95 615 130 615 173 c 256
 615 217 580 252 537 252 c 256
 493 252 459 217 459 173 c 256xaf
557 152 m 257
 519 127 472 113 414 113 c 256
 318 113 253 171.556640625 253 256 c 256
 253 328 282 440 590 445 c 257
 590 621 l 257
 689 621 l 257
 689 666 l 257
 -13 666 l 257
 -13 621 l 257
 504 621 l 257
 504 491 l 257
 294 481 167 381 167 257 c 256
 167 122.728515625 291 63 414 63 c 256xcf
 484 63 615 85 615 173 c 257
 557 152 l 257
459 173 m 257xaf
 459 44 554 -63 600 -95 c 256
 612.530273438 -103.716796875 618 -104 623 -104 c 256
 635 -104 647 -87 647 -76 c 256
 647 -69 646.034179688 -64.1435546875 634 -53 c 256
 580 -3 524 96 524 173 c 257xae80
 459 173 l 257xaf
246 -134 m 256
 351 -134 468 -66 497 103 c 257
 444 103 l 257
 424 -12 355 -81 260 -81 c 256
 169 -81 128 -24 128 33 c 256
 128 90 168 148 239 148 c 256
 246 148 254 160 254 174 c 256
 254 190 251 195 245 195 c 256x9e
 111 195 41 110 41 27 c 256
 41 -54 108 -134 246 -134 c 256
120 107 m 257
 353 -98 l 257
 385 -58 l 257
 154 146 l 257
 120 107 l 257
EndSplineSet
Validated: 5
PickledData: "(dp1
S'com.typemytype.robofont.layerData'
p2
(dp3
S'original'
p4
(dp5
S'name'
p6
S'dadeva_viramadeva_badeva'
p7
sS'lib'
p8
(dp9
sS'unicodes'
p10
(tsS'width'
p11
I549
sS'contours'
p12
(tsS'components'
p13
(tsS'anchors'
p14
(tsssS'com.typemytype.robofont.mark'
p15
(I1
I1
I1
I0
tp16
s."
Ligature2: "Lohit-Devanagari-PreBaseSubstitutionslookup1 subtable" dadeva_viramadeva badeva
Ligature2: "Lohit-Devanagari-ConjunctFormslookup11 subtable" dadeva viramadeva badeva
Ligature2: "Lohit-Devanagari-LocalizedMrHalfFormslookup1 subtable" dadeva viramadeva badeva
LCarets2: 2 0 0
EndChar

StartChar: dadeva_viramadeva_bhadeva
Encoding: 236 -1 67
Width: 849
VWidth: 0
GlyphClass: 2
Flags: HW
HStem: -120 92<238.004 307.049> 0 52<116.352 219.732> 95 78<666 697> 178 52<112.569 215.704>
VStem: 29 70<68.7012 164.187> 315 66<-62.5 2.5> 340 86<187.446 360.391> 632 156<85 227.648> 632 65<117.875 173>
AnchorPoint: "Lohit-Devanagari-DVAnchor0" 784 -86 basechar 0
LayerCount: 2
Back
SplineSet
353 -53 m 257
 665 79 l 257
 644 128 l 257
 332 -5 l 257
 353 -53 l 257
714 165 m 261
 680 144 638 132 586 132 c 260
 490 132 425 186 425 268 c 260
 425 344 480 425 692 431 c 261
 692 621 l 261
 862 621 l 261
 862 666 l 261
 -13 666 l 261
 -13 621 l 261
 606 621 l 261
 606 471 l 261
 471 461 339 396 339 268 c 260
 339 139 463 74 586 74 c 260
 651 74 772 94 772 179 c 261
 714 165 l 261
322 126 m 258
 296 188 256 240 173 240 c 256
 75 240 29 182 29 124 c 256
 29 66 74 10 156 10 c 256
 181 10 231 18 231 36 c 256
 231 42 221 72 212 72 c 256
 211 72 210 71 210 71 c 258
 196 65 182 62 169 62 c 256
 123 62 99 95 99 128 c 256
 99 158 121 188 165 188 c 256
 202 188 224 166 241 123 c 258
 314 -54 l 257
 384 -23 l 257
 322 126 l 258
225 -62 m 256
 239 -94 266 -110 295 -110 c 256
 341 -110 379 -74 379 -31 c 256
 379 21 336 50 312 50 c 256
 307 50 303 49 298 47 c 257
 306 29 309 16 309 7 c 256
 309 -20 283 -20 272 -20 c 256
 265 -20 258 -19 251 -19 c 256
 235 -19 221 -26 221 -43 c 256
 221 -49 223 -55 225 -62 c 256
615 134 m 256
 615 -6 734 -154 774 -154 c 256
 793 -154 798 -133 798 -128 c 256
 798 -122 797 -119 786 -109 c 256
 718 -45 675 53 675 179 c 257
 652 162 643 146 643 134 c 256
 643 114 667 101 693 101 c 256
 737 101 772 135 772 179 c 256
 772 222 737 257 693 257 c 256
 650 257 615 222 615 134 c 256
EndSplineSet
Fore
SplineSet
632 173 m 256xf9
 632 130 666 95 710 95 c 256
 753 95 788 130 788 173 c 256
 788 217 753 252 710 252 c 256
 666 252 632 217 632 173 c 256xf9
730 152 m 257
 692 127 645 113 587 113 c 256
 491 113 426 181.556640625 426 266 c 256
 426 358 455 440 692 445 c 257
 692 621 l 257
 862 621 l 257
 862 666 l 257
 -13 666 l 257
 -13 621 l 257
 606 621 l 257
 606 491 l 257
 467 481 340 431 340 267 c 256xfb
 340 132.728515625 464 63 587 63 c 256
 657 63 788 85 788 173 c 257
 730 152 l 257
632 173 m 257
 632 44 727 -63 773 -95 c 256
 785.530273438 -103.716796875 791 -104 796 -104 c 256
 808 -104 820 -87 820 -76 c 256
 820 -69 819.034179688 -64.1435546875 807 -53 c 256
 753 -3 697 96 697 173 c 257xf880
 632 173 l 257
353 -63 m 257
 665 69 l 257
 644 118 l 257
 332 -15 l 257
 353 -63 l 257
322 116 m 258
 296 178 256 230 173 230 c 256
 75 230 29 172 29 114 c 256
 29 56 74 0 156 0 c 256
 181 0 231 8 231 26 c 256
 231 32 221 62 212 62 c 256
 211 62 210 61 210 61 c 258
 196 55 182 52 169 52 c 256
 123 52 99 85 99 118 c 256
 99 148 121 178 165 178 c 256
 202 178 224 156 241 113 c 258
 314 -64 l 257
 384 -33 l 257
 322 116 l 258
295 -120 m 0
 348 -120 381 -84 381 -41 c 256
 381 11 336 40 312 40 c 256
 307 40 303 39 298 37 c 257
 306 19 315 7 315 -2 c 256xfc
 315 -17 303 -28 282 -28 c 256
 270 -28 250 -24 243 -24 c 256
 227 -24 218 -36 218 -53 c 256
 218 -95 259 -120 295 -120 c 0
EndSplineSet
Validated: 5
PickledData: "(dp1
S'com.typemytype.robofont.layerData'
p2
(dp3
S'original'
p4
(dp5
S'name'
p6
S'dadeva_viramadeva_bhadeva'
p7
sS'lib'
p8
(dp9
sS'unicodes'
p10
(tsS'width'
p11
I617
sS'contours'
p12
(tsS'components'
p13
(tsS'anchors'
p14
(tsssS'com.typemytype.robofont.mark'
p15
(I1
I1
I1
I0
tp16
s."
Ligature2: "Lohit-Devanagari-PreBaseSubstitutionslookup1 subtable" dadeva_viramadeva bhadeva
Ligature2: "Lohit-Devanagari-ConjunctFormslookup11 subtable" dadeva viramadeva bhadeva
Ligature2: "Lohit-Devanagari-LocalizedMrHalfFormslookup1 subtable" dadeva viramadeva bhadeva
LCarets2: 2 0 0
EndChar

StartChar: dadeva_viramadeva_dadeva
Encoding: 237 -1 68
Width: 557
VWidth: 0
GlyphClass: 2
Flags: HW
AnchorPoint: "Lohit-Devanagari-DVAnchor0" 448 -29 basechar 0
LayerCount: 2
Back
Fore
SplineSet
199 310 m 257
 155 323 127 354 127 392 c 256
 127 444 166 468 232 468 c 258
 423 468 l 257
 423 621 l 257
 593 621 l 257
 593 666 l 257
 -13 666 l 257
 -13 621 l 257
 337 621 l 257
 337 519 l 257
 216 519 l 258
 100 519 44 475 44 398 c 256
 44 339 96 289 183 268 c 257
 199 310 l 257
350 361 m 256
 214 361 83 305 83 209 c 256
 83 103 204 50 325 50 c 256
 389 50 511 70 511 155 c 257
 453 141 l 257
 419 120 376 108 325 108 c 256
 232 108 169 148 169 209 c 256
 169 260 205 318 344 318 c 256
 354 318 360 331 360 344 c 256
 360 353 357 361 350 361 c 256
365 114 m 256
 365 28 453 -64 477 -64 c 256
 486 -64 492 -47 492 -38 c 256
 492 -30 493 -26 480 -15 c 256
 446 15 406 93 406 143 c 257
 354 106 384 77 422 77 c 256
 471 77 511 111 511 155 c 256
 511 191 480 221 443 221 c 256
 400 221 365 190 365 114 c 256
EndSplineSet
Validated: 37
PickledData: "(dp1
S'com.typemytype.robofont.layerData'
p2
(dp3
S'original'
p4
(dp5
S'name'
p6
S'dadeva_viramadeva_dadeva'
p7
sS'lib'
p8
(dp9
sS'unicodes'
p10
(tsS'width'
p11
I557
sS'contours'
p12
(tsS'components'
p13
(tsS'anchors'
p14
(tsssS'com.typemytype.robofont.mark'
p15
(I1
I1
I1
I0
tp16
s."
LCarets2: 2 0 0
Ligature2: "Lohit-Devanagari-PreBaseSubstitutionslookup1 subtable" dadeva_viramadeva dadeva
Ligature2: "Lohit-Devanagari-ConjunctFormslookup11 subtable" dadeva viramadeva dadeva
Ligature2: "Lohit-Devanagari-LocalizedMrHalfFormslookup1 subtable" dadeva viramadeva dadeva
EndChar

StartChar: dadeva_viramadeva_dhadeva
Encoding: 238 -1 69
Width: 847
VWidth: 0
GlyphClass: 2
Flags: HW
HStem: -175 53<295.089 471.991> 60 41<300.816 372.994> 63 50<496.802 686.526> 95 78<666 697> 298 42<142.883 228.094> 445 46<584.809 677>
VStem: 43 79<151.579 276.285> 170 86<-86.9891 22.6328> 243 69<187.484 285.534> 340 86<179.426 338.921> 632 156<85 227.648> 632 65<130 173>
AnchorPoint: "Lohit-Devanagari-DVAnchor0" 784 -86 basechar 0
LayerCount: 2
Back
SplineSet
715 165 m 257
 681 144 639 132 587 132 c 256
 491 132 426 186 426 268 c 256
 426 344 481 425 693 431 c 257
 693 621 l 257
 862 621 l 257
 862 666 l 257
 -1 666 l 257
 -1 621 l 257
 607 621 l 257
 607 471 l 257
 472 461 340 396 340 268 c 256
 340 139 464 74 587 74 c 256
 652 74 773 94 773 179 c 257
 715 165 l 257
295 91 m 257
 198 99 122 134 122 213 c 256
 122 267 151 298 186 298 c 256
 224 298 243 267 243 228 c 256
 243 192 233 187 233 179 c 256
 233 174 237 172 246 172 c 256
 283 172 312 197 312 241 c 256
 312 298 271 340 194 340 c 256
 106 340 43 280 43 206 c 256
 43 137 101 66 233 60 c 257
 189 33 170 -4 170 -41 c 256
 170 -122 245 -175 363 -175 c 256
 491 -175 634 -95 669 103 c 257
 616 103 l 257
 590 -38 502 -122 378 -122 c 256
 294 -122 256 -77 256 -32 c 256
 256 11 292 54 358 54 c 256
 365 54 373 66 373 79 c 256
 373 96 371 101 364 101 c 256
 340 101 317 97 295 91 c 257
616 134 m 256
 616 -6 735 -154 775 -154 c 256
 794 -154 799 -133 799 -128 c 256
 799 -122 798 -119 787 -109 c 256
 719 -45 676 53 676 179 c 257
 653 162 644 146 644 134 c 256
 644 114 668 101 694 101 c 256
 738 101 773 135 773 179 c 256
 773 222 738 257 694 257 c 256
 651 257 616 222 616 134 c 256
EndSplineSet
Fore
SplineSet
632 173 m 256x9e60
 632 130 666 95 710 95 c 256
 753 95 788 130 788 173 c 256
 788 217 753 252 710 252 c 256
 666 252 632 217 632 173 c 256x9e60
730 152 m 257
 692 127 645 113 587 113 c 256
 491 113 426 171.556640625 426 256 c 256
 426 328 455 440 763 445 c 257
 763 621 l 257
 860 621 l 257
 860 666 l 257
 -13 666 l 257
 -13 621 l 257
 677 621 l 257
 677 491 l 257
 467 481 340 381 340 257 c 256
 340 122.728515625 464 63 587 63 c 256xae60
 657 63 788 85 788 173 c 257
 730 152 l 257
632 173 m 257x9e60
 632 44 727 -63 773 -95 c 256
 785.530273438 -103.716796875 791 -104 796 -104 c 256
 808 -104 820 -87 820 -76 c 256
 820 -69 819.034179688 -64.1435546875 807 -53 c 256
 753 -3 697 96 697 173 c 257x9e50
 632 173 l 257x9e60
295 91 m 257
 198 99 122 134 122 213 c 256
 122 267 151 298 186 298 c 256
 224 298 243 267 243 228 c 256
 243 192 233 187 233 179 c 256
 233 174 237 172 246 172 c 256
 283 172 312 197 312 241 c 256xcec0
 312 298 271 340 194 340 c 256
 106 340 43 280 43 206 c 256
 43 137 101 66 233 60 c 257
 189 33 170 -4 170 -41 c 256
 170 -122 245 -175 363 -175 c 256
 491 -175 661 -76 696 122 c 257
 643 122 l 257
 617 -19 502 -122 378 -122 c 256
 294 -122 256 -77 256 -32 c 256
 256 11 292 54 358 54 c 256
 365 54 373 66 373 79 c 256
 373 96 371 101 364 101 c 256xcf40
 340 101 317 97 295 91 c 257
EndSplineSet
Validated: 5
PickledData: "(dp1
S'com.typemytype.robofont.layerData'
p2
(dp3
S'original'
p4
(dp5
S'name'
p6
S'dadeva_viramadeva_dhadeva'
p7
sS'lib'
p8
(dp9
sS'unicodes'
p10
(tsS'width'
p11
I732
sS'contours'
p12
(tsS'components'
p13
(tsS'anchors'
p14
(tsssS'com.typemytype.robofont.mark'
p15
(I1
I1
I1
I0
tp16
s."
Ligature2: "Lohit-Devanagari-PreBaseSubstitutionslookup1 subtable" dadeva_viramadeva dhadeva
Ligature2: "Lohit-Devanagari-ConjunctFormslookup11 subtable" dadeva viramadeva dhadeva
Ligature2: "Lohit-Devanagari-LocalizedMrHalfFormslookup1 subtable" dadeva viramadeva dhadeva
LCarets2: 2 0 0
EndChar

StartChar: dadeva_viramadeva_gadeva
Encoding: 239 -1 70
Width: 550
VWidth: 0
GlyphClass: 2
Flags: HW
HStem: -151 78<100.339 139.345> -84 65<142 178> 63 50<221.115 346.397> 95 78<369 400> 445 46<287.809 380>
VStem: 43 86<179.426 338.921> 84 135<-134.994 -70> 335 156<85 227.648> 335 65<117.875 173>
AnchorPoint: "Lohit-Devanagari-DVAnchor0" 487 -86 basechar 0
LayerCount: 2
Back
Fore
SplineSet
335 173 m 256x19
 335 130 369 95 413 95 c 256
 456 95 491 130 491 173 c 256
 491 217 456 252 413 252 c 256
 369 252 335 217 335 173 c 256x19
433 152 m 257
 395 127 348 113 290 113 c 256
 194 113 129 171.556640625 129 256 c 256
 129 328 158 440 466 445 c 257
 466 621 l 257
 563 621 l 257
 563 666 l 257
 -13 666 l 257
 -13 621 l 257
 380 621 l 257
 380 491 l 257
 170 481 43 381 43 257 c 256
 43 122.728515625 167 63 290 63 c 256x2d
 360 63 491 85 491 173 c 257
 433 152 l 257
335 173 m 257x19
 335 44 430 -63 476 -95 c 256
 488.530273438 -103.716796875 494 -104 499 -104 c 256
 511 -104 523 -87 523 -76 c 256
 523 -69 522.034179688 -64.1435546875 510 -53 c 256
 456 -3 400 96 400 173 c 257x1880
 335 173 l 257x19
219 108 m 257x4a
 142 129 l 257
 142 -84 l 257
 219 -84 l 257
 219 108 l 257x4a
84 -84 m 256
 84 -125 114 -151 151 -151 c 256x8a
 188 -151 219 -125 219 -84 c 256
 219 -47 178 -19 142 -19 c 257x4a
 142 -63 132 -73 121 -73 c 256x8a
 111 -73 101 -66 94 -66 c 256
 88 -66 84 -70 84 -84 c 256
EndSplineSet
Validated: 5
PickledData: "(dp1
S'com.typemytype.robofont.layerData'
p2
(dp3
S'original'
p4
(dp5
S'name'
p6
S'dadeva_viramadeva_gadeva'
p7
sS'lib'
p8
(dp9
sS'unicodes'
p10
(tsS'width'
p11
I539
sS'contours'
p12
(tsS'components'
p13
(tsS'anchors'
p14
(tsssS'com.typemytype.robofont.mark'
p15
(I1
I1
I1
I0
tp16
s."
Ligature2: "Lohit-Devanagari-PreBaseSubstitutionslookup1 subtable" dadeva_viramadeva gadeva
Ligature2: "Lohit-Devanagari-ConjunctFormslookup11 subtable" dadeva viramadeva gadeva
Ligature2: "Lohit-Devanagari-LocalizedMrHalfFormslookup1 subtable" dadeva viramadeva gadeva
LCarets2: 2 0 0
EndChar

StartChar: dadeva_viramadeva_ghadeva
Encoding: 240 -1 71
Width: 768
VWidth: 0
GlyphClass: 2
Flags: HW
HStem: -175 53<193.089 378.547> 54 47<185.318 270.858> 63 50<404.802 593.481> 257 49<135.99 248.052> 445 46<492.809 585>
VStem: 22 79<118.595 223.739> 68 86<-86.9891 22.6328> 540 156<85 227.648> 540 65<130 173>
AnchorPoint: "Lohit-Devanagari-DVAnchor0" 692 -86 basechar 0
LayerCount: 2
Back
SplineSet
309 269 m 257
 287 292 248 306 194 306 c 256
 106 306 42 247 42 176 c 256
 42 121 79 81 151 60 c 257
 107 33 88 -4 88 -41 c 256
 88 -122 163 -175 281 -175 c 256
 409 -175 551 -95 587 103 c 257
 534 103 l 257
 508 -38 420 -122 296 -122 c 256
 212 -122 174 -77 174 -32 c 256
 174 11 210 54 276 54 c 256
 283 54 291 66 291 79 c 256
 291 96 289 101 282 101 c 256
 258 101 235 97 213 92 c 257
 167 97 121 115 121 171 c 256
 121 230 179 257 238 257 c 256
 283 257 330 241 352 211 c 258
 309 269 l 257
633 165 m 257
 599 144 557 132 505 132 c 256
 409 132 344 186 344 268 c 256
 344 344 399 425 611 431 c 257
 611 621 l 257
 781 621 l 257
 781 666 l 257
 -13 666 l 257
 -13 621 l 257
 525 621 l 257
 525 471 l 257
 390 461 258 396 258 268 c 256
 258 139 382 74 505 74 c 256
 570 74 691 94 691 179 c 257
 633 165 l 257
534 134 m 256
 534 -6 653 -154 693 -154 c 256
 712 -154 717 -133 717 -128 c 256
 717 -122 716 -119 705 -109 c 256
 637 -45 594 53 594 179 c 257
 571 162 562 146 562 134 c 256
 562 114 586 101 612 101 c 256
 656 101 691 135 691 179 c 256
 691 222 656 257 612 257 c 256
 569 257 534 222 534 134 c 256
EndSplineSet
Fore
SplineSet
540 173 m 256x99
 540 130 574 95 618 95 c 256
 661 95 696 130 696 173 c 256
 696 217 661 252 618 252 c 256
 574 252 540 217 540 173 c 256x99
638 152 m 257
 600 127 553 113 495 113 c 256
 399 113 334 171.556640625 334 256 c 256
 334 328 363 440 671 445 c 257
 671 621 l 257
 781 621 l 257
 781 666 l 257
 -13 666 l 257
 -13 621 l 257
 585 621 l 257
 585 491 l 257
 375 481 248 381 248 257 c 256
 248 122.728515625 372 63 495 63 c 256xb9
 565 63 696 85 696 173 c 257
 638 152 l 257
540 173 m 257
 540 44 635 -63 681 -95 c 256
 693.530273438 -103.716796875 699 -104 704 -104 c 256
 716 -104 728 -87 728 -76 c 256
 728 -69 727.034179688 -64.1435546875 715 -53 c 256
 661 -3 605 96 605 173 c 257x9880
 540 173 l 257
309 279 m 257
 287 292 264 306 184 306 c 256
 86 306 22 247 22 176 c 256xdc
 22 121 59 81 131 60 c 257
 87 33 68 -4 68 -41 c 256
 68 -122 143 -175 261 -175 c 256
 419 -175 570 -62 606 136 c 257
 553 136 l 257
 527 -5 430 -122 276 -122 c 256
 192 -122 154 -77 154 -32 c 256xda
 154 11 190 54 256 54 c 256
 263 54 271 66 271 79 c 256
 271 96 269 101 262 101 c 256
 238 101 215 97 193 92 c 257
 147 97 101 115 101 171 c 256xdc
 101 230 159 257 218 257 c 256
 263 257 310 241 332 211 c 258
 309 279 l 257
EndSplineSet
Validated: 5
PickledData: "(dp1
S'com.typemytype.robofont.layerData'
p2
(dp3
S'original'
p4
(dp5
S'name'
p6
S'dadeva_viramadeva_ghadeva'
p7
sS'lib'
p8
(dp9
sS'unicodes'
p10
(tsS'width'
p11
I665
sS'contours'
p12
(tsS'components'
p13
(tsS'anchors'
p14
(tsssS'com.typemytype.robofont.mark'
p15
(I1
I1
I1
I0
tp16
s."
Ligature2: "Lohit-Devanagari-PreBaseSubstitutionslookup1 subtable" dadeva_viramadeva ghadeva
Ligature2: "Lohit-Devanagari-ConjunctFormslookup11 subtable" dadeva viramadeva ghadeva
Ligature2: "Lohit-Devanagari-LocalizedMrHalfFormslookup1 subtable" dadeva viramadeva ghadeva
LCarets2: 2 0 0
EndChar

StartChar: dadeva_viramadeva_madeva
Encoding: 241 -1 72
Width: 778
VWidth: 0
GlyphClass: 2
Flags: W
HStem: 118 10<347 348 373 382> 242 51<145.248 203 274 331.419> 447 51<148.446 245>
VStem: 44 83<310.486 425.187> 347 86<171 225.617> 382 51<76 118> 602 7<76 128>
LayerCount: 2
Back
Fore
SplineSet
239 95 m 256xf6
 239 37 283 1 336 1 c 256
 388 1 433 37 433 95 c 256
 433 126 373 129 373 129 c 257
 373 129 379 130 348 130 c 256
 307 130 289 141 269 141 c 256
 249 141 239 119 239 95 c 256xf6
602 621 m 257
 602 -146 l 257
 688 -146 l 257
 688 621 l 257
 602 621 l 257
382 76 m 257
 609 76 l 257
 609 128 l 257
 382 128 l 257
 382 76 l 257
274 241 m 258
 328 241 347 213 347 171 c 258
 347 118 l 257xfa
 433 118 l 257xf6
 433 171 l 258xfa
 433 249 377 292 295 293 c 258
 203 293 l 258
 146 294 127 325 127 371 c 256
 127 423 157 447 245 447 c 258
 384 447 l 257
 384 621 l 257
 791 621 l 257
 791 666 l 257
 -13 666 l 257
 -13 621 l 257
 298 621 l 257
 298 498 l 257
 216 498 l 258
 100 498 44 454 44 377 c 256
 44 291 99 243 182 242 c 258
 274 241 l 258
EndSplineSet
Validated: 5
PickledData: "(dp1
S'com.typemytype.robofont.layerData'
p2
(dp3
S'original'
p4
(dp5
S'name'
p6
S'dadeva_viramadeva_madeva'
p7
sS'lib'
p8
(dp9
sS'unicodes'
p10
(tsS'width'
p11
I713
sS'contours'
p12
(tsS'components'
p13
(tsS'anchors'
p14
(tsssS'com.typemytype.robofont.mark'
p15
(I1
I1
I1
I0
tp16
s."
Ligature2: "Lohit-Devanagari-PreBaseSubstitutionslookup1 subtable" dadeva_viramadeva madeva
Ligature2: "Lohit-Devanagari-ConjunctFormslookup11 subtable" dadeva viramadeva madeva
Ligature2: "Lohit-Devanagari-LocalizedMrHalfFormslookup1 subtable" dadeva viramadeva madeva
LCarets2: 2 0 0
EndChar

StartChar: dadeva_viramadeva_nadeva
Encoding: 242 -1 73
Width: 550
VWidth: 0
GlyphClass: 2
Flags: HW
HStem: 63 50<199.802 346.397> 95 78<369 400> 445 46<287.809 380>
VStem: 43 86<179.426 338.921> 97 99<-116.984 -29.771> 335 65<117.875 173> 335 156<85 227.648>
AnchorPoint: "Lohit-Devanagari-DVAnchor0" 487 -86 basechar 0
LayerCount: 2
Back
Fore
SplineSet
244 -125 m 256x28
 244 -102 196 -87 196 -59 c 256
 196 -40 205 -31 230 -16 c 258
 435 101 l 257
 410 147 l 257
 160 4 l 258
 125 -16 97 -47 97 -91 c 256
 97 -142 136 -166 180 -166 c 256
 203 -166 244 -153 244 -125 c 256x28
EndSplineSet
Refer: 63 2342 N 1 0 0 1 0 0 2
Validated: 5
PickledData: "(dp1
S'com.typemytype.robofont.layerData'
p2
(dp3
S'original'
p4
(dp5
S'name'
p6
S'dadeva_viramadeva_nadeva'
p7
sS'lib'
p8
(dp9
sS'unicodes'
p10
(tsS'width'
p11
I575
sS'contours'
p12
(tsS'components'
p13
(tsS'anchors'
p14
(tsssS'com.typemytype.robofont.mark'
p15
(I1
I1
I1
I0
tp16
s."
Ligature2: "Lohit-Devanagari-PreBaseSubstitutionslookup1 subtable" dadeva_viramadeva nadeva
Ligature2: "Lohit-Devanagari-ConjunctFormslookup11 subtable" dadeva viramadeva nadeva
Ligature2: "Lohit-Devanagari-LocalizedMrHalfFormslookup1 subtable" dadeva viramadeva nadeva
LCarets2: 2 0 0
EndChar

StartChar: dadeva_viramadeva_radeva
Encoding: 243 -1 74
Width: 550
VWidth: 0
GlyphClass: 2
Flags: HW
HStem: 63 50<199.802 346.397> 95 78<369 400> 445 46<287.809 380>
VStem: 43 86<179.426 338.921> 335 65<117.875 173> 335 156<85 227.648>
LayerCount: 2
Back
Fore
SplineSet
445 99 m 261x30
 436 129 l 261
 102 -11 l 262
 96 -14 94 -20 94 -27 c 260
 94 -50 122 -92 141 -92 c 260
 144 -92 147 -91 152 -88 c 262
 445 99 l 261x30
EndSplineSet
Refer: 63 2342 N 1 0 0 1 0 0 2
Validated: 5
PickledData: "(dp1
S'com.typemytype.robofont.layerData'
p2
(dp3
S'original'
p4
(dp5
S'name'
p6
S'dadeva_viramadeva_radeva'
p7
sS'lib'
p8
(dp9
sS'unicodes'
p10
(tsS'width'
p11
I541
sS'contours'
p12
((dp13
S'points'
p14
((dp15
S'segmentType'
p16
S'line'
p17
sS'x'
I-13
sS'smooth'
p18
I00
sS'y'
I606
s(dp19
g16
S'line'
p20
sS'x'
I-13
sg18
I00
sS'y'
I666
s(dp21
g16
S'line'
p22
sS'x'
I561
sg18
I00
sS'y'
I666
s(dp23
g16
S'line'
p24
sS'x'
I561
sg18
I00
sS'y'
I606
s(dp25
g16
S'line'
p26
sS'x'
I451
sg18
I00
sS'y'
I606
s(dp27
g16
S'line'
p28
sS'x'
I451
sg18
I00
sS'y'
I433
s(dp29
g16
S'line'
p30
sS'x'
I205
sg18
I01
sS'y'
I433
s(dp31
S'y'
F433
sS'x'
F150.06
sg18
I00
s(dp32
S'y'
F390.92000000000002
sS'x'
F105
sg18
I00
s(dp33
g16
S'curve'
p34
sS'x'
I105
sg18
I01
sS'y'
I340
s(dp35
S'y'
F254.24000000000001
sS'x'
F105
sg18
I00
s(dp36
S'y'
F166
sS'x'
F207.47999999999999
sg18
I00
s(dp37
g16
S'curve'
p38
sS'x'
I312
sg18
I01
sS'y'
I166
s(dp39
S'y'
F166
sS'x'
F329.42000000000002
sg18
I00
s(dp40
S'y'
F168.97999999999999
sS'x'
F343.95999999999998
sg18
I00
s(dp41
g16
S'curve'
p42
sS'x'
I352
sg18
I00
sS'y'
I173
s(dp43
S'y'
F190.41999999999999
sS'x'
F338.60000000000002
sg18
I00
s(dp44
S'y'
F209.91999999999999
sS'x'
F332
sg18
I00
s(dp45
g16
S'curve'
p46
sS'x'
I332
sg18
I01
sS'y'
I226
s(dp47
S'y'
F263.51999999999998
sS'x'
F332
sg18
I00
s(dp48
S'y'
F293
sS'x'
F363.45999999999998
sg18
I00
s(dp49
g16
S'curve'
p50
sS'x'
I405
sg18
I01
sS'y'
I293
s(dp51
S'y'
F293
sS'x'
F445.19999999999999
sg18
I00
s(dp52
S'y'
F260.19999999999999
sS'x'
F478
sg18
I00
s(dp53
g16
S'curve'
p54
sS'x'
I478
sg18
I01
sS'y'
I220
s(dp55
S'y'
F189.18000000000001
sS'x'
F478
sg18
I00
s(dp56
S'y'
F158.75999999999999
sS'x'
F458.5
sg18
I00
s(dp57
g16
S'curve'
p58
sS'x'
I425
sg18
I00
sS'y'
I140
s(dp59
S'y'
F97.120000000000005
sS'x'
F441.07999999999998
sg18
I00
s(dp60
S'y'
F49.579999999999998
sS'x'
F470.80000000000001
sg18
I00
s(dp61
g16
S'curve'
p62
sS'x'
I511
sg18
I00
sS'y'
I0
s(dp63
g16
S'line'
p64
sS'x'
I445
sg18
I00
sS'y'
I-27
s(dp65
S'y'
F7.8399999999999999
sS'x'
F410.16000000000003
sg18
I00
s(dp66
S'y'
F57.020000000000003
sS'x'
F382.12
sg18
I00
s(dp67
g16
S'curve'
p68
sS'x'
I358
sg18
I00
sS'y'
I120
s(dp69
g16
S'line'
p70
sS'x'
I138
sg18
I00
sS'y'
I-53
s(dp71
g16
S'line'
p72
sS'x'
I92
sg18
I00
sS'y'
I-7
s(dp73
g16
S'line'
p74
sS'x'
I258
sg18
I00
sS'y'
I113
s(dp75
S'y'
F149.18000000000001
sS'x'
F128.02000000000001
sg18
I00
s(dp76
S'y'
F239.5
sS'x'
F39
sg18
I00
s(dp77
g16
S'curve'
p78
sS'x'
I39
sg18
I01
sS'y'
I340
s(dp79
S'y'
F428.44
sS'x'
F39
sg18
I00
s(dp80
S'y'
F499
sS'x'
F112.54000000000001
sg18
I00
s(dp81
g16
S'curve'
p82
sS'x'
I205
sg18
I01
sS'y'
I499
s(dp83
g16
S'line'
p84
sS'x'
I385
sg18
I00
sS'y'
I499
s(dp85
g16
S'line'
p86
sS'x'
I385
sg18
I00
sS'y'
I606
stp87
stp88
sS'components'
p89
(tsS'anchors'
p90
(tsssS'com.typemytype.robofont.mark'
p91
(F0.75
F1
F1
F1
tp92
s."
Ligature2: "Lohit-Devanagari-VattuVariantslookup30 subtable" dadeva viramadeva_radeva
LCarets2: 1 0
EndChar

StartChar: dadeva_viramadeva_vadeva
Encoding: 244 -1 75
Width: 676
VWidth: 0
GlyphClass: 2
Flags: HW
HStem: -134 53<179.68 344.603> 63 50<323.802 492.318> 95 78<493 524> 148 47<168 246> 445 46<411.809 504>
VStem: 41 87<-32.4876 103.095> 167 86<197.132 338.921> 459 156<85 227.648> 459 65<117.875 173>
AnchorPoint: "Lohit-Devanagari-DVAnchor0" 611 -86 basechar 0
LayerCount: 2
Back
SplineSet
444 134 m 256
 444 -6 563 -154 603 -154 c 256
 622 -154 627 -133 627 -128 c 256
 627 -122 626 -119 615 -109 c 256
 547 -45 504 53 504 179 c 257
 481 162 472 146 472 134 c 256
 472 114 496 101 522 101 c 256
 566 101 601 135 601 179 c 256
 601 222 566 257 522 257 c 256
 479 257 444 222 444 134 c 256
543 165 m 257
 509 144 466 132 415 132 c 256
 318 132 254 186 254 268 c 256
 254 344 309 425 521 431 c 257
 521 621 l 257
 689 621 l 257
 689 666 l 257
 -13 666 l 257
 -13 621 l 257
 434 621 l 257
 434 471 l 257
 300 461 168 396 168 268 c 256
 168 139 292 74 415 74 c 256
 479 74 601 94 601 179 c 257
 543 165 l 257
246 -134 m 256
 351 -134 468 -66 497 103 c 257
 444 103 l 257
 424 -12 355 -81 260 -81 c 256
 169 -81 128 -24 128 33 c 256
 128 90 168 148 239 148 c 256
 246 148 254 160 254 174 c 256
 254 190 251 195 245 195 c 256
 111 195 41 110 41 27 c 256
 41 -54 108 -134 246 -134 c 256
EndSplineSet
Fore
SplineSet
459 173 m 256xaf
 459 130 493 95 537 95 c 256
 580 95 615 130 615 173 c 256
 615 217 580 252 537 252 c 256
 493 252 459 217 459 173 c 256xaf
557 152 m 257
 519 127 472 113 414 113 c 256
 318 113 253 171.556640625 253 256 c 256
 253 328 282 440 590 445 c 257
 590 621 l 257
 689 621 l 257
 689 666 l 257
 -13 666 l 257
 -13 621 l 257
 504 621 l 257
 504 491 l 257
 294 481 167 381 167 257 c 256
 167 122.728515625 291 63 414 63 c 256xcf
 484 63 615 85 615 173 c 257
 557 152 l 257
459 173 m 257xaf
 459 44 554 -63 600 -95 c 256
 612.530273438 -103.716796875 618 -104 623 -104 c 256
 635 -104 647 -87 647 -76 c 256
 647 -69 646.034179688 -64.1435546875 634 -53 c 256
 580 -3 524 96 524 173 c 257xae80
 459 173 l 257xaf
246 -134 m 256
 351 -134 468 -66 497 103 c 257
 444 103 l 257
 424 -12 355 -81 260 -81 c 256
 169 -81 128 -24 128 33 c 256
 128 90 168 148 239 148 c 256
 246 148 254 160 254 174 c 256
 254 190 251 195 245 195 c 256x9e
 111 195 41 110 41 27 c 256
 41 -54 108 -134 246 -134 c 256
EndSplineSet
Validated: 5
PickledData: "(dp1
S'com.typemytype.robofont.layerData'
p2
(dp3
S'original'
p4
(dp5
S'name'
p6
S'dadeva_viramadeva_vadeva'
p7
sS'lib'
p8
(dp9
sS'unicodes'
p10
(tsS'width'
p11
I559
sS'contours'
p12
(tsS'components'
p13
(tsS'anchors'
p14
(tsssS'com.typemytype.robofont.mark'
p15
(I1
I1
I1
I0
tp16
s."
Ligature2: "Lohit-Devanagari-PreBaseSubstitutionslookup1 subtable" dadeva_viramadeva vadeva
Ligature2: "Lohit-Devanagari-ConjunctFormslookup11 subtable" dadeva viramadeva vadeva
Ligature2: "Lohit-Devanagari-LocalizedMrHalfFormslookup1 subtable" dadeva viramadeva vadeva
LCarets2: 2 0 0
EndChar

StartChar: dadeva_viramadeva_yadeva
Encoding: 245 -1 76
Width: 714
VWidth: 0
GlyphClass: 2
Flags: W
LayerCount: 2
Back
Fore
SplineSet
538 621 m 257
 538 0 l 257
 624 0 l 257
 624 621 l 257
 538 621 l 257
254 282 m 257
 275 333 l 257
 213 333 l 258
 156 333 137 365 137 411 c 256
 137 463 167 487 255 487 c 258
 364 487 l 257
 364 621 l 257
 727 621 l 257
 727 666 l 257
 -13 666 l 257
 -13 621 l 257
 278 621 l 257
 278 538 l 257
 226 538 l 258
 110 538 54 494 54 417 c 256
 54 331 109 282 192 282 c 258
 254 282 l 257
150 203 m 256
 150 114 225 54 335 54 c 256
 403 54 485 93 538 153 c 257
 538 211 l 257
 491 154 434 107 345 107 c 256
 273 107 236 159 236 211 c 256
 236 263 281 315 370 315 c 256
 381 315 393 314 401 314 c 256
 410 314 416 326 416 339 c 256
 416 349 413 355 407 356 c 256
 388 359 370 361 353 361 c 256
 268 361 150 315 150 203 c 256
EndSplineSet
Validated: 5
PickledData: "(dp1
S'com.typemytype.robofont.layerData'
p2
(dp3
S'original'
p4
(dp5
S'name'
p6
S'dadeva_viramadeva_yadeva'
p7
sS'lib'
p8
(dp9
sS'unicodes'
p10
(tsS'width'
p11
I715
sS'contours'
p12
(tsS'components'
p13
(tsS'anchors'
p14
(tsssS'com.typemytype.robofont.mark'
p15
(I1
I1
I1
I0
tp16
s."
LCarets2: 2 0 0
Ligature2: "Lohit-Devanagari-PreBaseSubstitutionslookup1 subtable" dadeva_viramadeva yadeva
Ligature2: "Lohit-Devanagari-ConjunctFormslookup11 subtable" dadeva viramadeva yadeva
Ligature2: "Lohit-Devanagari-LocalizedMrHalfFormslookup1 subtable" dadeva viramadeva yadeva
EndChar

StartChar: danda
Encoding: 148 2404 77
Width: 356
VWidth: 0
GlyphClass: 2
Flags: W
LayerCount: 2
Back
Fore
SplineSet
180 0 m 257
 180 666 l 257
 266 666 l 257
 266 0 l 257
 180 0 l 257
EndSplineSet
Validated: 1
PickledData: "(dp1
S'com.typemytype.robofont.layerData'
p2
(dp3
S'original'
p4
(dp5
S'name'
p6
S'danda'
p7
sS'lib'
p8
(dp9
sS'unicodes'
p10
(tsS'width'
p11
I366
sS'contours'
p12
(tsS'components'
p13
(tsS'anchors'
p14
(tsssS'com.typemytype.robofont.mark'
p15
(I1
I1
I1
I0
tp16
s."
EndChar

StartChar: dbldanda
Encoding: 149 2405 78
Width: 569
VWidth: 0
GlyphClass: 2
Flags: W
LayerCount: 2
Back
Fore
SplineSet
393 0 m 257
 393 666 l 257
 479 666 l 257
 479 0 l 257
 393 0 l 257
180 0 m 257
 180 666 l 257
 266 666 l 257
 266 0 l 257
 180 0 l 257
EndSplineSet
Validated: 1
PickledData: "(dp1
S'com.typemytype.robofont.layerData'
p2
(dp3
S'original'
p4
(dp5
S'name'
p6
S'dbldanda'
p7
sS'lib'
p8
(dp9
sS'unicodes'
p10
(tsS'width'
p11
I579
sS'contours'
p12
(tsS'components'
p13
(tsS'anchors'
p14
(tsssS'com.typemytype.robofont.mark'
p15
(I1
I1
I1
I0
tp16
s."
EndChar

StartChar: ddadeva
Encoding: 81 2337 79
Width: 631
VWidth: 0
GlyphClass: 2
Flags: W
AnchorPoint: "Lohit-Devanagari-DVAnchor3" 495 664 basechar 0
AnchorPoint: "Lohit-Devanagari-DVAnchor0" 378 45 basechar 0
LayerCount: 2
Back
Fore
SplineSet
377 73 m 256
 229 73 113 177 88 305 c 256
 87 311 82 315 70 315 c 256
 57 315 43 309 43 298 c 256
 43 213 165 15 377 15 c 256
 466 15 594 57 594 174 c 256
 594 268 505 324 410 324 c 256
 365 324 343 318 307 306 c 257
 270 317 246 341 246 382 c 256
 246 423 268 447 324 447 c 258
 534 447 l 257
 534 621 l 257
 644 621 l 257
 644 666 l 257
 -13 666 l 257
 -13 621 l 257
 448 621 l 257
 448 498 l 257
 298 498 l 258
 203 498 163 453 163 389 c 256
 163 321 215 263 303 253 c 257
 332 265 366 272 391 272 c 256
 464 272 509 234 509 177 c 256
 509 114 452 73 377 73 c 256
EndSplineSet
Validated: 9
PickledData: "(dp1
S'com.typemytype.robofont.layerData'
p2
(dp3
S'original'
p4
(dp5
S'name'
p6
S'ddadeva'
p7
sS'lib'
p8
(dp9
sS'unicodes'
p10
(tsS'width'
p11
I631
sS'contours'
p12
((dp13
S'points'
p14
((dp15
S'segmentType'
p16
S'curve'
p17
sS'x'
I385
sS'smooth'
p18
I01
sS'y'
I13
s(dp19
S'y'
F13
sS'x'
F244.30000000000001
sg18
I00
s(dp20
S'y'
F126.44
sS'x'
F102.08
sg18
I00
s(dp21
g16
S'curve'
p22
sS'x'
I19
sg18
I00
sS'y'
I306
s(dp23
g16
S'line'
p24
sS'x'
I72
sg18
I00
sS'y'
I340
s(dp25
S'y'
F180.53999999999999
sS'x'
F147.03999999999999
sg18
I00
s(dp26
S'y'
F80
sS'x'
F267.07999999999998
sg18
I00
s(dp27
g16
S'curve'
p28
sS'x'
I385
sg18
I01
sS'y'
I80
s(dp29
S'y'
F80
sS'x'
F457.36000000000001
sg18
I00
s(dp30
S'y'
F142.28
sS'x'
F518
sg18
I00
s(dp31
g16
S'curve'
p32
sS'x'
I518
sg18
I01
sS'y'
I220
s(dp33
S'y'
F241.44
sS'x'
F518
sg18
I00
s(dp34
S'y'
F260
sS'x'
F502.42000000000002
sg18
I00
s(dp35
g16
S'curve'
p36
sS'x'
I485
sg18
I01
sS'y'
I260
s(dp37
S'y'
F260
sS'x'
F455.51999999999998
sg18
I00
s(dp38
S'y'
F233
sS'x'
F393.13999999999999
sg18
I00
s(dp39
g16
S'curve'
p40
sS'x'
I365
sg18
I01
sS'y'
I233
s(dp41
S'y'
F233
sS'x'
F296.66000000000003
sg18
I00
s(dp42
S'y'
F343.31999999999999
sS'x'
F192
sg18
I00
s(dp43
g16
S'curve'
p44
sS'x'
I192
sg18
I01
sS'y'
I413
s(dp45
S'y'
F461.24000000000001
sS'x'
F192
sg18
I00
s(dp46
S'y'
F499
sS'x'
F229.75999999999999
sg18
I00
s(dp47
g16
S'curve'
p48
sS'x'
I278
sg18
I01
sS'y'
I499
s(dp49
g16
S'line'
p50
sS'x'
I458
sg18
I00
sS'y'
I499
s(dp51
g16
S'line'
p52
sS'x'
I458
sg18
I00
sS'y'
I606
s(dp53
g16
S'line'
p54
sS'x'
I-13
sg18
I00
sS'y'
I606
s(dp55
g16
S'line'
p56
sS'x'
I-13
sg18
I00
sS'y'
I666
s(dp57
g16
S'line'
p58
sS'x'
I644
sg18
I00
sS'y'
I666
s(dp59
g16
S'line'
p60
sS'x'
I644
sg18
I00
sS'y'
I606
s(dp61
g16
S'line'
p62
sS'x'
I525
sg18
I00
sS'y'
I606
s(dp63
g16
S'line'
p64
sS'x'
I525
sg18
I00
sS'y'
I433
s(dp65
g16
S'line'
p66
sS'x'
I278
sg18
I01
sS'y'
I433
s(dp67
S'y'
F433
sS'x'
F267.27999999999997
sg18
I00
s(dp68
S'y'
F423.72000000000003
sS'x'
F258
sg18
I00
s(dp69
g16
S'curve'
p70
sS'x'
I258
sg18
I01
sS'y'
I413
s(dp71
S'y'
F375.48000000000002
sS'x'
F258
sg18
I00
s(dp72
S'y'
F300
sS'x'
F328.81999999999999
sg18
I00
s(dp73
g16
S'curve'
p74
sS'x'
I365
sg18
I01
sS'y'
I300
s(dp75
S'y'
F300
sS'x'
F393.13999999999999
sg18
I00
s(dp76
S'y'
F326
sS'x'
F455.51999999999998
sg18
I00
s(dp77
g16
S'curve'
p78
sS'x'
I485
sg18
I01
sS'y'
I326
s(dp79
S'y'
F326
sS'x'
F539.94000000000005
sg18
I00
s(dp80
S'y'
F278.95999999999998
sS'x'
F585
sg18
I00
s(dp81
g16
S'curve'
p82
sS'x'
I585
sg18
I01
sS'y'
I220
s(dp83
S'y'
F104.76000000000001
sS'x'
F585
sg18
I00
s(dp84
S'y'
F13
sS'x'
F494.88
sg18
I00
stp85
stp86
sS'components'
p87
(tsS'anchors'
p88
((dp89
S'y'
F664
sS'x'
F495
sg6
S'DVAnchor3'
p90
s(dp91
S'y'
F45
sS'x'
F378
sg6
S'DVAnchor0'
p92
stp93
sssS'com.typemytype.robofont.mark'
p94
(F0.75
F1
F1
F1
tp95
s."
EndChar

StartChar: ddadeva_viramadeva_ddadeva
Encoding: 247 -1 81
Width: 674
VWidth: 0
GlyphClass: 2
Flags: HW
AnchorPoint: "Lohit-Devanagari-DVAnchor0" 423 -120 basechar 0
LayerCount: 2
Back
Fore
SplineSet
409 202 m 256
 253 202 131 307 105 434 c 256
 103 440 99 444 87 444 c 256
 74 444 60 439 60 427 c 256
 60 343 192 145 424 145 c 256
 506 145 625 177 625 269 c 256
 625 342 542 385 451 385 c 256
 402 385 379 381 338 370 c 257
 301 381 277 407 277 438 c 256
 277 482 307 503 395 503 c 258
 566 503 l 257
 566 621 l 257
 687 621 l 257
 687 666 l 257
 -13 666 l 257
 -13 621 l 257
 479 621 l 257
 479 554 l 257
 366 554 l 258
 250 554 194 510 194 445 c 256
 194 393 247 349 335 331 c 257
 366 341 404 346 432 346 c 256
 499 346 540 319 540 278 c 256
 540 232 483 202 409 202 c 256
234 231 m 257
 207 212 194 186 194 154 c 256
 194 102 247 58 335 40 c 257
 366 50 404 55 432 55 c 256
 499 55 540 28 540 -13 c 256
 540 -59 483 -89 409 -89 c 256
 253 -89 131 16 105 143 c 256
 103 149 99 153 87 153 c 256
 74 153 60 148 60 136 c 256
 60 52 192 -146 424 -146 c 256
 506 -146 625 -114 625 -22 c 256
 625 51 542 94 451 94 c 256
 402 94 379 90 338 79 c 257
 301 90 277 116 277 147 c 256
 277 168 283 183 299 194 c 257
 234 231 l 257
EndSplineSet
Validated: 5
PickledData: "(dp1
S'com.typemytype.robofont.layerData'
p2
(dp3
S'original'
p4
(dp5
S'name'
p6
S'ddadeva_viramadeva_ddadeva'
p7
sS'lib'
p8
(dp9
sS'unicodes'
p10
(tsS'width'
p11
I644
sS'contours'
p12
(tsS'components'
p13
(tsS'anchors'
p14
(tsssS'com.typemytype.robofont.mark'
p15
(I1
I1
I1
I0
tp16
s."
LCarets2: 2 0 0
Ligature2: "Lohit-Devanagari-PreBaseSubstitutionslookup1 subtable" ddadeva_viramadeva ddadeva
Ligature2: "Lohit-Devanagari-LocalizedMrHalfFormslookup1 subtable" ddadeva viramadeva ddadeva
EndChar

StartChar: ddadeva_viramadeva_ddhadeva
Encoding: 248 -1 82
Width: 674
VWidth: 0
GlyphClass: 2
Flags: HW
HStem: -146 44<238.312 443.334> 71 36.96<357.927 465.022> 150 86<253 425> 179 31<339 425> 373 39<338.184 513.61> 523 143<307 395> 523 51<294.274 395>
VStem: 60 45<404.887 477.762> 78 87<-44.9961 73.2074> 194 83<418.002 506.155> 262 77<-39.9752 55.403> 492 81<-60.5906 49.3113> 540 85<267.704 351.693>
AnchorPoint: "Lohit-Devanagari-DVAnchor0" 341 -120 basechar 0
LayerCount: 2
Back
SplineSet
409 236 m 256
 253 236 131 341 105 468 c 256
 103 473 99 478 87 478 c 256
 74 478 60 473 60 461 c 256
 60 377 192 179 424 179 c 256
 506 179 625 211 625 303 c 256
 625 371 542 412 451 412 c 256
 402 412 379 408 338 397 c 257
 301 408 277 434 277 465 c 256
 277 504 307 523 395 523 c 258
 566 523 l 257
 566 621 l 257
 687 621 l 257
 687 666 l 257
 -13 666 l 257
 -13 621 l 257
 479 621 l 257
 479 574 l 257
 366 574 l 258
 250 574 194 533 194 472 c 256
 194 420 247 376 335 358 c 257
 366 367 404 373 432 373 c 256
 499 373 540 349 540 312 c 256
 540 266 483 236 409 236 c 256
425 228 m 257
 339 228 l 257
 339 168 l 257
 207 158 78 104 78 7 c 256
 78 -95 210 -146 341 -146 c 256
 483 -146 573 -93 573 -18 c 256
 573 36 525 88 420 88 c 256
 315 88 263 36 263 -19 c 256
 263 -50 274 -78 298 -103 c 257
 228 -95 165 -57 165 11 c 256
 165 69 219 130 425 134 c 257
 425 228 l 257
359 -102 m 257
 346 -80 340 -61 340 -36 c 256
 340 20 382 48 422 48 c 256
 458 48 492 25 492 -23 c 256
 492 -70 441 -100 359 -102 c 257
EndSplineSet
Fore
SplineSet
78 7 m 256xd8b0
 77.9999955628 -95 210 -146 341 -146 c 256
 483 -146 573 -81 573 -6 c 256
 573 48 536 107.959960938 413 107.959960938 c 256
 340 107.959960938 262 79.51953125 262 10 c 256
 262 -46.880859375 325 -69 357 -69 c 256
 365 -69 374 -67.4208984375 374 -61.1005859375 c 256
 374 -51.6201171875 339 -41.3505859375 339 12.369140625 c 256
 339 51 373 71 412 71 c 256
 459 71 492 40 492 -8 c 256
 492 -71 423 -102 338 -102 c 256
 250 -102 165 -57 165 11 c 256
 165 76 219 145 425 150 c 257xe8b0
 425 210 l 257
 339 210 l 257
 339 190 l 257
 207.000000709 177.828161926 78.0000044643 109.624940588 78 7 c 256xd8b0
409 236 m 256
 253 236 131 341 105 468 c 256
 103 473 99 478 87 478 c 256
 74 478 60 473 60 461 c 256
 60 377 192 179 424 179 c 256
 506 179 625 211 625 303 c 256
 625 371 542 412 451 412 c 256
 402 412 379 408 338 397 c 257
 301 408 277 434 277 465 c 256
 277 504 307 523 395 523 c 258xdd48
 566 523 l 257xcb48
 566 621 l 257
 687 621 l 257
 687 666 l 257
 -13 666 l 257xcd48
 -13 621 l 257
 479 621 l 257
 479 574 l 257
 366 574 l 258
 250 574 194 533 194 472 c 256
 194 420 247 376 335 358 c 257
 366 367 404 373 432 373 c 256
 499 373 540 349 540 312 c 256xcb48
 540 266 483 236 409 236 c 256
EndSplineSet
Validated: 37
PickledData: "(dp1
S'com.typemytype.robofont.layerData'
p2
(dp3
S'original'
p4
(dp5
S'name'
p6
S'ddadeva_viramadeva_ddhadeva'
p7
sS'lib'
p8
(dp9
sS'unicodes'
p10
(tsS'width'
p11
I628
sS'contours'
p12
(tsS'components'
p13
(tsS'anchors'
p14
(tsssS'com.typemytype.robofont.mark'
p15
(I1
I1
I1
I0
tp16
s."
Ligature2: "Lohit-Devanagari-PreBaseSubstitutionslookup1 subtable" ddadeva_viramadeva ddhadeva
Ligature2: "Lohit-Devanagari-LocalizedMrHalfFormslookup1 subtable" ddadeva viramadeva ddhadeva
LCarets2: 2 0 0
EndChar

StartChar: ddadeva_viramadeva_yadeva
Encoding: 249 -1 83
Width: 1237
VWidth: 0
GlyphClass: 2
Flags: W
LayerCount: 2
Back
Fore
SplineSet
396 57 m 256
 240 57 118 162 92 290 c 256
 90 296 86 300 74 300 c 256
 61 300 47 294 47 283 c 256
 47 198 174 0 396 0 c 256
 484 0 612 42 612 159 c 256
 612 253 524 308 428 308 c 256
 383 308 362 303 325 291 c 257
 288 304 264 333 264 371 c 256
 264 423 294 447 382 447 c 258
 553 447 l 257
 553 621 l 257
 1250 621 l 257
 1250 666 l 257
 -13 666 l 257
 -13 621 l 257
 466 621 l 257
 466 498 l 257
 353 498 l 258
 237 498 181 454 181 377 c 256
 181 314 234 260 322 238 c 257
 350 250 384 257 409 257 c 256
 482 257 527 219 527 162 c 256
 527 99 470 57 396 57 c 256
698 274 m 257
 698 149 795 71 913 71 c 256
 993 71 1051 100 1085 123 c 256
 1114 143 1118 150 1118 155 c 256
 1118 167 1106 182 1095 182 c 256
 1085 182 1026 119 923 119 c 256
 852 119 792 158 783 252 c 257
 854 272 896 321 896 377 c 256
 896 454 841 498 725 498 c 258
 553 498 l 257
 553 447 l 257
 696 447 l 258
 784 447 814 423 814 371 c 256
 814 326 768 290 698 274 c 257
1053 0 m 257
 1139 0 l 257
 1139 636 l 257
 1053 636 l 257
 1053 0 l 257
EndSplineSet
Validated: 5
PickledData: "(dp1
S'com.typemytype.robofont.layerData'
p2
(dp3
S'original'
p4
(dp5
S'name'
p6
S'ddadeva_viramadeva_yadeva'
p7
sS'lib'
p8
(dp9
sS'unicodes'
p10
(tsS'width'
p11
I1222
sS'contours'
p12
(tsS'components'
p13
(tsS'anchors'
p14
(tsssS'com.typemytype.robofont.mark'
p15
(I1
I1
I1
I0
tp16
s."
Ligature2: "Lohit-Devanagari-PreBaseSubstitutionslookup1 subtable" ddadeva_viramadeva yadeva
Ligature2: "Lohit-Devanagari-LocalizedMrHalfFormslookup1 subtable" ddadeva viramadeva yadeva
LCarets2: 2 0 0
EndChar

StartChar: dddadeva
Encoding: 173 2430 84
Width: 631
VWidth: 0
GlyphClass: 2
Flags: HW
AnchorPoint: "Lohit-Devanagari-DVAnchor3" 491 664 basechar 0
LayerCount: 2
Back
Fore
SplineSet
0 -45 m 257
 0 0 l 257
 632 0 l 257
 632 -45 l 257
 0 -45 l 257
EndSplineSet
Refer: 79 2337 N 1 0 0 1 0 0 2
Validated: 9
PickledData: "(dp1
S'com.typemytype.robofont.layerData'
p2
(dp3
S'original'
p4
(dp5
S'name'
p6
S'dddadeva'
p7
sS'lib'
p8
(dp9
sS'unicodes'
p10
(tsS'width'
p11
I631
sS'contours'
p12
(tsS'components'
p13
(tsS'anchors'
p14
(tsssS'com.typemytype.robofont.mark'
p15
(F1
F0
F0
F1
tp16
s."
EndChar

StartChar: ddhadeva
Encoding: 82 2338 86
Width: 592
VWidth: 0
GlyphClass: 2
Flags: W
HStem: 20 43<222.931 406.395> 281 47<329.656 442.119> 621 45<-13 313 400 605>
VStem: 53 86<143.942 325.565> 233 77<134.938 260.882> 313 87<476.876 621> 467 81<118.519 256.071>
AnchorPoint: "Lohit-Devanagari-DVAnchor3" 357 664 basechar 0
AnchorPoint: "Lohit-Devanagari-DVAnchor0" 314 47 basechar 0
LayerCount: 2
Back
SplineSet
315 20 m 256
 458 20 548 89 548 188 c 256
 548 261 499 328 394 328 c 256
 289 328 237 257 237 182 c 256
 237 139 249 102 273 67 c 257
 202 79 139 134 139 233 c 256
 139 330 194 431 400 439 c 257
 400 621 l 257
 605 621 l 257
 605 666 l 257
 -13 666 l 257
 -13 621 l 257
 313 621 l 257
 313 479 l 257
 182 467 53 389 53 234 c 256
 53 91 184 20 315 20 c 256
333 66 m 257
 320 99 314 129 314 167 c 256
 314 237 351 281 400 281 c 256
 439 281 467 246 467 189 c 256
 467 116 415 68 333 66 c 257
EndSplineSet
Fore
SplineSet
310 205 m 256
 310 147 334 128 334 116 c 256
 334 108 325 106 317 106 c 256
 285 106 233 130 233 202 c 256
 233 286 304 328 383 328 c 256
 488 328 548 261 548 188 c 256
 548 89 458 20 315 20 c 256
 184 20 53 91 53 234 c 256
 53 389 182 467 313 479 c 257
 313 621 l 257
 -13 621 l 257
 -13 666 l 257
 605 666 l 257
 605 621 l 257
 400 621 l 257
 400 439 l 257
 194 431 139 330 139 233 c 256
 139 134 202 63 318 63 c 256
 412 63 467 116 467 189 c 256
 467 246 437 281 386 281 c 256
 331 281 310 241 310 205 c 256
EndSplineSet
Validated: 1
PickledData: "(dp1
S'com.typemytype.robofont.layerData'
p2
(dp3
S'original'
p4
(dp5
S'name'
p6
S'ddhadeva'
p7
sS'lib'
p8
(dp9
sS'unicodes'
p10
(tsS'width'
p11
I579
sS'contours'
p12
(tsS'components'
p13
(tsS'anchors'
p14
(tsssS'com.typemytype.robofont.mark'
p15
(I1
I1
I1
I0
tp16
s."
EndChar

StartChar: ddhadeva_viramadeva_ddhadeva
Encoding: 251 -1 88
Width: 592
VWidth: 0
GlyphClass: 2
Flags: HW
HStem: -146 44<212.312 417.334> 71 36.96<331.927 439.022> 225 25<313 399> 442 36.96<331.927 439.022> 521 145<313.196 399> 621 45<-13 313 399 605>
VStem: 52 87<-45.1682 73.0698 325.832 444.07> 236 77<-39.9752 55.403 331.025 426.403> 313 86<188.117 250 559.117 621> 466 81<-60.5906 49.3113 310.409 420.311>
AnchorPoint: "Lohit-Devanagari-DVAnchor0" 315 -120 basechar 0
LayerCount: 2
Back
Fore
SplineSet
52 7 m 256xf340
 52 117 181 179 313 190 c 257
 313 250 l 257
 399 250 l 257
 399 150 l 257xf2c0
 193 145 139 76 139 11 c 256
 139 -57 224 -102 312 -102 c 256
 397 -102 466 -71 466 -8 c 256
 466 40 433 71 386 71 c 256
 347 71 313 51 313 12.369140625 c 256
 313 -41.3505859375 348 -51.6201171875 348 -61.1005859375 c 256
 348 -67.4208984375 339 -69 331 -69 c 256
 299 -69 236 -46.880859375 236 10 c 256
 236 79.51953125 314 107.959960938 387 107.959960938 c 256
 510 107.959960938 547 48 547 -6 c 256
 547 -81 457 -146 315 -146 c 256
 184 -146 52 -95 52 7 c 256xf340
386 442 m 256
 347 442 313 422 313 383.369140625 c 256
 313 329.649414062 348 319.379882812 348 309.899414062 c 256
 348 303.579101562 339 302 331 302 c 256
 299 302 236 324.119140625 236 381 c 256xfb40
 236 450.51953125 314 478.959960938 387 478.959960938 c 256
 510 478.959960938 547 419 547 365 c 256
 547 290 457 225 315 225 c 256
 184 225 52 276 52 378 c 256
 52 488 181 550 313 561 c 257
 313 621 l 257
 -13 621 l 257
 -13 666 l 257
 605 666 l 257
 605 621 l 257
 399 621 l 257xf6c0
 399 521 l 257xfac0
 193 516 139 447 139 382 c 256
 139 314 224 269 312 269 c 256
 397 269 466 300 466 363 c 256
 466 411 433 442 386 442 c 256
EndSplineSet
Validated: 5
PickledData: "(dp1
S'com.typemytype.robofont.layerData'
p2
(dp3
S'original'
p4
(dp5
S'name'
p6
S'ddhadeva_viramadeva_ddhadeva'
p7
sS'lib'
p8
(dp9
sS'unicodes'
p10
(tsS'width'
p11
I596
sS'contours'
p12
(tsS'components'
p13
(tsS'anchors'
p14
(tsssS'com.typemytype.robofont.mark'
p15
(I1
I1
I1
I0
tp16
s."
Ligature2: "Lohit-Devanagari-PreBaseSubstitutionslookup1 subtable" ddhadeva_viramadeva ddhadeva
Ligature2: "Lohit-Devanagari-LocalizedMrHalfFormslookup1 subtable" ddhadeva viramadeva ddhadeva
LCarets2: 2 0 0
EndChar

StartChar: ddhadeva_viramadeva_yadeva
Encoding: 252 -1 89
Width: 1174
VWidth: 0
GlyphClass: 2
Flags: W
HStem: 47 43<206.931 390.395> 52 47<780.382 960.724> 308 47<313.656 426.119> 467 199<163 313 634 721> 467 51<215.49 313 634 711.996>
VStem: 37 86<170.942 369.181> 217 77<161.938 287.882> 395 4<467 518> 451 81<145.519 283.071> 751 83<304.976 429.281>
LayerCount: 2
Back
SplineSet
636 255 m 257
 636 130 732 52 850 52 c 256
 930 52 988 81 1022 104 c 256
 1051 124 1055 131 1055 136 c 256
 1055 147 1043 163 1032 163 c 256
 1022 163 963 99 860 99 c 256
 789 99 730 139 720 233 c 257
 791 255 834 306 834 366 c 256
 834 450 778 518 662 518 c 258
 395 518 l 257
 395 467 l 257
 634 467 l 258
 721 467 751 419 751 360 c 256
 751 311 706 272 636 255 c 257
990 0 m 257
 1076 0 l 257
 1076 636 l 257
 990 636 l 257
 990 0 l 257
315 20 m 256
 457 20 547 89 547 188 c 256
 547 261 499 328 394 328 c 256
 289 328 237 257 237 182 c 256
 237 139 248 102 272 67 c 257
 193 81 123 145 123 261 c 256
 123 358 163 467 313 467 c 258
 399 467 l 257
 399 621 l 257
 1187 621 l 257
 1187 666 l 257
 -13 666 l 257
 -13 621 l 257
 313 621 l 257
 313 518 l 257
 295 518 l 258
 145 518 37 410 37 261 c 256
 37 100 176 20 315 20 c 256
333 66 m 257
 320 99 314 129 314 167 c 256
 314 237 350 281 399 281 c 256
 439 281 466 246 466 189 c 256
 466 116 415 68 333 66 c 257
EndSplineSet
Fore
SplineSet
37 261 m 260x2fc0
 37 118 168 47 299 47 c 260
 442 47 532 116 532 215 c 260
 532 288 472 355 367 355 c 260
 288 355 217 313 217 229 c 260
 217 157 269 133 301 133 c 260
 309 133 318 135 318 143 c 260
 318 155 294 174 294 232 c 260
 294 268 315 308 370 308 c 260
 421 308 451 273 451 216 c 260
 451 143 396 90 302 90 c 260
 186 90 123 161 123 260 c 260
 123 358 163 467 313 467 c 262xb7c0
 399 467 l 261x2fc0
 399 621 l 261
 1187 621 l 261
 1187 666 l 261
 -13 666 l 261x37c0
 -13 621 l 261
 313 621 l 261
 313 518 l 261
 295 518 l 262
 145 518 37 410 37 261 c 260x2fc0
636 255 m 257
 636 130 732 52 850 52 c 256
 930 52 988 81 1022 104 c 256
 1051 124 1055 131 1055 136 c 256
 1055 147 1043 163 1032 163 c 256
 1022 163 963 99 860 99 c 256
 789 99 730 139 720 233 c 257
 791 255 834 306 834 366 c 256
 834 450 778 518 662 518 c 258
 395 518 l 257
 395 467 l 257x6fc0
 634 467 l 258
 721 467 751 419 751 360 c 256
 751 311 706 272 636 255 c 257
990 0 m 257
 1076 0 l 257
 1076 636 l 257
 990 636 l 257
 990 0 l 257
EndSplineSet
Validated: 5
PickledData: "(dp1
S'com.typemytype.robofont.layerData'
p2
(dp3
S'original'
p4
(dp5
S'name'
p6
S'ddhadeva_viramadeva_yadeva'
p7
sS'lib'
p8
(dp9
sS'unicodes'
p10
(tsS'width'
p11
I1202
sS'contours'
p12
(tsS'components'
p13
(tsS'anchors'
p14
(tsssS'com.typemytype.robofont.mark'
p15
(I1
I1
I1
I0
tp16
s."
Ligature2: "Lohit-Devanagari-PreBaseSubstitutionslookup1 subtable" ddhadeva_viramadeva yadeva
Ligature2: "Lohit-Devanagari-LocalizedMrHalfFormslookup1 subtable" ddhadeva viramadeva yadeva
LCarets2: 2 0 0
EndChar

StartChar: dhadeva
Encoding: 87 2343 90
Width: 648
VWidth: 0
GlyphClass: 2
Flags: W
AnchorPoint: "Lohit-Devanagari-DVAnchor3" 520 664 basechar 0
LayerCount: 2
Back
Fore
SplineSet
342 412 m 256
 323 415 305 417 288 417 c 256
 266 417 246 414 225 408 c 257
 168 415 111 441 111 524 c 256
 111 587 145 636 186 636 c 256
 227 636 247 602 247 560 c 256
 247 526 239 520 239 513 c 256
 239 507 244 506 252 506 c 256
 289 506 319 531 319 575 c 256
 319 634 275 677 194 677 c 256
 99 677 32 610 32 528 c 256
 32 453 75 399 160 371 c 257
 108 341 85 300 85 259 c 256
 85 170 160 110 270 110 c 256
 338 110 420 149 473 209 c 257
 473 0 l 257
 560 0 l 257
 560 621 l 257
 661 621 l 257
 661 666 l 257
 367 666 l 257
 367 621 l 257
 473 621 l 257
 473 267 l 257
 426 210 369 163 280 163 c 256
 208 163 171 215 171 267 c 256
 171 319 216 371 305 371 c 256
 316 371 328 370 336 370 c 256
 345 370 351 382 351 395 c 256
 351 405 348 411 342 412 c 256
EndSplineSet
Validated: 9
PickledData: "(dp1
S'com.typemytype.robofont.layerData'
p2
(dp3
S'original'
p4
(dp5
S'name'
p6
S'dhadeva'
p7
sS'lib'
p8
(dp9
sS'unicodes'
p10
(tsS'width'
p11
I648
sS'contours'
p12
((dp13
S'points'
p14
((dp15
S'segmentType'
p16
S'curve'
p17
sS'x'
I276
sS'smooth'
p18
I01
sS'y'
I113
s(dp19
S'y'
F113
sS'x'
F175.5
sg18
I00
s(dp20
S'y'
F176.62
sS'x'
F96
sg18
I00
s(dp21
g16
S'curve'
p22
sS'x'
I96
sg18
I01
sS'y'
I253
s(dp23
S'y'
F301.24000000000001
sS'x'
F96
sg18
I00
s(dp24
S'y'
F343.22000000000003
sS'x'
F115.5
sg18
I00
s(dp25
g16
S'curve'
p26
sS'x'
I149
sg18
I00
sS'y'
I366
s(dp27
S'y'
F415.57999999999998
sS'x'
F77.980000000000004
sg18
I00
s(dp28
S'y'
F483.01999999999998
sS'x'
F36
sg18
I00
s(dp29
g16
S'curve'
p30
sS'x'
I36
sg18
I01
sS'y'
I546
s(dp31
S'y'
F622.38
sS'x'
F36
sg18
I00
s(dp32
S'y'
F686
sS'x'
F96.640000000000001
sg18
I00
s(dp33
g16
S'curve'
p34
sS'x'
I169
sg18
I01
sS'y'
I686
s(dp35
S'y'
F686
sS'x'
F245.38
sg18
I00
s(dp36
S'y'
F642.67999999999995
sS'x'
F296
sg18
I00
s(dp37
g16
S'curve'
p38
sS'x'
I296
sg18
I01
sS'y'
I573
s(dp39
S'y'
F514.03999999999996
sS'x'
F296
sg18
I00
s(dp40
S'y'
F466
sS'x'
F241.66
sg18
I00
s(dp41
g16
S'curve'
p42
sS'x'
I176
sg18
I00
sS'y'
I466
s(dp43
g16
S'line'
p44
sS'x'
I176
sg18
I00
sS'y'
I533
s(dp45
S'y'
F533
sS'x'
F205.47999999999999
sg18
I00
s(dp46
S'y'
F551.55999999999995
sS'x'
F229
sg18
I00
s(dp47
g16
S'curve'
p48
sS'x'
I229
sg18
I01
sS'y'
I573
s(dp49
S'y'
F597.12
sS'x'
F229
sg18
I00
s(dp50
S'y'
F619
sS'x'
F202.5
sg18
I00
s(dp51
g16
S'curve'
p52
sS'x'
I169
sg18
I01
sS'y'
I619
s(dp53
S'y'
F619
sS'x'
F131.47999999999999
sg18
I00
s(dp54
S'y'
F587.53999999999996
sS'x'
F103
sg18
I00
s(dp55
g16
S'curve'
p56
sS'x'
I103
sg18
I01
sS'y'
I546
s(dp57
S'y'
F493.74000000000001
sS'x'
F103
sg18
I00
s(dp58
S'y'
F442.18000000000001
sS'x'
F140.36000000000001
sg18
I00
s(dp59
g16
S'curve'
p60
sS'x'
I202
sg18
I00
sS'y'
I406
s(dp61
S'y'
F418.06
sS'x'
F231.47999999999999
sg18
I00
s(dp62
S'y'
F426
sS'x'
F264.48000000000002
sg18
I00
s(dp63
g16
S'curve'
p64
sS'x'
I302
sg18
I01
sS'y'
I426
s(dp65
g16
S'line'
p66
sS'x'
I342
sg18
I00
sS'y'
I426
s(dp67
g16
S'line'
p68
sS'x'
I382
sg18
I00
sS'y'
I360
s(dp69
g16
S'line'
p70
sS'x'
I309
sg18
I01
sS'y'
I360
s(dp71
S'y'
F360
sS'x'
F227.25999999999999
sg18
I00
s(dp72
S'y'
F311.95999999999998
sS'x'
F162
sg18
I00
s(dp73
g16
S'curve'
p74
sS'x'
I162
sg18
I01
sS'y'
I253
s(dp75
S'y'
F211.46000000000001
sS'x'
F162
sg18
I00
s(dp76
S'y'
F180
sS'x'
F213.02000000000001
sg18
I00
s(dp77
g16
S'curve'
p78
sS'x'
I276
sg18
I01
sS'y'
I180
s(dp79
S'y'
F180
sS'x'
F347.01999999999998
sg18
I00
s(dp80
S'y'
F228.58000000000001
sS'x'
F423.04000000000002
sg18
I00
s(dp81
g16
S'curve'
p82
sS'x'
I482
sg18
I00
sS'y'
I313
s(dp83
g16
S'line'
p84
sS'x'
I482
sg18
I00
sS'y'
I606
s(dp85
g16
S'line'
p86
sS'x'
I336
sg18
I00
sS'y'
I606
s(dp87
g16
S'line'
p88
sS'x'
I336
sg18
I00
sS'y'
I666
s(dp89
g16
S'line'
p90
sS'x'
I662
sg18
I00
sS'y'
I666
s(dp91
g16
S'line'
p92
sS'x'
I662
sg18
I00
sS'y'
I606
s(dp93
g16
S'line'
p94
sS'x'
I549
sg18
I00
sS'y'
I606
s(dp95
g16
S'line'
p96
sS'x'
I549
sg18
I00
sS'y'
I0
s(dp97
g16
S'line'
p98
sS'x'
I482
sg18
I00
sS'y'
I0
s(dp99
g16
S'line'
p100
sS'x'
I482
sg18
I00
sS'y'
I220
s(dp101
S'y'
F151.66
sS'x'
F424.38
sg18
I00
s(dp102
S'y'
F113
sS'x'
F351.04000000000002
sg18
I00
stp103
stp104
sS'components'
p105
(tsS'anchors'
p106
((dp107
S'y'
I664
sS'x'
I520
sg6
S'DVAnchor3'
p108
stp109
sssS'com.typemytype.robofont.mark'
p110
(F0.75
F1
F1
F1
tp111
s."
EndChar

StartChar: dhadeva_viramadeva
Encoding: 253 -1 91
Width: 490
VWidth: 0
GlyphClass: 2
Flags: W
HStem: 110 53<210.897 384.881> 371 46<225.984 350.961> 636 41<143.27 229.574>
VStem: 32 79<452.708 602.831> 85 86<202.352 324.652> 247 72<521.683 621.185>
LayerCount: 2
Back
SplineSet
503 621 m 257
 503 666 l 257
 367 666 l 257
 367 621 l 257
 503 621 l 257
280 163 m 256
 208 163 171 215 171 267 c 256
 171 319 216 371 305 371 c 256
 316 371 328 370 336 370 c 256
 345 370 351 382 351 395 c 256
 351 405 348 411 342 412 c 256
 323 415 305 417 288 417 c 256
 266 417 246 414 225 408 c 257
 168 415 111 441 111 524 c 256
 111 587 145 636 186 636 c 256
 227 636 247 602 247 560 c 256
 247 526 239 520 239 513 c 256
 239 507 244 506 252 506 c 256
 289 506 319 531 319 575 c 256
 319 634 275 677 194 677 c 256
 99 677 32 610 32 528 c 256
 32 453 75 399 160 371 c 257
 108 341 85 300 85 259 c 256
 85 170 160 110 270 110 c 256
 416 110 520 250 520 261 c 256
 520 271 507 284 493 284 c 256
 480 284 404 163 280 163 c 256
EndSplineSet
Fore
SplineSet
503 621 m 257xe4
 503 666 l 257
 367 666 l 257
 367 621 l 257
 503 621 l 257xe4
280 163 m 256
 208 163 171 215 171 267 c 256xec
 171 319 216 371 305 371 c 256
 316 371 328 370 336 370 c 256
 345 370 351 382 351 395 c 256
 351 405 348 411 342 412 c 256
 323 415 305 417 288 417 c 256
 266 417 246 414 225 408 c 257
 168 415 111 441 111 524 c 256
 111 587 145 636 186 636 c 256
 227 636 247 602 247 560 c 256
 247 526 239 520 239 513 c 256
 239 507 244 506 252 506 c 256
 289 506 319 531 319 575 c 256
 319 634 275 677 194 677 c 256
 99 677 32 610 32 528 c 256xf4
 32 453 75 399 160 371 c 257
 108 341 85 300 85 259 c 256xec
 85 170 160 110 270 110 c 256
 442 110 546 250 546 261 c 256
 546 271 533 284 519 284 c 256
 506 284 430 163 280 163 c 256
EndSplineSet
Validated: 9
PickledData: "(dp1
S'com.typemytype.robofont.layerData'
p2
(dp3
S'original'
p4
(dp5
S'name'
p6
S'dhadeva_viramadeva'
p7
sS'lib'
p8
(dp9
sS'unicodes'
p10
(tsS'width'
p11
I490
sS'contours'
p12
((dp13
S'points'
p14
((dp15
S'segmentType'
p16
S'line'
p17
sS'x'
I350
sS'smooth'
p18
I00
sS'y'
I606
s(dp19
g16
S'line'
p20
sS'x'
I350
sg18
I00
sS'y'
I666
s(dp21
g16
S'line'
p22
sS'x'
I503
sg18
I00
sS'y'
I666
s(dp23
g16
S'line'
p24
sS'x'
I503
sg18
I00
sS'y'
I606
stp25
s(dp26
g14
((dp27
g16
S'curve'
p28
sS'x'
I277
sg18
I01
sS'y'
I107
s(dp29
S'y'
F107
sS'x'
F176.5
sg18
I00
s(dp30
S'y'
F171.25999999999999
sS'x'
F97
sg18
I00
s(dp31
g16
S'curve'
p32
sS'x'
I97
sg18
I01
sS'y'
I253
s(dp33
S'y'
F301.24000000000001
sS'x'
F97
sg18
I00
s(dp34
S'y'
F344.56
sS'x'
F119.48
sg18
I00
s(dp35
g16
S'curve'
p36
sS'x'
I157
sg18
I00
sS'y'
I366
s(dp37
S'y'
F399.5
sS'x'
F84.640000000000001
sg18
I00
s(dp38
S'y'
F469.62
sS'x'
F37
sg18
I00
s(dp39
g16
S'curve'
p40
sS'x'
I37
sg18
I01
sS'y'
I546
s(dp41
S'y'
F619.70000000000005
sS'x'
F37
sg18
I00
s(dp42
S'y'
F679
sS'x'
F97.640000000000001
sg18
I00
s(dp43
g16
S'curve'
p44
sS'x'
I170
sg18
I01
sS'y'
I679
s(dp45
S'y'
F679
sS'x'
F239.68000000000001
sg18
I00
s(dp46
S'y'
F631.96000000000004
sS'x'
F297
sg18
I00
s(dp47
g16
S'curve'
p48
sS'x'
I297
sg18
I01
sS'y'
I573
s(dp49
S'y'
F516.72000000000003
sS'x'
F297
sg18
I00
s(dp50
S'y'
F473
sS'x'
F242.66
sg18
I00
s(dp51
g16
S'curve'
p52
sS'x'
I177
sg18
I00
sS'y'
I473
s(dp53
g16
S'line'
p54
sS'x'
I177
sg18
I00
sS'y'
I533
s(dp55
S'y'
F533
sS'x'
F207.81999999999999
sg18
I00
s(dp56
S'y'
F551.55999999999995
sS'x'
F230
sg18
I00
s(dp57
g16
S'curve'
p58
sS'x'
F230
sg18
I01
sg6
S'inserted'
p59
sS'y'
F573
s(dp60
S'y'
F594.44000000000005
sS'x'
F230
sg18
I00
s(dp61
S'y'
F613
sS'x'
F204.84
sg18
I00
s(dp62
g16
S'curve'
p63
sS'x'
I170
sg18
I01
sS'y'
I613
s(dp64
S'y'
F613
sS'x'
F132.47999999999999
sg18
I00
s(dp65
S'y'
F583.51999999999998
sS'x'
F104
sg18
I00
s(dp66
g16
S'curve'
p67
sS'x'
I104
sg18
I01
sS'y'
I546
s(dp68
S'y'
F481.68000000000001
sS'x'
F104
sg18
I00
s(dp69
S'y'
F423.12
sS'x'
F145.68000000000001
sg18
I00
s(dp70
g16
S'curve'
p71
sS'x'
I210
sg18
I00
sS'y'
I399
s(dp72
S'y'
F412.39999999999998
sS'x'
F246.18000000000001
sg18
I00
s(dp73
S'y'
F419
sS'x'
F273.92000000000002
sg18
I00
s(dp74
g16
S'curve'
p75
sS'x'
I290
sg18
I01
sS'y'
I419
s(dp76
g16
S'line'
p77
sS'x'
I357
sg18
I00
sS'y'
I419
s(dp78
g16
S'line'
p79
sS'x'
I390
sg18
I00
sS'y'
I366
s(dp80
g16
S'line'
p81
sS'x'
I310
sg18
I01
sS'y'
I366
s(dp82
S'y'
F366
sS'x'
F224.24000000000001
sg18
I00
s(dp83
S'y'
F315.98000000000002
sS'x'
F157
sg18
I00
s(dp84
g16
S'curve'
p85
sS'x'
I157
sg18
I01
sS'y'
I253
s(dp86
S'y'
F204.75999999999999
sS'x'
F157
sg18
I00
s(dp87
S'y'
F166
sS'x'
F211.34
sg18
I00
s(dp88
g16
S'curve'
p89
sS'x'
I277
sg18
I01
sS'y'
I166
s(dp90
S'y'
F166
sS'x'
F345.33999999999997
sg18
I00
s(dp91
S'y'
F224.16
sS'x'
F431.24000000000001
sg18
I00
s(dp92
g16
S'curve'
p93
sS'x'
I517
sg18
I00
sS'y'
I326
s(dp94
g16
S'line'
p95
sS'x'
I517
sg18
I00
sS'y'
I240
s(dp96
S'y'
F154.24000000000001
sS'x'
F431.24000000000001
sg18
I00
s(dp97
S'y'
F107
sS'x'
F345.33999999999997
sg18
I00
stp98
stp99
sS'components'
p100
(tsS'anchors'
p101
(tsssS'com.typemytype.robofont.mark'
p102
(F0.75
F1
F1
F1
tp103
s."
Ligature2: "Lohit-Devanagari-HalfFormslookup10 subtable" dhadeva viramadeva
LCarets2: 1 0
EndChar

StartChar: dhadeva_viramadeva_radeva
Encoding: 254 -1 92
Width: 648
VWidth: 0
GlyphClass: 2
Flags: W
LayerCount: 2
Back
Fore
SplineSet
473 193 m 257
 473 223 l 257
 66 54 l 258
 60 51 58 45 58 38 c 256
 58 13 80 -32 95 -32 c 256
 98 -32 101 -32 106 -28 c 258
 473 193 l 257
EndSplineSet
Refer: 90 2343 N 1 0 0 1 0 0 2
Validated: 5
PickledData: "(dp1
S'com.typemytype.robofont.layerData'
p2
(dp3
S'original'
p4
(dp5
S'name'
p6
S'dhadeva_viramadeva_radeva'
p7
sS'lib'
p8
(dp9
sS'unicodes'
p10
(tsS'width'
p11
I648
sS'contours'
p12
((dp13
S'points'
p14
((dp15
S'segmentType'
p16
S'line'
p17
sS'x'
I238
sS'smooth'
p18
I00
sS'y'
I117
s(dp19
S'y'
F133.08000000000001
sS'x'
F157.59999999999999
sg18
I00
s(dp20
S'y'
F188.68000000000001
sS'x'
F101
sg18
I00
s(dp21
g16
S'curve'
p22
sS'x'
I101
sg18
I01
sS'y'
I253
s(dp23
S'y'
F301.24000000000001
sS'x'
F101
sg18
I00
s(dp24
S'y'
F343.22000000000003
sS'x'
F120.5
sg18
I00
s(dp25
g16
S'curve'
p26
sS'x'
I154
sg18
I00
sS'y'
I366
s(dp27
S'y'
F415.57999999999998
sS'x'
F82.980000000000004
sg18
I00
s(dp28
S'y'
F483.01999999999998
sS'x'
F41
sg18
I00
s(dp29
g16
S'curve'
p30
sS'x'
I41
sg18
I01
sS'y'
I546
s(dp31
S'y'
F622.38
sS'x'
F41
sg18
I00
s(dp32
S'y'
F686
sS'x'
F101.64
sg18
I00
s(dp33
g16
S'curve'
p34
sS'x'
I174
sg18
I01
sS'y'
I686
s(dp35
S'y'
F686
sS'x'
F251.72
sg18
I00
s(dp36
S'y'
F642.67999999999995
sS'x'
F301
sg18
I00
s(dp37
g16
S'curve'
p38
sS'x'
I301
sg18
I01
sS'y'
I573
s(dp39
S'y'
F514.03999999999996
sS'x'
F301
sg18
I00
s(dp40
S'y'
F466
sS'x'
F246.66
sg18
I00
s(dp41
g16
S'curve'
p42
sS'x'
I181
sg18
I00
sS'y'
I466
s(dp43
g16
S'line'
p44
sS'x'
I181
sg18
I00
sS'y'
I533
s(dp45
S'y'
F533
sS'x'
F211.81999999999999
sg18
I00
s(dp46
S'y'
F551.55999999999995
sS'x'
F234
sg18
I00
s(dp47
g16
S'curve'
p48
sS'x'
I234
sg18
I01
sS'y'
I573
s(dp49
S'y'
F597.12
sS'x'
F234
sg18
I00
s(dp50
S'y'
F619
sS'x'
F208.84
sg18
I00
s(dp51
g16
S'curve'
p52
sS'x'
I174
sg18
I01
sS'y'
I619
s(dp53
S'y'
F619
sS'x'
F136.47999999999999
sg18
I00
s(dp54
S'y'
F587.53999999999996
sS'x'
F108
sg18
I00
s(dp55
g16
S'curve'
p56
sS'x'
I108
sg18
I01
sS'y'
I546
s(dp57
S'y'
F493.74000000000001
sS'x'
F108
sg18
I00
s(dp58
S'y'
F442.18000000000001
sS'x'
F145.02000000000001
sg18
I00
s(dp59
g16
S'curve'
p60
sS'x'
I208
sg18
I00
sS'y'
I406
s(dp61
S'y'
F418.06
sS'x'
F236.13999999999999
sg18
I00
s(dp62
S'y'
F426
sS'x'
F270.48000000000002
sg18
I00
s(dp63
g16
S'curve'
p64
sS'x'
I308
sg18
I01
sS'y'
I426
s(dp65
g16
S'line'
p66
sS'x'
I348
sg18
I00
sS'y'
I426
s(dp67
g16
S'line'
p68
sS'x'
I387
sg18
I00
sS'y'
I360
s(dp69
g16
S'line'
p70
sS'x'
I314
sg18
I01
sS'y'
I360
s(dp71
S'y'
F360
sS'x'
F232.25999999999999
sg18
I00
s(dp72
S'y'
F311.95999999999998
sS'x'
F168
sg18
I00
s(dp73
g16
S'curve'
p74
sS'x'
I168
sg18
I01
sS'y'
I253
s(dp75
S'y'
F211.46000000000001
sS'x'
F168
sg18
I00
s(dp76
S'y'
F180
sS'x'
F218.02000000000001
sg18
I00
s(dp77
g16
S'curve'
p78
sS'x'
F281
sg18
I01
sg6
S'inserted'
p79
sS'y'
F180
s(dp80
S'y'
F180
sS'x'
F343.98000000000002
sg18
I00
s(dp81
S'y'
F212.69999999999999
sS'x'
F415.98000000000002
sg18
I00
s(dp82
g16
S'curve'
p83
sS'x'
I487
sg18
I00
sS'y'
I273
s(dp84
g16
S'line'
p85
sS'x'
I487
sg18
I00
sS'y'
I606
s(dp86
g16
S'line'
p87
sS'x'
I341
sg18
I00
sS'y'
I606
s(dp88
g16
S'line'
p89
sS'x'
I341
sg18
I00
sS'y'
I666
s(dp90
g16
S'line'
p91
sS'x'
I667
sg18
I00
sS'y'
I666
s(dp92
g16
S'line'
p93
sS'x'
I667
sg18
I00
sS'y'
I606
s(dp94
g16
S'line'
p95
sS'x'
I554
sg18
I00
sS'y'
I606
s(dp96
g16
S'line'
p97
sS'x'
I554
sg18
I00
sS'y'
I0
s(dp98
g16
S'line'
p99
sS'x'
I487
sg18
I00
sS'y'
I0
s(dp100
g16
S'line'
p101
sS'x'
I487
sg18
I00
sS'y'
I194
s(dp102
g16
S'line'
p103
sS'x'
I88
sg18
I00
sS'y'
I-33
s(dp104
g16
S'line'
p105
sS'x'
I61
sg18
I00
sS'y'
I20
stp106
stp107
sS'components'
p108
(tsS'anchors'
p109
(tsssS'com.typemytype.robofont.mark'
p110
(F0.75
F1
F1
F1
tp111
s."
LCarets2: 1 0
Ligature2: "Lohit-Devanagari-VattuVariantslookup30 subtable" dhadeva viramadeva_radeva
EndChar

StartChar: divide
Encoding: 46 247 93
Width: 636
VWidth: 0
GlyphClass: 2
Flags: HW
LayerCount: 2
Back
SplineSet
91 297 m 257
 484 297 l 257
 484 366 l 257
 91 366 l 257
 91 297 l 257
230 485 m 256
 230 462 264 426 286 426 c 256
 308 426 345 462 345 485 c 256
 345 511 308 547 286 547 c 256
 264 547 230 511 230 485 c 256
230 176 m 256
 230 153 264 116 286 116 c 256
 308 116 345 153 345 176 c 256
 345 202 308 237 286 237 c 256
 264 237 230 202 230 176 c 256
EndSplineSet
Fore
SplineSet
91 297 m 257
 484 297 l 257
 484 366 l 257
 91 366 l 257
 91 297 l 257
230 485 m 256
 230 462 264 426 286 426 c 256
 308 426 345 462 345 485 c 256
 345 511 308 547 286 547 c 256
 264 547 230 511 230 485 c 256
230 176 m 256
 230 153 264 116 286 116 c 256
 308 116 345 153 345 176 c 256
 345 202 308 237 286 237 c 256
 264 237 230 202 230 176 c 256
EndSplineSet
Validated: 9
PickledData: "(dp1
S'com.typemytype.robofont.layerData'
p2
(dp3
S'original'
p4
(dp5
S'name'
p6
S'divide'
p7
sS'lib'
p8
(dp9
sS'unicodes'
p10
(tsS'width'
p11
I832
sS'contours'
p12
(tsS'components'
p13
(tsS'anchors'
p14
(tsssS'com.typemytype.robofont.mark'
p15
(I1
I1
I1
I0
tp16
s."
EndChar

StartChar: dollar
Encoding: 5 36 94
Width: 595
VWidth: 0
GlyphClass: 2
Flags: HW
LayerCount: 2
Back
SplineSet
266 52 m 256
 201 52 140 89 140 157 c 256
 140 207 169 228 169 237 c 256
 169 248 164 248 149 248 c 256
 93 248 50 210 50 150 c 256
 50 59 136 10 234 1 c 257
 234 -141 l 257
 255 -141 281 -136 293 -120 c 257
 293 1 l 257
 403 11 471 81 471 172 c 256
 471 390 149 327 149 515 c 256
 149 562 183 615 257 615 c 256
 304 615 353 586 353 532 c 256
 353 483 324 459 324 452 c 256
 324 440 331 440 345 440 c 256
 400 440 444 482 444 539 c 256
 444 611 375 653 293 664 c 257
 293 810 l 257
 274 810 247 803 234 786 c 257
 234 666 l 257
 116 656 61 570 61 490 c 256
 61 264 378 309 378 156 c 256
 378 90 323 52 266 52 c 256
EndSplineSet
Fore
SplineSet
266 52 m 256
 201 52 140 89 140 157 c 256
 140 207 169 228 169 237 c 256
 169 248 164 248 149 248 c 256
 93 248 50 210 50 150 c 256
 50 59 136 10 234 1 c 257
 234 -141 l 257
 255 -141 281 -136 293 -120 c 257
 293 1 l 257
 403 11 471 81 471 172 c 256
 471 390 149 327 149 515 c 256
 149 562 183 615 257 615 c 256
 304 615 353 586 353 532 c 256
 353 483 324 459 324 452 c 256
 324 440 331 440 345 440 c 256
 400 440 444 482 444 539 c 256
 444 611 375 653 293 664 c 257
 293 810 l 257
 274 810 247 803 234 786 c 257
 234 666 l 257
 116 656 61 570 61 490 c 256
 61 264 378 309 378 156 c 256
 378 90 323 52 266 52 c 256
EndSplineSet
Validated: 9
PickledData: "(dp1
S'com.typemytype.robofont.layerData'
p2
(dp3
S'original'
p4
(dp5
S'name'
p6
S'dollar'
p7
sS'lib'
p8
(dp9
sS'unicodes'
p10
(tsS'width'
p11
I712
sS'contours'
p12
(tsS'components'
p13
(tsS'anchors'
p14
(tsssS'com.typemytype.robofont.mark'
p15
(I1
I1
I1
I0
tp16
s."
EndChar

StartChar: dottedcircle
Encoding: 185 9676 95
Width: 919
VWidth: 0
GlyphClass: 2
Flags: W
LayerCount: 2
Back
Fore
SplineSet
615 112 m 256
 642 112 663 91 663 64 c 256
 663 37 642 15 615 15 c 256
 588 15 567 37 567 64 c 256
 567 91 588 112 615 112 c 256
304 651 m 256
 331 651 352 630 352 603 c 256
 352 576 331 555 304 555 c 256
 277 555 256 576 256 603 c 256
 256 630 277 651 304 651 c 256
730 225 m 256
 757 225 778 204 778 177 c 256
 778 150 757 129 730 129 c 256
 703 129 682 150 682 177 c 256
 682 204 703 225 730 225 c 256
190 537 m 256
 217 537 238 516 238 489 c 256
 238 462 217 441 190 441 c 256
 163 441 142 462 142 489 c 256
 142 516 163 537 190 537 c 256
304 112 m 256
 331 112 352 91 352 64 c 256
 352 37 331 15 304 15 c 256
 277 15 256 37 256 64 c 256
 256 91 277 112 304 112 c 256
615 651 m 256
 642 651 663 630 663 603 c 256
 663 576 642 555 615 555 c 256
 588 555 567 576 567 603 c 256
 567 630 588 651 615 651 c 256
730 537 m 256
 757 537 778 516 778 489 c 256
 778 462 757 441 730 441 c 256
 703 441 682 462 682 489 c 256
 682 516 703 537 730 537 c 256
190 225 m 256
 217 225 238 204 238 177 c 256
 238 150 217 129 190 129 c 256
 163 129 142 150 142 177 c 256
 142 204 163 225 190 225 c 256
771 381 m 256
 798 381 819 360 819 333 c 256
 819 306 798 285 771 285 c 256
 744 285 723 306 723 333 c 256
 723 360 744 381 771 381 c 256
148 381 m 256
 175 381 196 360 196 333 c 256
 196 306 175 285 148 285 c 256
 121 285 100 306 100 333 c 256
 100 360 121 381 148 381 c 256
459 69 m 256
 486 69 507 48 507 21 c 256
 507 -6 486 -27 459 -27 c 256
 432 -27 411 -6 411 21 c 256
 411 48 432 69 459 69 c 256
411 644 m 256
 411 671 432 692 459 692 c 256
 486 692 507 671 507 644 c 256
 507 619 486 597 459 597 c 256
 432 597 411 619 411 644 c 256
EndSplineSet
Validated: 1
PickledData: "(dp1
S'com.typemytype.robofont.layerData'
p2
(dp3
S'original'
p4
(dp5
S'name'
p6
S'dottedcircle'
p7
sS'lib'
p8
(dp9
sS'unicodes'
p10
(tsS'width'
p11
I918
sS'contours'
p12
(tsS'components'
p13
(tsS'anchors'
p14
(tsssS'com.typemytype.robofont.mark'
p15
(I1
I1
I1
I0
tp16
s."
EndChar

StartChar: doublecandrabinduviramadeva
Encoding: 206 43252 96
Width: 571
VWidth: 0
GlyphClass: 2
Flags: W
LayerCount: 2
Back
Fore
SplineSet
286 506 m 256
 228 506 186 546 181 609 c 256
 177 655 168 661 156 661 c 256
 133 661 105 636 105 592 c 256
 105 517 183 465 286 465 c 256
 388 465 466 517 466 592 c 256
 466 636 438 661 415 661 c 256
 403 661 394 655 390 609 c 256
 385 546 342 506 286 506 c 256
236 644 m 256
 236 622 267 590 286 590 c 256
 307 590 338 622 338 644 c 256
 338 665 307 698 286 698 c 256
 266 698 236 665 236 644 c 256
477 -149 m 256
 494 -149 525 -119 525 -100 c 256
 525 -94 522 -90 514 -84 c 258
 285 78 l 257
 217 37 l 258
 208 31 202 26 202 19 c 256
 202 4 227 -29 241 -29 c 256
 248 -29 254 -27 264 -13 c 258
 286 17 l 257
 457 -139 l 258
 465 -146 471 -149 477 -149 c 256
236 346 m 256
 236 324 267 292 286 292 c 256
 307 292 338 324 338 346 c 256
 338 367 307 400 286 400 c 256
 266 400 236 367 236 346 c 256
286 208 m 256
 228 208 186 248 181 311 c 256
 177 357 168 363 156 363 c 256
 133 363 105 338 105 294 c 256
 105 219 183 167 286 167 c 256
 388 167 466 219 466 294 c 256
 466 338 438 363 415 363 c 256
 403 363 394 357 390 311 c 256
 385 248 342 208 286 208 c 256
EndSplineSet
Validated: 9
PickledData: "(dp1
S'com.typemytype.robofont.layerData'
p2
(dp3
S'original'
p4
(dp5
S'name'
p6
S'doublecandrabinduviramadeva'
p7
sS'lib'
p8
(dp9
sS'unicodes'
p10
(tsS'width'
p11
I632
sS'contours'
p12
((dp13
S'points'
p14
((dp15
S'segmentType'
p16
S'line'
p17
sS'x'
I267
sS'smooth'
p18
I00
sS'y'
I281
s(dp19
g16
S'line'
p20
sS'x'
I267
sg18
I00
sS'y'
I368
s(dp21
g16
S'line'
p22
sS'x'
I353
sg18
I00
sS'y'
I368
s(dp23
g16
S'line'
p24
sS'x'
I353
sg18
I00
sS'y'
I281
stp25
s(dp26
g14
((dp27
g16
S'curve'
p28
sS'x'
I313
sg18
I01
sS'y'
I135
s(dp29
S'y'
F135
sS'x'
F208.47999999999999
sg18
I00
s(dp30
S'y'
F212.46000000000001
sS'x'
F120.09999999999999
sg18
I00
s(dp31
g16
S'curve'
p32
sS'x'
I100
sg18
I00
sS'y'
I321
s(dp33
g16
S'line'
p34
sS'x'
I173
sg18
I00
sS'y'
I321
s(dp35
S'y'
F248.63999999999999
sS'x'
F186.40000000000001
sg18
I00
s(dp36
S'y'
F195
sS'x'
F246
sg18
I00
s(dp37
g16
S'curve'
p38
sS'x'
I313
sg18
I01
sS'y'
I195
s(dp39
S'y'
F195
sS'x'
F381.33999999999997
sg18
I00
s(dp40
S'y'
F248.63999999999999
sS'x'
F440.94
sg18
I00
s(dp41
g16
S'curve'
p42
sS'x'
I453
sg18
I00
sS'y'
I321
s(dp43
g16
S'line'
p44
sS'x'
I526
sg18
I00
sS'y'
I321
s(dp45
S'y'
F212.46000000000001
sS'x'
F507.24000000000001
sg18
I00
s(dp46
S'y'
F135
sS'x'
F418.86000000000001
sg18
I00
stp47
s(dp48
g14
((dp49
g16
S'line'
p50
sS'x'
I266
sg18
I00
sS'y'
I-60
s(dp51
g16
S'line'
p52
sS'x'
I232
sg18
I00
sS'y'
I-13
s(dp53
g16
S'line'
p54
sS'x'
I312
sg18
I00
sS'y'
I47
s(dp55
g16
S'line'
p56
sS'x'
I552
sg18
I00
sS'y'
I-140
s(dp57
g16
S'line'
p58
sS'x'
I512
sg18
I00
sS'y'
I-180
s(dp59
g16
S'line'
p60
sS'x'
I312
sg18
I00
sS'y'
I-20
stp61
s(dp62
g14
((dp63
g16
S'line'
p64
sS'x'
I267
sg18
I00
sS'y'
I578
s(dp65
g16
S'line'
p66
sS'x'
I267
sg18
I00
sS'y'
I665
s(dp67
g16
S'line'
p68
sS'x'
I353
sg18
I00
sS'y'
I665
s(dp69
g16
S'line'
p70
sS'x'
I353
sg18
I00
sS'y'
I578
stp71
s(dp72
g14
((dp73
g16
S'curve'
p74
sS'x'
I313
sg18
I01
sS'y'
I432
s(dp75
S'y'
F432
sS'x'
F208.47999999999999
sg18
I00
s(dp76
S'y'
F509.45999999999998
sS'x'
F120.09999999999999
sg18
I00
s(dp77
g16
S'curve'
p78
sS'x'
I100
sg18
I00
sS'y'
I618
s(dp79
g16
S'line'
p80
sS'x'
I173
sg18
I00
sS'y'
I618
s(dp81
S'y'
F545.63999999999999
sS'x'
F186.40000000000001
sg18
I00
s(dp82
S'y'
F492
sS'x'
F246
sg18
I00
s(dp83
g16
S'curve'
p84
sS'x'
I313
sg18
I01
sS'y'
I492
s(dp85
S'y'
F492
sS'x'
F381.33999999999997
sg18
I00
s(dp86
S'y'
F545.63999999999999
sS'x'
F440.94
sg18
I00
s(dp87
g16
S'curve'
p88
sS'x'
I453
sg18
I00
sS'y'
I618
s(dp89
g16
S'line'
p90
sS'x'
I526
sg18
I00
sS'y'
I618
s(dp91
S'y'
F509.45999999999998
sS'x'
F507.24000000000001
sg18
I00
s(dp92
S'y'
F432
sS'x'
F418.86000000000001
sg18
I00
stp93
stp94
sS'components'
p95
(tsS'anchors'
p96
(tsssS'com.typemytype.robofont.mark'
p97
(F0.1508399248
F0.30573034290000001
F0.19466084240000001
F1
tp98
s."
EndChar

